<?xml version="1.0" encoding="UTF-8"?>
<svg id="Layer_1" data-name="Layer 1" xmlns="http://www.w3.org/2000/svg" viewBox="0 0 595.28 791.39">
  <defs>
    <style>
      .cls-1, .cls-2, .cls-3, .cls-4, .cls-5, .cls-6, .cls-7, .cls-8, .cls-9, .cls-10, .cls-11, .cls-12 {
        stroke-width: 0px;
      }

      .cls-1, .cls-13, .cls-14 {
        fill: none;
      }

      .cls-2, .cls-15, .cls-16, .cls-17, .cls-12 {
        fill: #ffdd94;
      }

      .cls-2, .cls-15, .cls-17 {
        opacity: .8;
      }

      .cls-13, .cls-18, .cls-19, .cls-20, .cls-21, .cls-22, .cls-23, .cls-24, .cls-25, .cls-15, .cls-14, .cls-16, .cls-17 {
        stroke: #231f20;
        stroke-miterlimit: 10;
      }

      .cls-13, .cls-15 {
        stroke-width: .75px;
      }

      .cls-18 {
        fill: #fbf7c6;
      }

      .cls-19 {
        fill: #fbf7c7;
      }

      .cls-20, .cls-8 {
        fill: #b5c9ad;
      }

      .cls-21 {
        fill: #91ca64;
      }

      .cls-22 {
        fill: #828487;
      }

      .cls-23 {
        fill: #57585a;
      }

      .cls-24, .cls-5 {
        fill: #5a6759;
      }

      .cls-25 {
        fill: #231f20;
      }

      .cls-26 {
        opacity: .2;
      }

      .cls-16 {
        opacity: .6;
      }

      .cls-3 {
        fill: #4f4f51;
      }

      .cls-3, .cls-4, .cls-5, .cls-6, .cls-7 {
        opacity: .3;
      }

      .cls-4 {
        fill: #53361b;
      }

      .cls-6 {
        fill: #eaf7fe;
      }

      .cls-7 {
        fill: #c4c6c8;
      }

      .cls-9 {
        fill: #f1e9e0;
      }

      .cls-10 {
        fill: #fee59f;
      }

      .cls-11 {
        fill: #fff;
      }
    </style>
  </defs>
  <g>
    <g>
      <ellipse class="cls-4" cx="287.63" cy="687.39" rx="147.78" ry="40.14"/>
      <path class="cls-4" d="m536.09,687.27l-103.76,8.31c.69-.79,3.11-3.78,3.08-8.19-.02-3.06-1.21-5.31-1.83-6.32h102.51v6.2Z"/>
      <g>
        <g>
          <path class="cls-23" d="m148.91,655.1c-.47-1.09-.98-2.69-.82-4.57,1.71-20.53,79.24-32.64,136.45-33.5,58.93-.89,141.97,9.48,144.87,32.78.23,1.87-.09,3.5-.44,4.65-1.45,6.4-2.9,12.8-4.36,19.2-1.99,3.19-5.37,7.98-10.6,12.68-9.87,8.88-20.73,12.42-28.66,14.39-38.47,9.56-112.51,8.51-112.51,8.51s-55.76-.79-97.28-14.66c-6.37-2.13-13.37-5.62-18.05-12.45-2.71-3.95-3.83-7.84-4.35-10.24-1.42-5.59-2.84-11.18-4.26-16.78Z"/>
          <path class="cls-22" d="m424.97,652.27c-.27,13.62-76.12,24.8-136.19,24.8-60.12,0-135.93-11.19-136.19-24.8-.26-13.3,71.6-28.75,135.78-28.81,64.66-.06,136.87,15.48,136.61,28.81Z"/>
          <path class="cls-25" d="m546.14,664.39l-1.4-6.86c-38.75-.22-77.5-.44-116.25-.66-.25,1.6-.74,3.48-1.67,5.45-3.15,6.7-9.15,9.75-11.47,10.78"/>
          <path class="cls-14" d="m153.55,641.97c-2.75,2.09-5.7,5.06-5.48,8.38.85,12.76,47.81,19.23,71.09,22.44,33.27,4.59,85.59,8.92,151.37-1.63,56.02-8.99,58.68-18.65,58.88-21.36.24-3.2-2.26-6.05-4.53-8.02"/>
        </g>
        <path class="cls-3" d="m152.58,652.27c1.85,4.3,41.82-21.12,91.48-16.05,15.15,1.55,23.23,5.11,45.4,5.44,19.04.28,27.21-2.15,40.78-3.26,52.29-4.29,92.92,18.44,94.73,13.88,1.04-2.62-12.37-10.15-12.96-10.48-31.79-17.7-69.44-24.6-122.28-24.82-50.64-.21-92.51,5.82-125.72,25.48-10.21,6.04-11.87,8.8-11.43,9.81Z"/>
        <path class="cls-25" d="m415.36,673.1l8.45,1.81c39.15-2.37,78.3-4.73,117.45-7.1.42.01,2.02,0,3.41-1.19.95-.81,1.33-1.78,1.48-2.24"/>
      </g>
      <path class="cls-10" d="m327.36,656.21c-.46,2.1-7.68,0-11.84,4.58-2.54,2.8-1.34,5.24-3.78,7.78-2.9,3.02-7.59,2.71-11.87,2.53-22.94-.99-23.19,2.01-30.18-1.04-8.7-3.8-15.41-11.55-14.1-14.23.86-1.77,4.7-.2,11.45-1.91,2.84-.72,6.95-3.28,6.95-3.28h0s.3,3.87.3,3.87h0s12.25,10.18,12.25,10.18h0s.04.01.1.04c0,0,20.33-8.35,20.33-8.35h0s0-7.81,0-7.81h0c7.6.65,9.69,1.14,9.69,1.14,1.14.41,11.23,4.06,10.69,6.49Z"/>
      <path class="cls-12" d="m286.43,649.47c1.03-.34,2.06-.69,3.09-1.03-.05,1.44-.1,2.89-.15,4.33l-3.68-.44c.24-.95.49-1.91.73-2.86Z"/>
      <path class="cls-12" d="m291.62,649.67c-.48-.98-.95-1.95-1.43-2.93,1.44-.14,2.88-.28,4.31-.42l.05,3.7c-.98-.12-1.96-.24-2.94-.36Z"/>
      <path class="cls-12" d="m299.46,644.36c.83.7,1.67,1.39,2.5,2.09-1.25.72-2.51,1.43-3.76,2.15l-1.56-3.36c.94-.29,1.88-.59,2.82-.88Z"/>
      <path class="cls-12" d="m279.41,648.46c-.82-.72-1.63-1.44-2.45-2.15,1.27-.68,2.55-1.37,3.82-2.05l1.47,3.4c-.95.27-1.9.54-2.85.8Z"/>
      <path class="cls-12" d="m286.58,641.72c1-.42,2-.84,3-1.26.06,1.44.12,2.89.18,4.33l-3.7-.16c.17-.97.34-1.94.52-2.91Z"/>
      <path class="cls-12" d="m286.02,645.2c.75.79,1.49,1.58,2.24,2.37-1.33.56-2.66,1.12-3.99,1.69l-1.15-3.52c.97-.18,1.94-.36,2.91-.54Z"/>
      <path class="cls-12" d="m295.2,642.56c.12,1.08.25,2.16.37,3.24-1.4-.35-2.81-.69-4.21-1.04l1.19-3.51c.88.44,1.77.87,2.65,1.31Z"/>
      <path class="cls-15" d="m273.49,645.48c4.3,3.06,8.6,6.12,12.91,9.18,6.76-2.59,13.51-5.18,20.27-7.76-1.5-.76-3.67-1.94-6.15-3.61-4.59-3.09-5.31-4.56-7.69-4.89-2.63-.38-3.98,1.1-8.57,3.29-2.37,1.13-5.98,2.64-10.78,3.79Z"/>
      <path class="cls-12" d="m295.05,660.38c-.92.58-1.84,1.16-2.75,1.74-.3-1.41-.6-2.83-.89-4.24l3.67-.46c0,.99-.02,1.97-.03,2.96Z"/>
      <path class="cls-12" d="m305.69,652.78c-.09,1.08-.17,2.17-.26,3.25-1.31-.61-2.62-1.22-3.93-1.83l1.84-3.22c.78.6,1.57,1.2,2.35,1.79Z"/>
      <path class="cls-12" d="m294.59,652.43c.99.45,1.97.91,2.96,1.36-1.02,1.02-2.05,2.04-3.07,3.06l-2.38-2.83c.83-.53,1.66-1.06,2.5-1.59Z"/>
      <path class="cls-12" d="m291.23,661.7c-.83.14-1.65.28-2.48.42-.52-.48-1.04-.97-1.56-1.45l3.6.05c.15.33.29.65.44.98Z"/>
      <path class="cls-12" d="m300.79,651.72c-1.08-.12-2.16-.25-3.24-.37.81-.29,1.61-.57,2.42-.86.9-.35,1.8-.7,2.7-1.05-.63.76-1.25,1.52-1.88,2.28Z"/>
      <path class="cls-12" d="m300.1,658.24c-1.04-.32-2.08-.64-3.11-.96.88-1.14,1.76-2.29,2.65-3.43l2.73,2.5c-.76.63-1.51,1.27-2.27,1.9Z"/>
      <path class="cls-2" d="m286.65,664.73c-.08-3.36-.17-6.71-.25-10.07,6.76-2.59,13.51-5.18,20.27-7.76.1,3.16.21,6.32.31,9.48-6.78,2.78-13.55,5.56-20.33,8.35Z"/>
      <path class="cls-2" d="m274.29,654.51c-.27-3.01-.54-6.02-.8-9.03,4.3,3.06,8.6,6.12,12.91,9.18.08,3.36.17,6.71.25,10.07-4.12-3.41-8.24-6.81-12.36-10.22Z"/>
      <path class="cls-14" d="m286.39,654.66c.08,3.36.17,6.71.25,10.07"/>
      <path class="cls-13" d="m273.49,645.48c.27,3.01.54,6.02.8,9.03,4.12,3.41,8.24,6.81,12.36,10.22l20.33-8.35c-.1-3.16-.21-6.32-.31-9.48-6.76,2.59-13.51,5.18-20.27,7.76-4.3-3.06-8.6-6.12-12.91-9.18Z"/>
      <path class="cls-12" d="m291.01,658.04c-.92.58-1.84,1.16-2.75,1.74-.3-1.41-.6-2.83-.89-4.24l3.67-.46c0,.99-.02,1.97-.03,2.96Z"/>
      <path class="cls-12" d="m274.66,649.99c.23-.92.47-1.83.7-2.75,1.03.72,2.07,1.44,3.1,2.15l-2.06,2.48c-.58-.63-1.17-1.26-1.75-1.89Z"/>
      <path class="cls-12" d="m281.24,655.95c.44.53.88,1.05,1.31,1.58-.86.3-1.72.6-2.58.9l-.59-2.26c.62-.08,1.23-.15,1.85-.23Z"/>
      <path class="cls-12" d="m280.1,654.82c-.1-.85-.2-1.7-.3-2.55,1.1.27,2.21.54,3.31.81l-.93,2.76c-.7-.34-1.39-.68-2.09-1.03Z"/>
      <path class="cls-12" d="m276.96,655.25c-.69-.48-1.38-.96-2.07-1.44.92-.64,1.84-1.27,2.76-1.91.48.83.95,1.66,1.43,2.49-.71.29-1.41.58-2.12.87Z"/>
      <path class="cls-12" d="m285.67,658.63c-.08.86-.16,1.72-.24,2.58-1.03-.5-2.07-.99-3.1-1.49l1.49-2.53c.62.48,1.23.97,1.85,1.45Z"/>
    </g>
    <path class="cls-24" d="m277.57,73.57c10.43-.7,16.76,7.29,17.26,7.93-10.69.12-21.39.23-32.08.35.69-.96,5.75-7.67,14.83-8.28Z"/>
    <path class="cls-24" d="m483.65,75.43c10.43-.7,16.76,7.29,17.26,7.93-10.69.12-21.39.23-32.08.35.69-.96,5.75-7.67,14.83-8.28Z"/>
    <ellipse class="cls-4" cx="286.03" cy="318.45" rx="98.99" ry="20.33"/>
    <path class="cls-14" d="m236.84,251.97c11.59,2.75,26.88,5.23,44.87,5.19,17.55-.04,32.48-2.48,43.89-5.19,8.24-50.19,16.48-100.37,24.72-150.56h-139.33l25.84,150.56Z"/>
    <path class="cls-20" d="m210.99,318.26c18.62,4.4,42.94,8.36,71.5,8.45,29.44.09,54.46-3.96,73.44-8.45-10.11-22.1-20.22-44.19-30.34-66.29-11.41,2.7-26.34,5.14-43.89,5.19-18,.05-33.28-2.44-44.87-5.19-8.61,22.1-17.23,44.19-25.84,66.29Z"/>
    <path class="cls-14" d="m185.68,101.41h25.31l3.88,22.58c-9.73-7.53-19.46-15.05-29.19-22.58Z"/>
    <path class="cls-20" d="m210.99,101.41h139.33c-9.64-6.25-36.41-21.79-73.59-20.65-32.56,1-55.91,14.27-65.73,20.65Z"/>
    <path class="cls-20" d="m231.52,264.56c11.84,3.61,28.57,7.35,48.82,7.64,21.54.31,39.3-3.38,51.6-6.94"/>
    <circle class="cls-24" cx="281.73" cy="298.12" r="16.54"/>
    <circle class="cls-20" cx="281.73" cy="298.12" r="6.58"/>
    <g class="cls-26">
      <path class="cls-8" d="m238.2,251.97c11.59,2.75,26.88,5.23,44.87,5.19,17.55-.04,32.48-2.48,43.89-5.19,8.24-50.19,16.48-100.37,24.72-150.56h-139.33s25.84,150.56,25.84,150.56Z"/>
      <path class="cls-8" d="m187.04,101.41c8.44,0,16.87,0,25.31,0l3.88,22.58c-9.73-7.53-19.46-15.05-29.19-22.58Z"/>
    </g>
    <g>
      <g>
        <g>
          <path class="cls-19" d="m324.26,176.18c-4.53-.56-10.34.08-13.4,2.56-.32.26-1.27,1.07-2.73,2.03-1.54,1.01-2.91,1.7-3.84,2.13,1.71-.08,3.42-.16,5.13-.24,1.12.25,2.87.59,5.04.81,4.38.44,4.96-.16,7.95.3,4.73.73,5.66,2.6,7.93,1.79,2.1-.75,3.83-3.25,3.43-5.17-.66-3.13-6.86-3.89-9.52-4.22Z"/>
          <ellipse class="cls-19" cx="332.37" cy="182.76" rx="1.88" ry=".85" transform="translate(12.54 386.67) rotate(-61.33)"/>
        </g>
        <g>
          <path class="cls-18" d="m284.71,171.51c-.73,4.47,1.77,9.92,2.81,12.2.18.4.72,1.53,1.26,3.16.58,1.75.89,3.25,1.07,4.26.36-1.67.73-3.34,1.09-5.02.45-1.07,1.15-2.71,2.08-4.66,4.24-8.92,6.95-11.29,6.11-14.81-.49-2.07-2.12-4.15-4.11-4.64-3.95-.98-9.45,4.28-10.31,9.51Z"/>
          <ellipse class="cls-18" cx="296.93" cy="163.96" rx=".85" ry="1.88" transform="translate(-26.53 266.05) rotate(-46.42)"/>
        </g>
        <g>
          <path class="cls-19" d="m320.65,153.8c-2.33-6.78-9.34-10.89-12.1-11.19-.32-.04-1.62-.13-3.07-.88-1.02-.53-1.72-1.18-2.12-1.58.88,1.47,1.76,2.94,2.63,4.41,1.12,1.22,2.7,3.2,3.84,5.97,2.72,6.59.36,11.29,3.5,13.84,1.74,1.42,4.51,1.63,6.17.58,2.92-1.85,2.31-7.74,1.15-11.14Z"/>
          <ellipse class="cls-19" cx="316.76" cy="164.81" rx=".85" ry="1.88" transform="translate(149.45 480.26) rotate(-89.55)"/>
        </g>
      </g>
      <g>
        <g>
          <path class="cls-19" d="m268.21,150.36c-2.8,3.61-5.22,8.92-4.66,12.82.06.41.27,1.64.35,3.38.08,1.85-.03,3.37-.14,4.39.81-1.51,1.61-3.02,2.42-4.53.79-.84,1.98-2.17,3.27-3.92,2.62-3.54,2.4-4.34,4.33-6.68,3.04-3.69,5.13-3.53,5.6-5.89.43-2.19-.84-4.96-2.68-5.59-3.02-1.03-6.85,3.9-8.49,6.02Z"/>
          <ellipse class="cls-19" cx="278.01" cy="146.76" rx=".85" ry="1.88" transform="translate(-36.01 161.66) rotate(-30.55)"/>
        </g>
        <g>
          <path class="cls-18" d="m243.95,181.95c3.47,2.92,9.43,3.56,11.92,3.83.43.05,1.69.17,3.36.53,1.81.4,3.25.89,4.2,1.26-1.25-1.17-2.5-2.34-3.75-3.51-.69-.93-1.74-2.37-2.94-4.17-5.49-8.21-6.14-11.74-9.6-12.83-2.03-.64-4.65-.3-6.09,1.16-2.86,2.9-1.16,10.31,2.9,13.72Z"/>
          <ellipse class="cls-18" cx="243.73" cy="167.58" rx="1.88" ry=".85" transform="translate(-36.16 71.94) rotate(-15.64)"/>
        </g>
        <g>
          <path class="cls-19" d="m247.13,142c-7.02-1.47-14.13,2.45-15.81,4.67-.19.26-.94,1.32-2.33,2.19-.98.61-1.89.88-2.44,1.01,1.71,0,3.42,0,5.13,0,1.62-.34,4.13-.68,7.09-.24,7.06,1.03,9.88,5.46,13.68,4.08,2.11-.77,3.71-3.04,3.66-5.01-.09-3.46-5.47-5.95-8.98-6.69Z"/>
          <ellipse class="cls-19" cx="254.61" cy="150.99" rx="1.88" ry=".85" transform="translate(-6.51 290.41) rotate(-58.77)"/>
        </g>
      </g>
      <g>
        <g>
          <path class="cls-19" d="m294.36,205.34c-2.36,3.91-4.14,9.48-3.12,13.28.11.4.46,1.59.74,3.32.3,1.82.37,3.35.38,4.37.62-1.59,1.25-3.19,1.87-4.78.68-.92,1.71-2.39,2.79-4.27,2.19-3.82,1.88-4.6,3.51-7.14,2.59-4.02,4.68-4.11,4.87-6.51.17-2.22-1.41-4.83-3.32-5.24-3.12-.67-6.35,4.68-7.73,6.97Z"/>
          <ellipse class="cls-19" cx="303.67" cy="200.61" rx=".85" ry="1.88" transform="translate(-59.47 224.93) rotate(-37.28)"/>
        </g>
        <g>
          <path class="cls-18" d="m273.97,239.55c3.79,2.49,9.78,2.43,12.29,2.4.44,0,1.69-.03,3.4.13,1.84.18,3.33.51,4.32.76-1.38-1.01-2.76-2.03-4.14-3.04-.8-.84-2-2.15-3.41-3.8-6.42-7.51-7.48-10.94-11.04-11.61-2.1-.39-4.66.25-5.91,1.86-2.5,3.21.06,10.38,4.49,13.29Z"/>
          <ellipse class="cls-18" cx="272.07" cy="225.31" rx="1.88" ry=".85" transform="translate(-65.3 120.56) rotate(-22.38)"/>
        </g>
        <g>
          <path class="cls-19" d="m272.45,199.51c-7.14-.64-13.75,4.09-15.15,6.49-.16.28-.78,1.43-2.05,2.44-.9.72-1.78,1.1-2.31,1.29,1.7-.2,3.4-.41,5.1-.61,1.57-.53,4.02-1.16,7.01-1.07,7.13.2,10.45,4.27,14.07,2.44,2.01-1.01,3.33-3.46,3.04-5.4-.5-3.42-6.13-5.27-9.71-5.59Z"/>
          <ellipse class="cls-19" cx="280.92" cy="207.55" rx="1.88" ry=".85" transform="translate(-24.43 377.13) rotate(-65.5)"/>
        </g>
      </g>
    </g>
    <path class="cls-11" d="m224.09,114.99c11.59,84.97,17.24,122.59,18.17,122.47.93-.11-2.8-37.97-12.39-123.2-.74-3.59-2.52-5.84-3.95-5.27-1.22.48-1.99,2.93-1.83,6Z"/>
    <path class="cls-5" d="m349.68,100.69l-24.72,150.56,30.34,66.29c-5.37,1.27-11.02,2.45-16.94,3.52-8.22,1.47-16.05,2.54-23.42,3.29,2.62-7.07,5.82-18.07,5.98-31.6.27-22.46-8.11-28.36-8.53-50-.43-22.55,8.57-21.37,8.53-45.07-.05-24.77-9.88-28.55-6.18-48.58,2.8-15.15,9.44-18.44,9.9-32.52.45-13.45-5.14-24.55-9.75-31.66,6.2,1.77,13.33,4.31,20.93,7.99,5.22,2.53,9.84,5.19,13.86,7.79Z"/>
    <path class="cls-4" d="m315.48,431.71l-238.88,93.11c-22.79-16.69-45.58-33.39-68.37-50.08,76.67-30.14,153.33-60.27,230-90.41,25.75,15.8,51.5,31.59,77.25,47.39Z"/>
    <g>
      <polygon class="cls-8" points="7.02 442.43 14.75 447.84 18.41 470.96 44.46 488.97 53.99 485.4 56.57 496.29 83.29 516.62 118.11 501.69 118.84 491.02 126.19 498.25 158.94 485.73 160.63 470.96 171.37 481.37 204.13 468.84 206.01 452.38 217.62 463.99 250.38 451.47 251.85 438.58 261.37 447.72 294.35 434.49 296.12 408.32 306.58 404.34 234.36 358.53 7.02 442.43"/>
      <g>
        <path class="cls-14" d="m306.58,404.34c-76.52,29.11-153.04,58.22-229.56,87.32-23.34-16.41-46.67-32.83-70.01-49.24,75.78-27.97,151.56-55.93,227.35-83.9,24.07,15.27,48.14,30.54,72.22,45.81Z"/>
        <g>
          <path class="cls-14" d="m83.22,449.74c-12.63,4.8-25.26,9.61-37.89,14.41-8.97-6.31-17.94-12.62-26.92-18.93,12.38-4.57,24.75-9.13,37.13-13.7,9.23,6.07,18.45,12.15,27.68,18.22Z"/>
          <path class="cls-14" d="m128.14,433.43c-12.63,4.8-25.26,9.61-37.89,14.41-8.97-6.31-17.94-12.62-26.92-18.93,12.38-4.57,24.75-9.13,37.13-13.7,9.23,6.07,18.45,12.15,27.68,18.22Z"/>
          <path class="cls-14" d="m172.87,417.11c-12.63,4.8-25.26,9.61-37.89,14.41-8.97-6.31-17.94-12.62-26.92-18.93,12.38-4.57,24.75-9.13,37.13-13.7,9.23,6.07,18.45,12.15,27.68,18.22Z"/>
          <path class="cls-14" d="m217.99,399.49c-12.63,4.8-25.26,9.61-37.89,14.41-8.97-6.31-17.94-12.62-26.92-18.93,12.38-4.57,24.75-9.13,37.13-13.7,9.23,6.07,18.45,12.15,27.68,18.22Z"/>
          <path class="cls-14" d="m261.38,383.18c-12.63,4.8-25.26,9.61-37.89,14.41-8.97-6.31-17.94-12.62-26.92-18.93,12.38-4.57,24.75-9.13,37.13-13.7,9.23,6.07,18.45,12.15,27.68,18.22Z"/>
        </g>
        <g>
          <path class="cls-14" d="m116.19,471.1c-12.63,4.8-25.26,9.61-37.89,14.41-8.97-6.31-17.94-12.62-26.92-18.93,12.38-4.57,24.75-9.13,37.13-13.7,9.23,6.07,18.45,12.15,27.68,18.22Z"/>
          <path class="cls-14" d="m161.11,454.79c-12.63,4.8-25.26,9.61-37.89,14.41-8.97-6.31-17.94-12.62-26.92-18.93,12.38-4.57,24.75-9.13,37.13-13.7,9.23,6.07,18.45,12.15,27.68,18.22Z"/>
          <path class="cls-14" d="m205.84,438.47c-12.63,4.8-25.26,9.61-37.89,14.41-8.97-6.31-17.94-12.62-26.92-18.93,12.38-4.57,24.75-9.13,37.13-13.7,9.23,6.07,18.45,12.15,27.68,18.22Z"/>
          <path class="cls-14" d="m250.96,420.85c-12.63,4.8-25.26,9.61-37.89,14.41-8.97-6.31-17.94-12.62-26.92-18.93,12.38-4.57,24.75-9.13,37.13-13.7,9.23,6.07,18.45,12.15,27.68,18.22Z"/>
          <path class="cls-14" d="m294.35,404.54c-12.63,4.8-25.26,9.61-37.89,14.41-8.97-6.31-17.94-12.62-26.92-18.93,12.38-4.57,24.75-9.13,37.13-13.7,9.23,6.07,18.45,12.15,27.68,18.22Z"/>
        </g>
        <path class="cls-14" d="m145.19,398.89c0,9.49,0,18.99,0,28.48"/>
        <path class="cls-14" d="m100.39,415.01c0,9.49,0,18.99,0,28.48"/>
        <path class="cls-14" d="m55.59,431.53c0,9.49,0,18.99,0,28.48"/>
        <path class="cls-14" d="m88.36,452.89c0,9.49,0,18.99,0,28.48"/>
        <path class="cls-14" d="m133.33,436.57c0,9.49,0,18.99,0,28.48"/>
        <path class="cls-14" d="m178.11,420.25c0,9.49,0,18.99,0,28.48"/>
        <path class="cls-14" d="m190.37,381.27c0,9.49,0,18.99,0,28.48"/>
        <path class="cls-14" d="m233.7,364.96c0,9.49,0,18.99,0,28.48"/>
        <path class="cls-14" d="m266.61,386.32c0,9.49,0,18.99,0,28.48"/>
        <path class="cls-14" d="m223.43,402.63c0,9.49,0,18.99,0,28.48"/>
        <g>
          <path class="cls-14" d="m296.12,408.32c-.59,8.72-1.18,17.45-1.77,26.17-10.99,4.41-21.99,8.82-32.98,13.22l-2.33-25.29c12.36-4.7,24.72-9.4,37.08-14.11Z"/>
          <path class="cls-14" d="m251.85,438.58c3.17,3.05,6.35,6.09,9.52,9.14"/>
        </g>
        <g>
          <path class="cls-14" d="m119.88,475.51c-.59,8.72-1.18,17.45-1.77,26.17l-34.82,14.94c-.16-9-.33-18-.49-27.01,12.36-4.7,24.72-9.4,37.08-14.11Z"/>
          <path class="cls-14" d="m51.16,473.48c1.8,7.6,3.6,15.21,5.41,22.81l26.72,20.34"/>
        </g>
        <g>
          <path class="cls-14" d="m161.96,459.35c-1.01,8.79-2.01,17.58-3.02,26.37-10.92,4.17-21.84,8.35-32.76,12.52-.91-8.08-1.81-16.17-2.72-24.25,12.83-4.88,25.67-9.76,38.5-14.64Z"/>
          <path class="cls-14" d="m126.19,498.25c-2.45-2.41-4.9-4.82-7.35-7.23"/>
        </g>
        <g>
          <path class="cls-14" d="m207.15,442.47c-1.01,8.79-2.01,17.58-3.02,26.37-10.92,4.17-21.84,8.35-32.76,12.52-.91-8.08-1.81-16.17-2.72-24.25,12.83-4.88,25.67-9.76,38.5-14.64Z"/>
          <path class="cls-14" d="m171.37,481.37c-3.58-3.47-7.16-6.94-10.74-10.4"/>
        </g>
        <g>
          <path class="cls-14" d="m253.4,425.1c-1.01,8.79-2.01,17.58-3.02,26.37-10.92,4.17-21.84,8.35-32.76,12.52-.91-8.08-1.81-16.17-2.72-24.25,12.83-4.88,25.67-9.76,38.5-14.64Z"/>
          <path class="cls-14" d="m217.62,463.99c-3.87-3.87-7.74-7.74-11.61-11.61"/>
        </g>
        <polygon class="cls-14" points="44.46 488.97 44.46 469.2 14.75 447.84 18.41 470.96 44.46 488.97"/>
        <path class="cls-14" d="m44.46,488.97l9.53-3.57"/>
      </g>
    </g>
    <path class="cls-4" d="m588.26,449.09l-238.88,93.11c-22.79-16.69-45.58-33.39-68.37-50.08,76.67-30.14,153.33-60.27,230-90.41,25.75,15.8,51.5,31.59,77.25,47.39Z"/>
    <g>
      <g>
        <polygon class="cls-8" points="282.48 458.9 290.22 464.32 293.88 487.44 319.93 505.45 329.46 501.88 332.04 512.76 358.76 533.1 393.58 518.16 394.31 507.5 401.65 514.73 434.41 502.2 436.1 487.44 446.84 497.85 479.6 485.32 481.48 468.86 493.09 480.47 525.85 467.95 527.32 455.06 536.84 464.2 569.82 450.97 571.59 424.8 582.05 420.82 509.83 375.01 282.48 458.9"/>
        <g>
          <path class="cls-14" d="m582.05,420.82l-229.56,87.32c-23.34-16.41-46.67-32.83-70.01-49.24,75.78-27.97,151.56-55.93,227.35-83.9,24.07,15.27,48.14,30.54,72.22,45.81Z"/>
          <g>
            <path class="cls-14" d="m358.69,466.22c-12.63,4.8-25.26,9.61-37.89,14.41-8.97-6.31-17.94-12.62-26.92-18.93,12.38-4.57,24.75-9.13,37.13-13.7,9.23,6.07,18.45,12.15,27.68,18.22Z"/>
            <path class="cls-14" d="m403.61,449.91c-12.63,4.8-25.26,9.61-37.89,14.41-8.97-6.31-17.94-12.62-26.92-18.93,12.38-4.57,24.75-9.13,37.13-13.7,9.23,6.07,18.45,12.15,27.68,18.22Z"/>
            <path class="cls-14" d="m448.34,433.59c-12.63,4.8-25.26,9.61-37.89,14.41-8.97-6.31-17.94-12.62-26.92-18.93,12.38-4.57,24.75-9.13,37.13-13.7,9.23,6.07,18.45,12.15,27.68,18.22Z"/>
            <path class="cls-14" d="m493.46,415.97c-12.63,4.8-25.26,9.61-37.89,14.41-8.97-6.31-17.94-12.62-26.92-18.93,12.38-4.57,24.75-9.13,37.13-13.7,9.23,6.07,18.45,12.15,27.68,18.22Z"/>
            <path class="cls-14" d="m536.85,399.65c-12.63,4.8-25.26,9.61-37.89,14.41-8.97-6.31-17.94-12.62-26.92-18.93,12.38-4.57,24.75-9.13,37.13-13.7,9.23,6.07,18.45,12.15,27.68,18.22Z"/>
          </g>
          <g>
            <path class="cls-14" d="m391.66,487.58c-12.63,4.8-25.26,9.61-37.89,14.41-8.97-6.31-17.94-12.62-26.92-18.93,12.38-4.57,24.75-9.13,37.13-13.7,9.23,6.07,18.45,12.15,27.68,18.22Z"/>
            <path class="cls-14" d="m436.58,471.27c-12.63,4.8-25.26,9.61-37.89,14.41-8.97-6.31-17.94-12.62-26.92-18.93,12.38-4.57,24.75-9.13,37.13-13.7,9.23,6.07,18.45,12.15,27.68,18.22Z"/>
            <path class="cls-14" d="m481.3,454.95c-12.63,4.8-25.26,9.61-37.89,14.41-8.97-6.31-17.94-12.62-26.92-18.93,12.38-4.57,24.75-9.13,37.13-13.7,9.23,6.07,18.45,12.15,27.68,18.22Z"/>
            <path class="cls-14" d="m526.42,437.33c-12.63,4.8-25.26,9.61-37.89,14.41-8.97-6.31-17.94-12.62-26.92-18.93,12.38-4.57,24.75-9.13,37.13-13.7,9.23,6.07,18.45,12.15,27.68,18.22Z"/>
            <path class="cls-14" d="m569.82,421.01c-12.63,4.8-25.26,9.61-37.89,14.41-8.97-6.31-17.94-12.62-26.92-18.93,12.38-4.57,24.75-9.13,37.13-13.7,9.23,6.07,18.45,12.15,27.68,18.22Z"/>
          </g>
          <path class="cls-14" d="m420.66,415.37c0,9.49,0,18.99,0,28.48"/>
          <path class="cls-14" d="m375.86,431.49c0,9.49,0,18.99,0,28.48"/>
          <path class="cls-14" d="m331.06,448c0,9.49,0,18.99,0,28.48"/>
          <path class="cls-14" d="m363.82,469.36c0,9.49,0,18.99,0,28.48"/>
          <path class="cls-14" d="m408.8,453.05c0,9.49,0,18.99,0,28.48"/>
          <path class="cls-14" d="m453.58,436.73c0,9.49,0,18.99,0,28.48"/>
          <path class="cls-14" d="m465.84,397.75c0,9.49,0,18.99,0,28.48"/>
          <path class="cls-14" d="m509.17,381.44c0,9.49,0,18.99,0,28.48"/>
          <path class="cls-14" d="m542.08,402.8c0,9.49,0,18.99,0,28.48"/>
          <path class="cls-14" d="m498.9,419.11c0,9.49,0,18.99,0,28.48"/>
          <g>
            <path class="cls-14" d="m571.59,424.8c-.59,8.72-1.18,17.45-1.77,26.17-10.99,4.41-21.99,8.82-32.98,13.22l-2.33-25.29c12.36-4.7,24.72-9.4,37.08-14.11Z"/>
            <path class="cls-14" d="m527.32,455.06c3.17,3.05,6.35,6.09,9.52,9.14"/>
          </g>
          <g>
            <path class="cls-14" d="m395.35,491.99c-.59,8.72-1.18,17.45-1.77,26.17l-34.82,14.94c-.16-9-.33-18-.49-27.01,12.36-4.7,24.72-9.4,37.08-14.11Z"/>
            <path class="cls-14" d="m326.63,489.95c1.8,7.6,3.6,15.21,5.41,22.81l26.72,20.34"/>
          </g>
          <g>
            <path class="cls-14" d="m437.43,475.83c-1.01,8.79-2.01,17.58-3.02,26.37-10.92,4.17-21.84,8.35-32.76,12.52-.91-8.08-1.81-16.17-2.72-24.25,12.83-4.88,25.67-9.76,38.5-14.64Z"/>
            <path class="cls-14" d="m401.65,514.73c-2.45-2.41-4.9-4.82-7.35-7.23"/>
          </g>
          <g>
            <path class="cls-14" d="m482.62,458.95c-1.01,8.79-2.01,17.58-3.02,26.37-10.92,4.17-21.84,8.35-32.76,12.52-.91-8.08-1.81-16.17-2.72-24.25,12.83-4.88,25.67-9.76,38.5-14.64Z"/>
            <path class="cls-14" d="m446.84,497.85c-3.58-3.47-7.16-6.94-10.74-10.4"/>
          </g>
          <g>
            <path class="cls-14" d="m528.86,441.57c-1.01,8.79-2.01,17.58-3.02,26.37-10.92,4.17-21.84,8.35-32.76,12.52-.91-8.08-1.81-16.17-2.72-24.25,12.83-4.88,25.67-9.76,38.5-14.64Z"/>
            <path class="cls-14" d="m493.09,480.47c-3.87-3.87-7.74-7.74-11.61-11.61"/>
          </g>
          <polygon class="cls-14" points="319.93 505.45 319.93 485.68 290.22 464.32 293.88 487.44 319.93 505.45"/>
          <path class="cls-14" d="m319.93,505.45l9.53-3.57"/>
        </g>
      </g>
      <g>
        <path class="cls-12" d="m353.58,493.7c1.6-.53,3.2-1.06,4.8-1.59-.08,2.24-.16,4.49-.25,6.73l-5.71-.69c.38-1.48.77-2.96,1.15-4.45Z"/>
        <path class="cls-12" d="m361.63,494.03c-.73-1.52-1.47-3.04-2.2-4.56,2.23-.21,4.47-.42,6.7-.63.02,1.92.04,3.83.06,5.75-1.52-.19-3.04-.38-4.56-.56Z"/>
        <path class="cls-12" d="m373.84,485.8c1.29,1.08,2.59,2.17,3.88,3.25-1.95,1.11-3.9,2.22-5.85,3.33-.8-1.74-1.61-3.48-2.41-5.22,1.46-.45,2.93-.9,4.39-1.36Z"/>
        <path class="cls-12" d="m342.68,492.1c-1.26-1.12-2.53-2.24-3.79-3.35,1.98-1.06,3.96-2.11,5.94-3.17.76,1.76,1.52,3.52,2.27,5.28-1.47.41-2.95.83-4.42,1.24Z"/>
        <path class="cls-12" d="m353.84,481.66c1.56-.65,3.11-1.3,4.67-1.95.09,2.24.18,4.49.26,6.73-1.92-.08-3.83-.17-5.75-.25.27-1.51.54-3.01.81-4.52Z"/>
        <path class="cls-12" d="m352.95,487.05c1.15,1.23,2.31,2.46,3.46,3.69-2.07.87-4.14,1.74-6.21,2.6l-1.77-5.47c1.51-.27,3.01-.55,4.52-.82Z"/>
        <path class="cls-12" d="m367.23,482.99c.19,1.68.38,3.35.57,5.03-2.18-.54-4.36-1.09-6.53-1.63l1.85-5.44c1.37.68,2.74,1.36,4.11,2.04Z"/>
        <path class="cls-17" d="m333.49,487.46c6.67,4.77,13.34,9.54,20.01,14.31,10.51-4,21.01-7.99,31.52-11.99-2.33-1.18-5.7-3.03-9.54-5.63-7.11-4.82-8.23-7.1-11.92-7.63-4.08-.59-6.18,1.69-13.32,5.09-3.69,1.75-9.3,4.08-16.75,5.86Z"/>
      </g>
      <g>
        <path class="cls-12" d="m398.79,477.74c1.6-.53,3.2-1.06,4.8-1.59-.08,2.24-.16,4.49-.25,6.73-1.9-.23-3.81-.46-5.71-.69.38-1.48.77-2.96,1.15-4.45Z"/>
        <path class="cls-12" d="m406.85,478.07c-.73-1.52-1.47-3.04-2.2-4.56,2.23-.21,4.47-.42,6.7-.63.02,1.92.04,3.83.06,5.75-1.52-.19-3.04-.38-4.56-.56Z"/>
        <path class="cls-12" d="m419.05,469.84c1.29,1.08,2.59,2.17,3.88,3.25-1.95,1.11-3.9,2.22-5.85,3.33-.8-1.74-1.61-3.48-2.41-5.22,1.46-.45,2.93-.9,4.39-1.36Z"/>
        <path class="cls-12" d="m387.89,476.14c-1.26-1.12-2.53-2.24-3.79-3.35,1.98-1.06,3.96-2.11,5.94-3.17.76,1.76,1.52,3.52,2.27,5.28-1.47.41-2.95.83-4.42,1.24Z"/>
        <path class="cls-12" d="m399.05,465.7c1.56-.65,3.11-1.3,4.67-1.95.09,2.24.18,4.49.26,6.73-1.92-.08-3.83-.17-5.75-.25.27-1.51.54-3.01.81-4.52Z"/>
        <path class="cls-12" d="m398.16,471.09c1.15,1.23,2.31,2.46,3.46,3.69-2.07.87-4.14,1.74-6.21,2.6-.59-1.82-1.18-3.65-1.77-5.47,1.51-.27,3.01-.55,4.52-.82Z"/>
        <path class="cls-12" d="m412.44,467.03c.19,1.68.38,3.35.57,5.03-2.18-.54-4.36-1.09-6.53-1.63l1.85-5.44c1.37.68,2.74,1.36,4.11,2.04Z"/>
        <path class="cls-17" d="m378.7,471.5c6.67,4.77,13.34,9.54,20.01,14.31,10.51-4,21.01-7.99,31.52-11.99-2.33-1.18-5.7-3.03-9.54-5.63-7.11-4.82-8.23-7.1-11.92-7.63-4.08-.59-6.18,1.69-13.32,5.09-3.69,1.75-9.3,4.08-16.75,5.86Z"/>
      </g>
      <g>
        <path class="cls-12" d="m443.4,461.52c1.6-.53,3.2-1.06,4.8-1.59-.08,2.24-.16,4.49-.25,6.73l-5.71-.69c.38-1.48.77-2.96,1.15-4.45Z"/>
        <path class="cls-12" d="m451.46,461.86c-.73-1.52-1.47-3.04-2.2-4.56,2.23-.21,4.47-.42,6.7-.63.02,1.92.04,3.83.06,5.75-1.52-.19-3.04-.38-4.56-.56Z"/>
        <path class="cls-12" d="m463.67,453.63c1.29,1.08,2.59,2.17,3.88,3.25-1.95,1.11-3.9,2.22-5.85,3.33-.8-1.74-1.61-3.48-2.41-5.22,1.46-.45,2.93-.9,4.39-1.36Z"/>
        <path class="cls-12" d="m432.51,459.93c-1.26-1.12-2.53-2.24-3.79-3.35,1.98-1.06,3.96-2.11,5.94-3.17.76,1.76,1.52,3.52,2.27,5.28-1.47.41-2.95.83-4.42,1.24Z"/>
        <path class="cls-12" d="m443.66,449.48c1.56-.65,3.11-1.3,4.67-1.95.09,2.24.18,4.49.26,6.73-1.92-.08-3.83-.17-5.75-.25.27-1.51.54-3.01.81-4.52Z"/>
        <path class="cls-12" d="m442.78,454.88c1.15,1.23,2.31,2.46,3.46,3.69-2.07.87-4.14,1.74-6.21,2.6l-1.77-5.47c1.51-.27,3.01-.55,4.52-.82Z"/>
        <path class="cls-12" d="m457.06,450.82c.19,1.68.38,3.35.57,5.03-2.18-.54-4.36-1.09-6.53-1.63l1.85-5.44c1.37.68,2.74,1.36,4.11,2.04Z"/>
        <path class="cls-17" d="m423.31,455.28c6.67,4.77,13.34,9.54,20.01,14.31,10.51-4,21.01-7.99,31.52-11.99-2.33-1.18-5.7-3.03-9.54-5.63-7.11-4.82-8.23-7.1-11.92-7.63-4.08-.59-6.18,1.69-13.32,5.09-3.69,1.75-9.3,4.08-16.75,5.86Z"/>
      </g>
      <g>
        <path class="cls-12" d="m488.52,443.68c1.6-.53,3.2-1.06,4.8-1.59-.08,2.24-.16,4.49-.25,6.73-1.9-.23-3.81-.46-5.71-.69.38-1.48.77-2.96,1.15-4.45Z"/>
        <path class="cls-12" d="m496.58,444.01c-.73-1.52-1.47-3.04-2.2-4.56,2.23-.21,4.47-.42,6.7-.63.02,1.92.04,3.83.06,5.75-1.52-.19-3.04-.38-4.56-.56Z"/>
        <path class="cls-12" d="m508.79,435.78c1.29,1.08,2.59,2.17,3.88,3.25-1.95,1.11-3.9,2.22-5.85,3.33-.8-1.74-1.61-3.48-2.41-5.22,1.46-.45,2.93-.9,4.39-1.36Z"/>
        <path class="cls-12" d="m477.63,442.09c-1.26-1.12-2.53-2.24-3.79-3.35,1.98-1.06,3.96-2.11,5.94-3.17.76,1.76,1.52,3.52,2.27,5.28-1.47.41-2.95.83-4.42,1.24Z"/>
        <path class="cls-12" d="m488.78,431.64c1.56-.65,3.11-1.3,4.67-1.95.09,2.24.18,4.49.26,6.73-1.92-.08-3.83-.17-5.75-.25.27-1.51.54-3.01.81-4.52Z"/>
        <path class="cls-12" d="m487.9,437.04c1.15,1.23,2.31,2.46,3.46,3.69-2.07.87-4.14,1.74-6.21,2.6-.59-1.82-1.18-3.65-1.77-5.47,1.51-.27,3.01-.55,4.52-.82Z"/>
        <path class="cls-12" d="m502.18,432.97c.19,1.68.38,3.35.57,5.03-2.18-.54-4.36-1.09-6.53-1.63l1.85-5.44c1.37.68,2.74,1.36,4.11,2.04Z"/>
        <path class="cls-17" d="m468.43,437.44c6.67,4.77,13.34,9.54,20.01,14.31,10.51-4,21.01-7.99,31.52-11.99-2.33-1.18-5.7-3.03-9.54-5.63-7.11-4.82-8.23-7.1-11.92-7.63-4.08-.59-6.18,1.69-13.32,5.09-3.69,1.75-9.3,4.08-16.75,5.86Z"/>
      </g>
      <g>
        <path class="cls-12" d="m532.58,427.32c1.6-.53,3.2-1.06,4.8-1.59-.08,2.24-.16,4.49-.25,6.73l-5.71-.69c.38-1.48.77-2.96,1.15-4.45Z"/>
        <path class="cls-12" d="m540.63,427.66c-.73-1.52-1.47-3.04-2.2-4.56,2.23-.21,4.47-.42,6.7-.63.02,1.92.04,3.83.06,5.75-1.52-.19-3.04-.38-4.56-.56Z"/>
        <path class="cls-12" d="m552.84,419.43c1.29,1.08,2.59,2.17,3.88,3.25-1.95,1.11-3.9,2.22-5.85,3.33-.8-1.74-1.61-3.48-2.41-5.22,1.46-.45,2.93-.9,4.39-1.36Z"/>
        <path class="cls-12" d="m521.68,425.73c-1.26-1.12-2.53-2.24-3.79-3.35,1.98-1.06,3.96-2.11,5.94-3.17.76,1.76,1.52,3.52,2.27,5.28-1.47.41-2.95.83-4.42,1.24Z"/>
        <path class="cls-12" d="m532.84,415.28c1.56-.65,3.11-1.3,4.67-1.95.09,2.24.18,4.49.26,6.73-1.92-.08-3.83-.17-5.75-.25.27-1.51.54-3.01.81-4.52Z"/>
        <path class="cls-12" d="m531.95,420.68c1.15,1.23,2.31,2.46,3.46,3.69-2.07.87-4.14,1.74-6.21,2.6l-1.77-5.47c1.51-.27,3.01-.55,4.52-.82Z"/>
        <path class="cls-12" d="m546.23,416.62c.19,1.68.38,3.35.57,5.03-2.18-.54-4.36-1.09-6.53-1.63l1.85-5.44c1.37.68,2.74,1.36,4.11,2.04Z"/>
        <path class="cls-17" d="m512.49,421.08c6.67,4.77,13.34,9.54,20.01,14.31,10.51-4,21.01-7.99,31.52-11.99-2.33-1.18-5.7-3.03-9.54-5.63-7.11-4.82-8.23-7.1-11.92-7.63-4.08-.59-6.18,1.69-13.32,5.09-3.69,1.75-9.3,4.08-16.75,5.86Z"/>
      </g>
      <g>
        <path class="cls-12" d="m321.17,472.3c1.6-.53,3.2-1.06,4.8-1.59-.08,2.24-.16,4.49-.25,6.73l-5.71-.69c.38-1.48.77-2.96,1.15-4.45Z"/>
        <path class="cls-12" d="m329.23,472.63c-.73-1.52-1.47-3.04-2.2-4.56,2.23-.21,4.47-.42,6.7-.63.02,1.92.04,3.83.06,5.75-1.52-.19-3.04-.38-4.56-.56Z"/>
        <path class="cls-12" d="m341.44,464.4c1.29,1.08,2.59,2.17,3.88,3.25-1.95,1.11-3.9,2.22-5.85,3.33-.8-1.74-1.61-3.48-2.41-5.22,1.46-.45,2.93-.9,4.39-1.36Z"/>
        <path class="cls-12" d="m310.28,470.71c-1.26-1.12-2.53-2.24-3.79-3.35,1.98-1.06,3.96-2.11,5.94-3.17.76,1.76,1.52,3.52,2.27,5.28-1.47.41-2.95.83-4.42,1.24Z"/>
        <path class="cls-12" d="m321.43,460.26c1.56-.65,3.11-1.3,4.67-1.95.09,2.24.18,4.49.26,6.73-1.92-.08-3.83-.17-5.75-.25.27-1.51.54-3.01.81-4.52Z"/>
        <path class="cls-12" d="m320.55,465.66c1.15,1.23,2.31,2.46,3.46,3.69-2.07.87-4.14,1.74-6.21,2.6l-1.77-5.47c1.51-.27,3.01-.55,4.52-.82Z"/>
        <path class="cls-12" d="m334.83,461.6c.19,1.68.38,3.35.57,5.03-2.18-.54-4.36-1.09-6.53-1.63l1.85-5.44c1.37.68,2.74,1.36,4.11,2.04Z"/>
        <path class="cls-17" d="m301.08,466.06c6.67,4.77,13.34,9.54,20.01,14.31,10.51-4,21.01-7.99,31.52-11.99-2.33-1.18-5.7-3.03-9.54-5.63-7.11-4.82-8.23-7.1-11.92-7.63-4.08-.59-6.18,1.69-13.32,5.09-3.69,1.75-9.3,4.08-16.75,5.86Z"/>
      </g>
      <g>
        <path class="cls-12" d="m365.53,456.18c1.6-.53,3.2-1.06,4.8-1.59-.08,2.24-.16,4.49-.25,6.73-1.9-.23-3.81-.46-5.71-.69.38-1.48.77-2.96,1.15-4.45Z"/>
        <path class="cls-12" d="m373.59,456.52c-.73-1.52-1.47-3.04-2.2-4.56,2.23-.21,4.47-.42,6.7-.63.02,1.92.04,3.83.06,5.75-1.52-.19-3.04-.38-4.56-.56Z"/>
        <path class="cls-12" d="m385.8,448.29c1.29,1.08,2.59,2.17,3.88,3.25-1.95,1.11-3.9,2.22-5.85,3.33-.8-1.74-1.61-3.48-2.41-5.22,1.46-.45,2.93-.9,4.39-1.36Z"/>
        <path class="cls-12" d="m354.64,454.59c-1.26-1.12-2.53-2.24-3.79-3.35,1.98-1.06,3.96-2.11,5.94-3.17.76,1.76,1.52,3.52,2.27,5.28-1.47.41-2.95.83-4.42,1.24Z"/>
        <path class="cls-12" d="m365.79,444.14c1.56-.65,3.11-1.3,4.67-1.95.09,2.24.18,4.49.26,6.73-1.92-.08-3.83-.17-5.75-.25.27-1.51.54-3.01.81-4.52Z"/>
        <path class="cls-12" d="m364.91,449.54c1.15,1.23,2.31,2.46,3.46,3.69-2.07.87-4.14,1.74-6.21,2.6-.59-1.82-1.18-3.65-1.77-5.47,1.51-.27,3.01-.55,4.52-.82Z"/>
        <path class="cls-12" d="m379.19,445.48c.19,1.68.38,3.35.57,5.03-2.18-.54-4.36-1.09-6.53-1.63l1.85-5.44c1.37.68,2.74,1.36,4.11,2.04Z"/>
        <path class="cls-17" d="m345.44,449.94c6.67,4.77,13.34,9.54,20.01,14.31,10.51-4,21.01-7.99,31.52-11.99-2.33-1.18-5.7-3.03-9.54-5.63-7.11-4.82-8.23-7.1-11.92-7.63-4.08-.59-6.18,1.69-13.32,5.09-3.69,1.75-9.3,4.08-16.75,5.86Z"/>
      </g>
      <g>
        <path class="cls-12" d="m410.82,439.99c1.6-.53,3.2-1.06,4.8-1.59-.08,2.24-.16,4.49-.25,6.73l-5.71-.69c.38-1.48.77-2.96,1.15-4.45Z"/>
        <path class="cls-12" d="m418.88,440.33c-.73-1.52-1.47-3.04-2.2-4.56,2.23-.21,4.47-.42,6.7-.63.02,1.92.04,3.83.06,5.75-1.52-.19-3.04-.38-4.56-.56Z"/>
        <path class="cls-12" d="m431.09,432.1c1.29,1.08,2.59,2.17,3.88,3.25-1.95,1.11-3.9,2.22-5.85,3.33-.8-1.74-1.61-3.48-2.41-5.22,1.46-.45,2.93-.9,4.39-1.36Z"/>
        <path class="cls-12" d="m399.93,438.4c-1.26-1.12-2.53-2.24-3.79-3.35,1.98-1.06,3.96-2.11,5.94-3.17.76,1.76,1.52,3.52,2.27,5.28-1.47.41-2.95.83-4.42,1.24Z"/>
        <path class="cls-12" d="m411.08,427.95c1.56-.65,3.11-1.3,4.67-1.95.09,2.24.18,4.49.26,6.73-1.92-.08-3.83-.17-5.75-.25.27-1.51.54-3.01.81-4.52Z"/>
        <path class="cls-12" d="m410.2,433.35c1.15,1.23,2.31,2.46,3.46,3.69-2.07.87-4.14,1.74-6.21,2.6l-1.77-5.47c1.51-.27,3.01-.55,4.52-.82Z"/>
        <path class="cls-12" d="m424.48,429.29c.19,1.68.38,3.35.57,5.03-2.18-.54-4.36-1.09-6.53-1.63l1.85-5.44c1.37.68,2.74,1.36,4.11,2.04Z"/>
        <path class="cls-17" d="m390.73,433.75c6.67,4.77,13.34,9.54,20.01,14.31,10.51-4,21.01-7.99,31.52-11.99-2.33-1.18-5.7-3.03-9.54-5.63-7.11-4.82-8.23-7.1-11.92-7.63-4.08-.59-6.18,1.69-13.32,5.09-3.69,1.75-9.3,4.08-16.75,5.86Z"/>
      </g>
      <g>
        <path class="cls-12" d="m455.38,422.16c1.6-.53,3.2-1.06,4.8-1.59-.08,2.24-.16,4.49-.25,6.73-1.9-.23-3.81-.46-5.71-.69.38-1.48.77-2.96,1.15-4.45Z"/>
        <path class="cls-12" d="m463.43,422.5c-.73-1.52-1.47-3.04-2.2-4.56,2.23-.21,4.47-.42,6.7-.63.02,1.92.04,3.83.06,5.75-1.52-.19-3.04-.38-4.56-.56Z"/>
        <path class="cls-12" d="m475.64,414.27c1.29,1.08,2.59,2.17,3.88,3.25-1.95,1.11-3.9,2.22-5.85,3.33-.8-1.74-1.61-3.48-2.41-5.22,1.46-.45,2.93-.9,4.39-1.36Z"/>
        <path class="cls-12" d="m444.48,420.57c-1.26-1.12-2.53-2.24-3.79-3.35,1.98-1.06,3.96-2.11,5.94-3.17.76,1.76,1.52,3.52,2.27,5.28-1.47.41-2.95.83-4.42,1.24Z"/>
        <path class="cls-12" d="m455.64,410.12c1.56-.65,3.11-1.3,4.67-1.95.09,2.24.18,4.49.26,6.73-1.92-.08-3.83-.17-5.75-.25.27-1.51.54-3.01.81-4.52Z"/>
        <path class="cls-12" d="m454.75,415.52c1.15,1.23,2.31,2.46,3.46,3.69-2.07.87-4.14,1.74-6.21,2.6-.59-1.82-1.18-3.65-1.77-5.47,1.51-.27,3.01-.55,4.52-.82Z"/>
        <path class="cls-12" d="m469.03,411.46c.19,1.68.38,3.35.57,5.03-2.18-.54-4.36-1.09-6.53-1.63l1.85-5.44c1.37.68,2.74,1.36,4.11,2.04Z"/>
        <path class="cls-17" d="m435.29,415.92c6.67,4.77,13.34,9.54,20.01,14.31,10.51-4,21.01-7.99,31.52-11.99-2.33-1.18-5.7-3.03-9.54-5.63-7.11-4.82-8.23-7.1-11.92-7.63-4.08-.59-6.18,1.69-13.32,5.09-3.69,1.75-9.3,4.08-16.75,5.86Z"/>
      </g>
      <g>
        <path class="cls-12" d="m498.86,406.2c1.6-.53,3.2-1.06,4.8-1.59-.08,2.24-.16,4.49-.25,6.73l-5.71-.69c.38-1.48.77-2.96,1.15-4.45Z"/>
        <path class="cls-12" d="m506.92,406.54c-.73-1.52-1.47-3.04-2.2-4.56,2.23-.21,4.47-.42,6.7-.63.02,1.92.04,3.83.06,5.75-1.52-.19-3.04-.38-4.56-.56Z"/>
        <path class="cls-12" d="m519.12,398.31c1.29,1.08,2.59,2.17,3.88,3.25-1.95,1.11-3.9,2.22-5.85,3.33-.8-1.74-1.61-3.48-2.41-5.22,1.46-.45,2.93-.9,4.39-1.36Z"/>
        <path class="cls-12" d="m487.96,404.61c-1.26-1.12-2.53-2.24-3.79-3.35,1.98-1.06,3.96-2.11,5.94-3.17.76,1.76,1.52,3.52,2.27,5.28-1.47.41-2.95.83-4.42,1.24Z"/>
        <path class="cls-12" d="m499.12,394.16c1.56-.65,3.11-1.3,4.67-1.95.09,2.24.18,4.49.26,6.73-1.92-.08-3.83-.17-5.75-.25.27-1.51.54-3.01.81-4.52Z"/>
        <path class="cls-12" d="m498.24,399.56c1.15,1.23,2.31,2.46,3.46,3.69-2.07.87-4.14,1.74-6.21,2.6l-1.77-5.47c1.51-.27,3.01-.55,4.52-.82Z"/>
        <path class="cls-12" d="m512.51,395.5c.19,1.68.38,3.35.57,5.03-2.18-.54-4.36-1.09-6.53-1.63l1.85-5.44c1.37.68,2.74,1.36,4.11,2.04Z"/>
        <path class="cls-17" d="m478.77,399.96c6.67,4.77,13.34,9.54,20.01,14.31,10.51-4,21.01-7.99,31.52-11.99-2.33-1.18-5.7-3.03-9.54-5.63-7.11-4.82-8.23-7.1-11.92-7.63-4.08-.59-6.18,1.69-13.32,5.09-3.69,1.75-9.3,4.08-16.75,5.86Z"/>
      </g>
    </g>
    <g>
      <g>
        <path class="cls-9" d="m96.11,188.36l.88,8.72c9.28,7.1,18.57,14.19,27.85,21.29,18.73,15.31,29.59,31.07,29.2,40.14-.24,5.63-2.66,9.68-2.66,9.68-2.89,4.84-7.29,7.02-9.24,7.82-5.94,2.45-11.24,1.24-12.95.77-1.16,1.26-4.67,4.71-10.36,5.73-7.8,1.4-13.63-2.84-14.63-3.59-1.05,1.09-6.91,6.97-16.34,7.06-9.71.1-15.79-6.02-16.8-7.06-1.37.51-4.15,1.33-7.62.85-4.42-.61-7.31-2.95-8.4-3.92-.98-.05-13-.86-19.4-11.49-4.48-7.43-4.5-16.81-.1-24.44,6.71-7.84,15.8-17.03,27.7-25.9,9.13-6.8,17.89-11.91,25.53-15.75v8.53l7.33-18.43Z"/>
        <path class="cls-21" d="m88.78,153.6v53.2c2.42-5.82,4.85-11.65,7.27-17.47.02-15.14.04-30.29.06-45.43-.39,1.4-1.22,3.69-3.08,5.99-1.5,1.85-3.11,3.03-4.25,3.72Z"/>
        <path class="cls-14" d="m103.19,280.38c1.37-1.47,4.01-4.96,1.71-28.75-1.55-16.14-3.79-25.17-6.62-45.01-1.04-7.32-1.77-13.35-2.23-17.29-9.02,21.68-18.05,43.36-27.07,65.03-4.94,11.87-1.94,20.13,2.68,25.25,7.47,8.28,24.36,8.45,31.52.78Z"/>
        <path class="cls-14" d="m71.66,279.61c-2.49.47-9.25,1.39-15.09-2.5-10.11-6.73-8.31-21.77-8.05-24.02.93-7.82,4.59-13.3,10.5-21,6.76-8.8,16.53-20.61,29.75-33.83"/>
        <path class="cls-14" d="m88.78,198.26c-15.63,8.21-27.41,16.78-35.51,23.38-16.8,13.67-19.64,20.36-20.48,25.83-.3,1.98-1.79,11.63,4.83,19.72,6.37,7.78,15.69,8.54,17.43,8.65"/>
        <path class="cls-14" d="m97,197.08c12.75,18.5,22.15,34.44,28.76,46.44,5.74,10.41,10.37,19.67,6.78,28.13-1.77,4.19-5.68,8.48-11.25,10.26-8.77,2.8-16.21-2.38-17.07-3"/>
        <path class="cls-14" d="m97,197.08c5.27,3.8,12.86,9.4,21.81,16.49,9.76,7.73,14.72,11.69,18.86,16.22,6.8,7.44,19.55,21.37,15.72,34.09-2.08,6.89-8.15,10.56-8.77,10.92-6.71,3.92-13.67,2.41-15.41,1.98"/>
        <path class="cls-21" d="m89.13,154.23c.94.43,3.74-4.08,3.9-4.35,2.17-3.53,3.74-8.21,2.86-8.71-.74-.43-3.18,2.12-4.64,4.5-2.24,3.64-2.98,8.17-2.12,8.56Z"/>
      </g>
      <path class="cls-21" d="m69.29,280.62c.32.15,2.88,1.4,3.56,4.34.54,2.35-.48,4.21-.73,4.63.99-.45,4.46-1.88,8.76-.76,4.1,1.06,6.4,3.78,7.08,4.66.37-.54,2.57-3.68,6.82-4.39,4-.67,6.96,1.29,7.55,1.71-.08-.26-1.42-4.59,1.35-7.73,1.38-1.56,3.11-2.08,3.9-2.26-1.12-.64-2.24-1.28-3.36-1.91-1.32,1.36-6.42,6.32-14.62,7.03-10.05.87-16.85-5.32-17.93-6.33-.79.34-1.58.68-2.38,1.01Z"/>
      <path class="cls-14" d="m107.58,280.83c-.47.1-3.17.75-4.76,3.4-1.83,3.06-.63,6.22-.49,6.58-.59-.41-3.55-2.37-7.55-1.71-4.25.71-6.45,3.84-6.82,4.39-.67-.85-3.33-4.02-8.04-4.87-3.73-.68-6.69.47-7.8.97.29-.52,1.25-2.37.73-4.63-.55-2.39-2.55-4.29-5.14-4.93"/>
    </g>
    <ellipse class="cls-4" cx="489.2" cy="318.45" rx="98.99" ry="20.33"/>
    <g>
      <path class="cls-16" d="m437.59,169.51l12.41,77.84c9.44,2.59,22.59,5.15,38.38,5.08,15.2-.07,27.9-2.55,37.14-5.08,4.17-25.95,8.33-51.89,12.5-77.84-10.95,4.91-19.82,5.78-25.89,5.66-10.01-.19-12.21-3.05-23.74-3.19-11.4-.13-13.79,2.61-24.1,2.84-6.23.14-15.37-.64-26.69-5.31Z"/>
      <path class="cls-12" d="m461.28,247.62c-.35-1.65-.7-3.3-1.05-4.95,2.22.33,4.44.66,6.66.99l-1.32,5.6c-1.43-.55-2.86-1.09-4.29-1.64Z"/>
      <path class="cls-12" d="m450.41,233.67c-.35-1.65-.7-3.3-1.05-4.95,2.22.33,4.44.66,6.66.99l-1.32,5.6c-1.43-.55-2.86-1.09-4.29-1.64Z"/>
      <path class="cls-12" d="m457.46,211.65c-1.59.56-3.18,1.12-4.77,1.68.04-2.24.08-4.49.12-6.73l5.72.58c-.36,1.49-.71,2.98-1.07,4.47Z"/>
      <path class="cls-12" d="m448.13,219.19c-.35-1.65-.7-3.3-1.05-4.95,2.22.33,4.44.66,6.66.99l-1.32,5.6c-1.43-.55-2.86-1.09-4.29-1.64Z"/>
      <path class="cls-12" d="m520.74,236.96c-.35-1.65-.7-3.3-1.05-4.95,2.22.33,4.44.66,6.66.99l-1.32,5.6c-1.43-.55-2.86-1.09-4.29-1.64Z"/>
      <path class="cls-12" d="m474.83,247.62c-.35-1.65-.7-3.3-1.05-4.95,2.22.33,4.44.66,6.66.99l-1.32,5.6c-1.43-.55-2.86-1.09-4.29-1.64Z"/>
      <path class="cls-12" d="m469.37,243.05c-1.28-1.1-2.55-2.21-3.83-3.31,1.97-1.08,3.94-2.15,5.91-3.23l2.33,5.26c-1.47.43-2.94.86-4.41,1.29Z"/>
      <path class="cls-12" d="m461.39,240.6c-1.51-.76-3.02-1.51-4.52-2.27,1.64-1.53,3.29-3.06,4.93-4.59l3.55,4.52c-1.32.78-2.64,1.55-3.96,2.33Z"/>
      <path class="cls-12" d="m454.99,226.68c-1.15-1.23-2.3-2.47-3.45-3.7,2.07-.86,4.15-1.72,6.22-2.58l1.75,5.48c-1.51.27-3.01.54-4.52.81Z"/>
      <path class="cls-12" d="m455.03,246.1c-1.53-.71-3.06-1.42-4.59-2.13,1.59-1.58,3.19-3.16,4.78-4.74l3.69,4.41c-1.29.82-2.59,1.64-3.88,2.46Z"/>
      <path class="cls-12" d="m517.21,240.98c1.69,0,3.37,0,5.06,0-.78,2.1-1.56,4.21-2.35,6.31l-5.21-2.45c.83-1.29,1.66-2.57,2.49-3.86Z"/>
      <path class="cls-12" d="m447.1,192.53c1.6-.53,3.2-1.06,4.8-1.59-.08,2.24-.16,4.49-.25,6.73l-5.71-.69c.38-1.48.77-2.96,1.15-4.45Z"/>
      <path class="cls-12" d="m460.76,183.4c1.6-.53,3.2-1.06,4.8-1.59-.08,2.24-.16,4.49-.25,6.73l-5.71-.69c.38-1.48.77-2.96,1.15-4.45Z"/>
      <path class="cls-12" d="m457.52,180.91c-.73-1.52-1.47-3.04-2.2-4.56,2.23-.21,4.47-.42,6.7-.63.02,1.92.04,3.83.06,5.75-1.52-.19-3.04-.38-4.56-.56Z"/>
      <path class="cls-12" d="m443.24,175.93c1.6-.53,3.2-1.06,4.8-1.59-.08,2.24-.16,4.49-.25,6.73l-5.71-.69c.38-1.48.77-2.96,1.15-4.45Z"/>
      <path class="cls-12" d="m455.83,199.04c1.6-.53,3.2-1.06,4.8-1.59-.08,2.24-.16,4.49-.25,6.73l-5.71-.69c.38-1.48.77-2.96,1.15-4.45Z"/>
      <path class="cls-12" d="m483.15,240.1c1.6-.53,3.2-1.06,4.8-1.59-.08,2.24-.16,4.49-.25,6.73l-5.71-.69c.38-1.48.77-2.96,1.15-4.45Z"/>
      <path class="cls-12" d="m445.56,203.75c.96-1.39,1.91-2.78,2.87-4.17,1.29,1.84,2.58,3.67,3.87,5.51l-4.97,2.9c-.59-1.41-1.18-2.83-1.77-4.24Z"/>
      <path class="cls-12" d="m454.22,192.73c.58-1.58,1.17-3.17,1.75-4.75,1.7,1.46,3.4,2.93,5.1,4.39l-4.1,4.03c-.92-1.22-1.84-2.45-2.76-3.67Z"/>
      <path class="cls-12" d="m467.82,181.19c1.1-1.28,2.2-2.56,3.3-3.84,1.08,1.96,2.17,3.93,3.25,5.89l-5.25,2.35c-.43-1.47-.87-2.94-1.3-4.4Z"/>
      <path class="cls-12" d="m450.51,184.04c.53-1.6,1.07-3.2,1.6-4.8,1.75,1.41,3.49,2.82,5.24,4.23-1.32,1.39-2.65,2.77-3.97,4.16-.96-1.2-1.91-2.39-2.87-3.59Z"/>
      <path class="cls-12" d="m448.65,184.57c.19,1.68.38,3.35.57,5.03-2.18-.54-4.36-1.09-6.53-1.63l1.85-5.44c1.37.68,2.74,1.36,4.11,2.04Z"/>
      <path class="cls-12" d="m528.26,188.35c-1.41-.93-2.82-1.86-4.22-2.79,1.81-1.32,3.62-2.65,5.44-3.97,1,1.64,2,3.27,2.99,4.91-1.4.62-2.8,1.23-4.2,1.85Z"/>
      <path class="cls-12" d="m508.34,182.6c-1.41-.93-2.82-1.86-4.22-2.79,1.81-1.32,3.62-2.65,5.44-3.97l2.99,4.91c-1.4.62-2.8,1.23-4.2,1.85Z"/>
      <path class="cls-12" d="m514.07,187.51c-.74,1.52-1.48,3.03-2.22,4.55-1.55-1.63-3.1-3.25-4.64-4.88l4.48-3.61c.79,1.31,1.59,2.62,2.38,3.93Z"/>
      <path class="cls-12" d="m518.15,201.02c-1.41-.93-2.82-1.86-4.22-2.79,1.81-1.32,3.62-2.65,5.44-3.97,1,1.64,2,3.27,2.99,4.91-1.4.62-2.8,1.23-4.2,1.85Z"/>
      <path class="cls-12" d="m526.95,207.16c-1.41-.93-2.82-1.86-4.22-2.79,1.81-1.32,3.62-2.65,5.44-3.97,1,1.64,2,3.27,2.99,4.91-1.4.62-2.8,1.23-4.2,1.85Z"/>
      <path class="cls-12" d="m519.39,212.4c-1.41-.93-2.82-1.86-4.22-2.79,1.81-1.32,3.62-2.65,5.44-3.97,1,1.64,2,3.27,2.99,4.91-1.4.62-2.8,1.23-4.2,1.85Z"/>
      <path class="cls-12" d="m533.27,180.19c-1.68.11-3.37.22-5.05.33.65-2.15,1.29-4.3,1.94-6.45,1.78.7,3.57,1.41,5.35,2.11-.75,1.34-1.49,2.68-2.24,4.01Z"/>
      <path class="cls-12" d="m522.85,182.51c-1.61.52-3.21,1.04-4.82,1.56.1-2.24.19-4.48.29-6.73l5.71.73c-.39,1.48-.79,2.96-1.18,4.44Z"/>
      <path class="cls-12" d="m524.22,220.08c-1.69-.07-3.37-.14-5.06-.22.87-2.07,1.74-4.14,2.62-6.2,1.7.89,3.4,1.78,5.09,2.67-.88,1.25-1.77,2.5-2.65,3.75Z"/>
      <path class="cls-12" d="m521.25,189.99c-1.59.57-3.18,1.14-4.76,1.71.03-2.24.05-4.49.08-6.73,1.91.18,3.82.36,5.73.55-.35,1.49-.69,2.98-1.04,4.47Z"/>
      <path class="cls-12" d="m522.73,192.94c1.2-1.19,2.4-2.37,3.6-3.56.92,2.05,1.84,4.09,2.76,6.14l-5.42,1.91c-.31-1.5-.63-3-.94-4.5Z"/>
      <path class="cls-12" d="m512.47,233.18c1.24-1.14,2.49-2.28,3.73-3.42.84,2.08,1.69,4.16,2.53,6.24l-5.49,1.71c-.26-1.51-.51-3.02-.77-4.53Z"/>
      <path class="cls-12" d="m506.51,249.38c-1.29-1.09-2.58-2.17-3.87-3.26,1.95-1.11,3.91-2.21,5.86-3.32.8,1.74,1.6,3.48,2.41,5.22-1.46.45-2.93.9-4.39,1.35Z"/>
      <path class="cls-12" d="m522.36,224.45c1.57-.63,3.13-1.26,4.7-1.89.06,2.24.12,4.49.18,6.73l-5.74-.33c.29-1.5.58-3.01.87-4.51Z"/>
      <path class="cls-12" d="m515.15,227.48c-.11-1.68-.23-3.37-.34-5.05,2.15.64,4.3,1.28,6.45,1.92l-2.09,5.36c-1.34-.74-2.68-1.48-4.02-2.23Z"/>
      <path class="cls-12" d="m490.85,246.49c.86,1.45,1.72,2.91,2.57,4.36-2.21.39-4.42.79-6.63,1.18l-.53-5.73c1.53.06,3.06.12,4.59.18Z"/>
      <g>
        <g>
          <path class="cls-12" d="m475.17,212.55c-1.23,1.16-2.46,2.31-3.69,3.47-.87-2.07-1.74-4.14-2.62-6.2l5.47-1.78c.28,1.51.55,3.01.83,4.52Z"/>
          <path class="cls-12" d="m467.38,226.59c-1.23,1.16-2.46,2.31-3.69,3.47-.87-2.07-1.74-4.14-2.62-6.2l5.47-1.78c.28,1.51.55,3.01.83,4.52Z"/>
          <path class="cls-12" d="m472.24,227.67c1.31,1.07,2.61,2.14,3.92,3.2-1.94,1.13-3.88,2.27-5.81,3.4l-2.48-5.19c1.46-.47,2.91-.94,4.37-1.41Z"/>
          <path class="cls-12" d="m485.41,226.59c-1.23,1.16-2.46,2.31-3.69,3.47-.87-2.07-1.74-4.14-2.62-6.2l5.47-1.78c.28,1.51.55,3.01.83,4.52Z"/>
          <path class="cls-12" d="m491.28,216.04c-1.23,1.16-2.46,2.31-3.69,3.47-.87-2.07-1.74-4.14-2.62-6.2l5.47-1.78c.28,1.51.55,3.01.83,4.52Z"/>
          <path class="cls-12" d="m479.11,204.3c-1.23,1.16-2.46,2.31-3.69,3.47-.87-2.07-1.74-4.14-2.62-6.2l5.47-1.78c.28,1.51.55,3.01.83,4.52Z"/>
          <path class="cls-12" d="m467.06,208c-.28,1.66-.56,3.33-.84,4.99-1.94-1.12-3.89-2.24-5.83-3.37l3.28-4.72c1.13,1.03,2.26,2.07,3.39,3.1Z"/>
          <path class="cls-12" d="m469.11,216.1c.14,1.68.27,3.36.41,5.05-2.16-.61-4.32-1.22-6.48-1.83l2.02-5.39c1.35.72,2.7,1.45,4.05,2.17Z"/>
          <path class="cls-12" d="m484.16,208.23c-.46,1.62-.91,3.25-1.37,4.87-1.81-1.32-3.62-2.65-5.44-3.97l3.77-4.34c1.01,1.15,2.03,2.3,3.04,3.44Z"/>
          <path class="cls-12" d="m475.39,221.04c.19,1.68.38,3.35.57,5.03-2.18-.54-4.36-1.08-6.53-1.62l1.85-5.45c1.37.68,2.74,1.36,4.12,2.04Z"/>
          <path class="cls-12" d="m478.6,220.27c-.88-1.44-1.76-2.88-2.63-4.32,2.2-.43,4.41-.85,6.61-1.28l.61,5.72c-1.53-.04-3.06-.08-4.59-.12Z"/>
        </g>
        <g>
          <path class="cls-12" d="m499.24,236.45c1.24-1.14,2.49-2.28,3.73-3.42.84,2.08,1.69,4.16,2.53,6.24l-5.49,1.71c-.26-1.51-.51-3.02-.77-4.53Z"/>
          <path class="cls-12" d="m507.23,222.52c1.24-1.14,2.49-2.28,3.73-3.42.84,2.08,1.69,4.16,2.53,6.24l-5.49,1.71c-.26-1.51-.51-3.02-.77-4.53Z"/>
          <path class="cls-12" d="m502.38,221.37c-1.29-1.09-2.58-2.17-3.87-3.26,1.95-1.11,3.91-2.21,5.86-3.32l2.41,5.22c-1.46.45-2.93.9-4.39,1.35Z"/>
          <path class="cls-12" d="m489.2,222.27c1.24-1.14,2.49-2.28,3.73-3.42.84,2.08,1.69,4.16,2.53,6.24l-5.49,1.71c-.26-1.51-.51-3.02-.77-4.53Z"/>
          <path class="cls-12" d="m483.19,232.73c1.24-1.14,2.49-2.28,3.73-3.42.84,2.08,1.69,4.16,2.53,6.24l-5.49,1.71c-.26-1.51-.51-3.02-.77-4.53Z"/>
          <path class="cls-12" d="m495.19,244.64c1.24-1.14,2.49-2.28,3.73-3.42.84,2.08,1.69,4.16,2.53,6.24l-5.49,1.71c-.26-1.51-.51-3.02-.77-4.53Z"/>
          <path class="cls-12" d="m507.29,241.11c.3-1.66.61-3.32.91-4.98,1.93,1.15,3.86,2.3,5.78,3.45l-3.35,4.68c-1.12-1.05-2.23-2.1-3.35-3.15Z"/>
          <path class="cls-12" d="m505.35,232.99c-.11-1.68-.23-3.37-.34-5.05,2.15.64,4.3,1.28,6.45,1.92l-2.09,5.36c-1.34-.74-2.68-1.48-4.02-2.23Z"/>
          <path class="cls-12" d="m490.19,240.65c.48-1.62.96-3.24,1.44-4.85,1.79,1.35,3.59,2.7,5.38,4.05l-3.83,4.29c-1-1.16-1.99-2.32-2.99-3.49Z"/>
          <path class="cls-12" d="m499.14,227.96c-.17-1.68-.33-3.36-.5-5.04,2.17.57,4.34,1.14,6.51,1.71l-1.92,5.42c-1.36-.7-2.72-1.4-4.09-2.1Z"/>
          <path class="cls-12" d="m495.93,228.68c.86,1.45,1.72,2.91,2.57,4.36-2.21.39-4.42.79-6.63,1.18l-.53-5.73c1.53.06,3.06.12,4.59.18Z"/>
        </g>
        <g>
          <path class="cls-12" d="m483.79,189.65c1.61.51,3.22,1.02,4.82,1.53-1.38,1.77-2.77,3.53-4.15,5.3l-4.22-3.91c1.18-.97,2.36-1.95,3.54-2.92Z"/>
          <path class="cls-12" d="m499.85,189.63c1.61.51,3.22,1.02,4.82,1.53-1.38,1.77-2.77,3.53-4.15,5.3l-4.22-3.91c1.18-.97,2.36-1.95,3.54-2.92Z"/>
          <path class="cls-12" d="m498.43,184.85c.3-1.66.6-3.32.89-4.98,1.93,1.14,3.86,2.28,5.8,3.43l-3.33,4.69c-1.12-1.04-2.24-2.09-3.36-3.13Z"/>
          <path class="cls-12" d="m491.09,173.87c1.61.51,3.22,1.02,4.82,1.53-1.38,1.77-2.77,3.53-4.15,5.3l-4.22-3.91c1.18-.97,2.36-1.95,3.54-2.92Z"/>
          <path class="cls-12" d="m479.02,173.88c1.61.51,3.22,1.02,4.82,1.53-1.38,1.77-2.77,3.53-4.15,5.3-1.41-1.3-2.81-2.61-4.22-3.91,1.18-.97,2.36-1.95,3.54-2.92Z"/>
          <path class="cls-12" d="m474.67,190.22c1.61.51,3.22,1.02,4.82,1.53-1.38,1.77-2.77,3.53-4.15,5.3l-4.22-3.91c1.18-.97,2.36-1.95,3.54-2.92Z"/>
          <path class="cls-12" d="m483.77,198.95c1.59-.56,3.18-1.13,4.77-1.69-.04,2.24-.07,4.49-.11,6.73l-5.72-.57c.35-1.49.71-2.98,1.06-4.47Z"/>
          <path class="cls-12" d="m489.84,193.22c1.4-.94,2.81-1.88,4.21-2.81.52,2.18,1.03,4.37,1.55,6.55l-5.69.85c-.02-1.53-.05-3.06-.07-4.59Z"/>
          <path class="cls-12" d="m475.65,183.9c1.64-.39,3.28-.78,4.93-1.17-.28,2.23-.55,4.45-.83,6.68-1.88-.39-3.75-.79-5.63-1.18.51-1.44,1.02-2.89,1.53-4.33Z"/>
          <path class="cls-12" d="m491.11,185.33c1.37-.98,2.75-1.96,4.12-2.94.59,2.17,1.17,4.33,1.76,6.5-1.89.34-3.77.69-5.66,1.03-.07-1.53-.15-3.06-.22-4.59Z"/>
          <path class="cls-12" d="m488.88,182.9c-.83,1.47-1.66,2.94-2.5,4.4-1.44-1.72-2.89-3.44-4.33-5.16l4.7-3.32c.71,1.36,1.42,2.71,2.13,4.07Z"/>
        </g>
        <path class="cls-12" d="m508.95,204.23c1.24-1.14,2.49-2.28,3.73-3.42.84,2.08,1.69,4.16,2.53,6.24l-5.49,1.71c-.26-1.51-.51-3.02-.77-4.53Z"/>
        <path class="cls-12" d="m463.15,192.49c1.24-1.14,2.49-2.28,3.73-3.42.84,2.08,1.69,4.16,2.53,6.24l-5.49,1.71c-.26-1.51-.51-3.02-.77-4.53Z"/>
        <path class="cls-12" d="m477.99,238.5c-1.29-1.09-2.58-2.17-3.87-3.26,1.95-1.11,3.91-2.21,5.86-3.32l2.41,5.22c-1.46.45-2.93.9-4.39,1.35Z"/>
        <path class="cls-12" d="m493.18,201.54c1.24-1.14,2.49-2.28,3.73-3.42.84,2.08,1.69,4.16,2.53,6.24l-5.49,1.71c-.26-1.51-.51-3.02-.77-4.53Z"/>
        <path class="cls-12" d="m505.2,194.86c1.24-1.14,2.49-2.28,3.73-3.42.84,2.08,1.69,4.16,2.53,6.24l-5.49,1.71c-.26-1.51-.51-3.02-.77-4.53Z"/>
        <path class="cls-12" d="m495.19,212.44c1.24-1.14,2.49-2.28,3.73-3.42.84,2.08,1.69,4.16,2.53,6.24l-5.49,1.71c-.26-1.51-.51-3.02-.77-4.53Z"/>
        <path class="cls-12" d="m510.14,216.44c.3-1.66.61-3.32.91-4.98,1.93,1.15,3.86,2.3,5.78,3.45l-3.35,4.68c-1.12-1.05-2.23-2.1-3.35-3.15Z"/>
        <path class="cls-12" d="m464.99,203.84c-.11-1.68-.23-3.37-.34-5.05,2.15.64,4.3,1.28,6.45,1.92l-2.09,5.36c-1.34-.74-2.68-1.48-4.02-2.23Z"/>
        <path class="cls-12" d="m501.27,203.11c.48-1.62.96-3.24,1.44-4.85,1.79,1.35,3.59,2.7,5.38,4.05l-3.83,4.29c-1-1.16-1.99-2.32-2.99-3.49Z"/>
        <path class="cls-12" d="m502.45,212.36c-.17-1.68-.33-3.36-.5-5.04,2.17.57,4.34,1.14,6.51,1.71-.64,1.81-1.28,3.61-1.92,5.42-1.36-.7-2.72-1.4-4.09-2.1Z"/>
        <path class="cls-12" d="m492.35,205.35c.86,1.45,1.72,2.91,2.57,4.36-2.21.39-4.42.79-6.63,1.18l-.53-5.73c1.53.06,3.06.12,4.59.18Z"/>
      </g>
    </g>
    <path class="cls-14" d="m442.91,253.83c11.59,2.75,26.88,5.23,44.87,5.19,17.55-.04,32.48-2.48,43.89-5.19,8.24-50.19,16.48-100.37,24.72-150.56h-139.33l25.84,150.56Z"/>
    <path class="cls-20" d="m417.07,320.12c18.62,4.4,42.94,8.36,71.5,8.45,29.44.09,54.46-3.96,73.44-8.45-10.11-22.1-20.22-44.19-30.34-66.29-11.41,2.7-26.34,5.14-43.89,5.19-18,.05-33.28-2.44-44.87-5.19-8.61,22.1-17.23,44.19-25.84,66.29Z"/>
    <path class="cls-14" d="m391.75,103.27h25.31l3.88,22.58c-9.73-7.53-19.46-15.05-29.19-22.58Z"/>
    <path class="cls-20" d="m417.07,103.27h139.33c-9.64-6.25-36.41-21.79-73.59-20.65-32.56,1-55.91,14.27-65.73,20.65Z"/>
    <path class="cls-20" d="m437.59,266.42c11.84,3.61,28.57,7.35,48.82,7.64,21.54.31,39.3-3.38,51.6-6.94"/>
    <circle class="cls-24" cx="487.8" cy="299.99" r="16.54"/>
    <circle class="cls-20" cx="487.8" cy="299.99" r="6.58"/>
    <g class="cls-26">
      <path class="cls-8" d="m443.57,255.06c11.59,2.75,26.88,5.23,44.87,5.19,17.55-.04,32.48-2.48,43.89-5.19,8.24-50.19,16.48-100.37,24.72-150.56h-139.33s25.84,150.56,25.84,150.56Z"/>
      <path class="cls-8" d="m392.41,104.5c8.44,0,16.87,0,25.31,0l3.88,22.58c-9.73-7.53-19.46-15.05-29.19-22.58Z"/>
    </g>
    <path class="cls-5" d="m556.39,103.27l-24.72,150.56,30.34,66.29c-5.37,1.27-11.02,2.45-16.94,3.52-8.22,1.47-16.05,2.54-23.42,3.29,2.62-7.07,5.82-18.07,5.98-31.6.27-22.46-8.11-28.36-8.53-50-.43-22.55,8.57-21.37,8.53-45.07-.05-24.77-9.88-28.55-6.18-48.58,2.8-15.15,9.44-18.44,9.9-32.52.45-13.45-5.14-24.55-9.75-31.66,6.2,1.77,13.33,4.31,20.93,7.99,5.22,2.53,9.84,5.19,13.86,7.79Z"/>
    <path class="cls-11" d="m435.93,119.71c11.59,84.97,17.24,122.59,18.17,122.47.93-.11-2.8-37.97-12.39-123.2-.74-3.59-2.52-5.84-3.95-5.27-1.22.48-1.99,2.93-1.83,6Z"/>
    <g>
      <path class="cls-7" d="m244.51,546.53c-9.52,4.54-19.05,9.08-28.57,13.62-8.4-6.71-16.81-13.42-25.21-20.13,11.5-5.17,23-10.35,34.5-15.52,6.43,7.34,12.85,14.69,19.28,22.03Z"/>
      <path class="cls-7" d="m271.39,554.28l-37.86-1.53c-3.76-10.06-7.51-20.12-11.27-30.18,13.95,1.03,27.91,2.06,41.86,3.09,2.42,9.54,4.85,19.08,7.27,28.62Z"/>
      <g>
        <g>
          <g>
            <path class="cls-12" d="m214.71,530.36c1.6-.53,3.2-1.06,4.8-1.59-.08,2.24-.16,4.49-.25,6.73-1.9-.23-3.81-.46-5.71-.69.38-1.48.77-2.96,1.15-4.45Z"/>
            <path class="cls-12" d="m222.77,530.69c-.73-1.52-1.47-3.04-2.2-4.56,2.23-.21,4.47-.42,6.7-.63.02,1.92.04,3.83.06,5.75-1.52-.19-3.04-.38-4.56-.56Z"/>
            <path class="cls-12" d="m234.98,522.47c1.29,1.08,2.59,2.17,3.88,3.25-1.95,1.11-3.9,2.22-5.85,3.33-.8-1.74-1.61-3.48-2.41-5.22,1.46-.45,2.93-.9,4.39-1.36Z"/>
            <path class="cls-12" d="m203.82,528.77c-1.26-1.12-2.53-2.24-3.79-3.35,1.98-1.06,3.96-2.11,5.94-3.17.76,1.76,1.52,3.52,2.27,5.28-1.47.41-2.95.83-4.42,1.24Z"/>
            <path class="cls-12" d="m214.97,518.32c1.56-.65,3.11-1.3,4.67-1.95.09,2.24.18,4.49.26,6.73-1.92-.08-3.83-.17-5.75-.25.27-1.51.54-3.01.81-4.52Z"/>
            <path class="cls-12" d="m214.09,523.72c1.15,1.23,2.31,2.46,3.46,3.69-2.07.87-4.14,1.74-6.21,2.6-.59-1.82-1.18-3.65-1.77-5.47,1.51-.27,3.01-.55,4.52-.82Z"/>
            <path class="cls-12" d="m228.37,519.66c.19,1.68.38,3.35.57,5.03-2.18-.54-4.36-1.09-6.53-1.63l1.85-5.44c1.37.68,2.74,1.36,4.11,2.04Z"/>
            <path class="cls-17" d="m194.62,524.12c6.67,4.77,13.34,9.54,20.01,14.31l19.53-7.43c.07-2.01-.25-3.55-.57-4.61-.76-2.53-1.84-3.4-1.46-5.09.27-1.17,1.24-2.78,1.24-2.78h0c-3-1.59-5.34-4.81-8.7-5.33-4.48-.69-7.34,2.24-13.32,5.09-3.69,1.75-9.3,4.08-16.75,5.86Z"/>
          </g>
          <path class="cls-12" d="m228.06,547.33c-1.43.9-2.86,1.8-4.28,2.7-.46-2.2-.92-4.39-1.37-6.59l5.71-.7c-.02,1.53-.03,3.06-.05,4.59Z"/>
          <path class="cls-12" d="m244.62,535.57c-.14,1.68-.27,3.36-.41,5.05-2.03-.95-4.07-1.9-6.1-2.85.95-1.66,1.91-3.33,2.86-4.99,1.21.93,2.43,1.86,3.64,2.8Z"/>
          <path class="cls-12" d="m227.38,534.99c1.53.71,3.06,1.42,4.59,2.13-1.59,1.58-3.19,3.16-4.78,4.74-1.23-1.47-2.46-2.94-3.69-4.41,1.29-.82,2.59-1.64,3.88-2.46Z"/>
          <path class="cls-12" d="m222.13,549.38c-1.28.22-2.57.43-3.85.65-.8-.75-1.61-1.51-2.41-2.26l5.59.09c.22.51.45,1.01.67,1.52Z"/>
          <path class="cls-12" d="m237,533.9c-1.68-.2-3.35-.39-5.03-.59,1.25-.44,2.5-.89,3.76-1.33,1.4-.54,2.8-1.08,4.2-1.62-.98,1.18-1.95,2.36-2.93,3.54Z"/>
          <path class="cls-12" d="m235.91,544.03c-1.61-.5-3.22-1.01-4.83-1.51,1.37-1.77,2.75-3.55,4.12-5.32l4.24,3.89c-1.18.98-2.35,1.96-3.53,2.94Z"/>
          <path class="cls-2" d="m214.99,554.06c-.12-5.21-.24-10.42-.36-15.64,10.51-4,21.01-7.99,31.52-11.99.15,4.91.3,9.82.45,14.73-10.54,4.3-21.07,8.6-31.61,12.89Z"/>
          <path class="cls-2" d="m195.84,538.15c-.4-4.68-.81-9.35-1.21-14.03,6.67,4.77,13.34,9.54,20.01,14.31.12,5.21.24,10.42.36,15.64-6.39-5.3-12.77-10.61-19.16-15.91Z"/>
          <path class="cls-14" d="m214.64,538.43c.12,5.21.24,10.42.36,15.64"/>
          <path class="cls-14" d="m194.62,524.12c.4,4.68.81,9.35,1.21,14.03,6.39,5.3,12.77,10.61,19.16,15.91,7.66-3.12,15.31-6.25,22.97-9.37-1.26-4.57-2.53-9.13-3.79-13.7l-19.53,7.43c-6.67-4.77-13.34-9.54-20.01-14.31Z"/>
          <path class="cls-12" d="m221.8,543.68c-1.43.9-2.86,1.8-4.28,2.7-.46-2.2-.92-4.39-1.37-6.59l5.71-.7c-.02,1.53-.03,3.06-.05,4.59Z"/>
          <path class="cls-12" d="m196.42,531.13c.37-1.42.74-2.84,1.1-4.27,1.6,1.12,3.2,2.24,4.81,3.36-1.07,1.28-2.13,2.57-3.2,3.85-.9-.98-1.81-1.96-2.71-2.94Z"/>
          <path class="cls-12" d="m206.63,540.4c.68.82,1.36,1.64,2.03,2.45-1.33.47-2.67.93-4,1.4l-.9-3.51c.96-.11,1.91-.23,2.87-.34Z"/>
          <path class="cls-12" d="m204.86,538.65c-.15-1.32-.3-2.64-.46-3.96,1.71.42,3.43.85,5.14,1.27-.48,1.43-.97,2.86-1.45,4.29-1.08-.53-2.16-1.07-3.24-1.6Z"/>
          <path class="cls-12" d="m199.98,539.3c-1.07-.75-2.14-1.5-3.21-2.25,1.43-.99,2.86-1.97,4.29-2.96.74,1.29,1.47,2.58,2.21,3.87-1.1.45-2.2.89-3.3,1.34Z"/>
          <path class="cls-12" d="m213.49,544.58c-.13,1.33-.25,2.67-.38,4-1.6-.78-3.21-1.55-4.81-2.33l2.32-3.93c.95.75,1.91,1.5,2.86,2.26Z"/>
          <path class="cls-6" d="m194.8,524.32l1.2,13.91,18.99,15.78,31.33-12.78-.44-14.6c-2.25-1.11-5.73-2.95-9.77-5.61-7.46-4.93-8.06-6.92-11.53-7.45-4.76-.74-7.16,2.45-15.84,6.29-5.69,2.51-10.66,3.79-13.94,4.48Z"/>
        </g>
        <g>
          <g>
            <g>
              <path class="cls-12" d="m251.66,525.95c1.61.52,3.21,1.04,4.82,1.56-1.39,1.76-2.78,3.52-4.18,5.28l-4.2-3.93c1.19-.97,2.37-1.94,3.56-2.91Z"/>
              <path class="cls-12" d="m257.96,530.98c.31-1.66.61-3.32.92-4.98,1.93,1.15,3.85,2.3,5.78,3.46l-3.35,4.67c-1.11-1.05-2.23-2.1-3.34-3.15Z"/>
              <path class="cls-12" d="m272.67,531.57c.4,1.64.8,3.28,1.2,4.92-2.23-.26-4.46-.52-6.69-.78.38-1.88.76-3.76,1.14-5.64,1.45.5,2.89,1,4.34,1.5Z"/>
              <path class="cls-12" d="m243.82,518.22c-.36-1.65-.72-3.3-1.07-4.95,2.22.32,4.44.64,6.66.96-.43,1.87-.86,3.74-1.29,5.6-1.43-.54-2.87-1.08-4.3-1.62Z"/>
              <path class="cls-12" d="m258.99,516.39c1.64.4,3.28.79,4.92,1.19-1.26,1.86-2.51,3.72-3.77,5.58l-4.48-3.6c1.11-1.06,2.22-2.11,3.33-3.17Z"/>
              <path class="cls-12" d="m255.09,520.22c.2,1.68.41,3.35.61,5.03-2.18-.52-4.36-1.05-6.55-1.57.6-1.82,1.2-3.64,1.81-5.46,1.38.67,2.75,1.34,4.13,2.01Z"/>
              <path class="cls-12" d="m269,525.39c-.84,1.46-1.68,2.93-2.52,4.39-1.43-1.73-2.87-3.45-4.3-5.18l4.72-3.29c.7,1.36,1.41,2.72,2.11,4.08Z"/>
              <path class="cls-17" d="m239.15,509.03c2.56,7.79,5.12,15.58,7.68,23.37,10.83,2.99,21.67,5.98,32.5,8.97-1.18-2.33-2.8-5.81-4.36-10.18-2.88-8.1-2.44-10.59-5.1-13.2-2.94-2.89-5.99-2.29-13.75-3.78-4.01-.77-9.91-2.21-16.97-5.19Z"/>
            </g>
            <path class="cls-12" d="m252.39,547.52c-1.68-.12-3.37-.24-5.05-.36.93-2.04,1.86-4.08,2.79-6.13l5.02,2.81c-.92,1.22-1.84,2.45-2.76,3.67Z"/>
            <path class="cls-12" d="m272.7,547.84c-1.1,1.28-2.21,2.55-3.31,3.83-1.08-1.97-2.15-3.94-3.23-5.91,1.75-.78,3.51-1.55,5.26-2.33.43,1.47.86,2.94,1.29,4.41Z"/>
            <path class="cls-12" d="m259.14,537.18c.82,1.48,1.63,2.95,2.45,4.43-2.22.33-4.44.66-6.66.99-.12-1.91-.25-3.83-.37-5.74,1.53.11,3.05.21,4.58.32Z"/>
            <path class="cls-12" d="m246.4,545.67c-1.16-.59-2.33-1.17-3.49-1.76-.2-1.08-.4-2.17-.61-3.25l4.45,3.38c-.12.54-.24,1.08-.36,1.62Z"/>
            <path class="cls-12" d="m267.54,541.99c-1.23-1.15-2.47-2.3-3.7-3.45,1.27.38,2.54.77,3.81,1.15,1.45.39,2.9.78,4.34,1.18-1.48.37-2.97.75-4.45,1.12Z"/>
            <path class="cls-12" d="m260.67,549.51c-1-1.36-2-2.72-3-4.07,2.16-.62,4.32-1.24,6.47-1.85l1.12,5.64c-1.53.1-3.06.19-4.58.29Z"/>
            <path class="cls-2" d="m237.87,545.23c2.99-4.27,5.97-8.55,8.96-12.82,10.83,2.99,21.67,5.98,32.5,8.97-2.78,4.05-5.57,8.1-8.35,12.14-11.04-2.77-22.07-5.53-33.11-8.3Z"/>
            <path class="cls-2" d="m231.84,521.07c2.44-4.01,4.88-8.02,7.32-12.03,2.56,7.79,5.12,15.58,7.68,23.37-2.99,4.27-5.97,8.55-8.96,12.82-2.01-8.05-4.02-16.11-6.03-24.16Z"/>
            <path class="cls-14" d="m246.83,532.41c-2.99,4.27-5.97,8.55-8.96,12.82"/>
            <path class="cls-14" d="m239.15,509.03c-2.44,4.01-4.88,8.02-7.32,12.03,2.01,8.05,4.02,16.11,6.03,24.16,11.04,2.77,22.07,5.53,33.11,8.3,2.78-4.05,5.57-8.1,8.35-12.14-10.83-2.99-21.67-5.98-32.5-8.97-2.56-7.79-5.12-15.58-7.68-23.37Z"/>
            <path class="cls-12" d="m249.5,540.88c-1.68-.12-3.37-.24-5.05-.36.93-2.04,1.86-4.08,2.79-6.13l5.02,2.81c-.92,1.22-1.84,2.45-2.76,3.67Z"/>
            <path class="cls-12" d="m236.46,515.75c1.14-.93,2.28-1.86,3.41-2.79.63,1.85,1.26,3.7,1.89,5.55l-4.86,1.21c-.15-1.32-.3-2.65-.44-3.97Z"/>
            <path class="cls-12" d="m239.21,529.26c.06,1.06.13,2.12.19,3.18-1.35-.41-2.7-.83-4.05-1.24l1.35-3.36c.84.47,1.68.95,2.52,1.42Z"/>
            <path class="cls-12" d="m238.81,526.8c.66-1.15,1.32-2.31,1.97-3.46,1.13,1.36,2.26,2.71,3.4,4.07-1.23.87-2.47,1.73-3.7,2.6-.56-1.07-1.11-2.14-1.67-3.21Z"/>
            <path class="cls-12" d="m234.5,524.44c-.42-1.24-.84-2.48-1.26-3.71,1.74.05,3.48.1,5.21.15-.17,1.48-.34,2.95-.5,4.43-1.15-.29-2.3-.58-3.45-.87Z"/>
            <path class="cls-12" d="m242.27,536.69c-.89,1-1.78,2-2.67,3-.83-1.57-1.67-3.15-2.5-4.72l4.2-1.79c.32,1.17.65,2.34.97,3.51Z"/>
          </g>
          <path class="cls-6" d="m239.15,509.03l-7.32,12.03,6.03,24.16,33.11,8.3,8.35-12.14c-1.17-2.24-2.91-5.82-4.6-10.39-3.13-8.46-2.43-10.44-4.93-12.94-3.43-3.44-7.29-2.27-16.64-4.34-6.13-1.35-10.94-3.28-14.01-4.68Z"/>
        </g>
      </g>
    </g>
  </g>
  <rect class="cls-1" width="595.28" height="791.39"/>
</svg>