<?xml version="1.0" encoding="UTF-8"?>
<svg id="Layer_1" data-name="Layer 1" xmlns="http://www.w3.org/2000/svg" xmlns:xlink="http://www.w3.org/1999/xlink" viewBox="0 0 595.28 586.71">
  <defs>
    <style>
      .cls-1 {
        clip-path: url(#clippath);
      }

      .cls-2 {
        fill: none;
      }

      .cls-2, .cls-3, .cls-4, .cls-5, .cls-6, .cls-7, .cls-8, .cls-9, .cls-10, .cls-11, .cls-12, .cls-13, .cls-14, .cls-15, .cls-16, .cls-17, .cls-18, .cls-19, .cls-20, .cls-21, .cls-22, .cls-23 {
        stroke-width: 0px;
      }

      .cls-3 {
        fill: #5a6759;
      }

      .cls-3, .cls-4 {
        opacity: .2;
      }

      .cls-4 {
        fill: #b5c9ad;
      }

      .cls-5 {
        fill: #c1d84d;
        opacity: .87;
      }

      .cls-24 {
        fill: #fdc26c;
      }

      .cls-24, .cls-25 {
        stroke-width: .25px;
      }

      .cls-24, .cls-25, .cls-26, .cls-27, .cls-28, .cls-29 {
        stroke-miterlimit: 10;
      }

      .cls-24, .cls-25, .cls-29 {
        stroke: #231f20;
      }

      .cls-25 {
        fill: #ffe6bf;
      }

      .cls-30 {
        clip-path: url(#clippath-1);
      }

      .cls-26 {
        fill: #7e5a24;
        stroke: #1a2b16;
      }

      .cls-27 {
        fill: #f78d1e;
      }

      .cls-27, .cls-28 {
        stroke: #474b1f;
      }

      .cls-28 {
        fill: #bdda82;
      }

      .cls-31 {
        opacity: .6;
      }

      .cls-32 {
        opacity: .91;
      }

      .cls-6 {
        fill: #533418;
        opacity: .3;
      }

      .cls-7 {
        fill: #f9a139;
      }

      .cls-8 {
        fill: #474b1f;
      }

      .cls-9 {
        fill: #45562f;
      }

      .cls-10 {
        fill: #1a2b16;
      }

      .cls-11 {
        fill: #069547;
      }

      .cls-12 {
        fill: #231f20;
      }

      .cls-13 {
        fill: #c72c27;
      }

      .cls-14 {
        fill: #d8af9b;
      }

      .cls-15 {
        fill: #93322f;
      }

      .cls-16 {
        fill: #746027;
      }

      .cls-17 {
        fill: #67a042;
      }

      .cls-18 {
        fill: #f37122;
      }

      .cls-19 {
        fill: #fff;
      }

      .cls-20 {
        fill: #edeb77;
      }

      .cls-21 {
        fill: #feda37;
      }

      .cls-22 {
        fill: #ffd155;
      }

      .cls-23 {
        fill: #e88b24;
      }

      .cls-29 {
        fill: #f3f5ca;
        opacity: .89;
        stroke-width: .2px;
      }
    </style>
    <clipPath id="clippath">
      <path class="cls-2" d="m103.84,309.62c1.3.67,2.44.84,3.68,1,3.5.44,5.46.41,7.11.53,6.08.47,10.62,3.31,10.84,2.82.05-.11-.18-.27-.28-.41-2.3-3.14-6.72-4.31-9.12-4.79-1.69-.34-3.18-.4-3.36-.4-.13,0-.21,0-.29,0-1.46,0-3.72-.15-4.96-.36-1.02-.17-5.45-.9-7.59-4.11-.68-1.01-.53-1.37-1.5-2.78,0,0-1.18-1.71-3.11-3.22-5.99-4.69-14.37-5.79-14.37-5.79-5.71-.75-10.15.21-12.45.73,0,0-4.91,1.11-9.78,3.59-1.52.77-3,1.68-3,1.68-1.28.78-2.18,1.41-2.44,1.6-5.03,3.51-9.81,5.78-9.81,5.78-5.03,2.39-7.22,2.31-10.3,5.19-1.21,1.14-1.77,1.99-1.97,2.31-2.46,3.94-1.94,8.57-1.46,8.64.54.08-.03-5.98,4.06-9.69,2.43-2.2,4.36-1.63,9.48-3.7,4.13-1.66,6.24-3.39,8.9-5.09,4.29-2.75,14.21-9.08,25.81-8.65,7.66.28,16.36,3.53,18.84,7.48,1.37,2.19,2.21,3.12,3.89,4.99,1.11,1.24,1.95,2.03,3.16,2.65Z"/>
    </clipPath>
    <clipPath id="clippath-1">
      <path class="cls-2" d="m151.85,319.66c.53,1.36,1.27,2.25,2.1,3.18,2.34,2.64,3.83,3.91,4.98,5.1,4.25,4.38,5.78,9.5,6.27,9.28.11-.05.05-.32.06-.49.35-3.88-2.2-7.68-3.68-9.62-1.05-1.37-2.12-2.4-2.25-2.52-.1-.09-.16-.14-.21-.19-1.1-.96-2.69-2.57-3.48-3.54-.66-.8-3.49-4.28-2.98-8.1.16-1.2.51-1.38.71-3.07,0,0,.25-2.06-.2-4.47-1.39-7.48-6.95-13.85-6.95-13.85-3.79-4.33-7.75-6.55-9.82-7.68,0,0-4.42-2.41-9.71-3.77-1.65-.42-3.36-.73-3.36-.73-1.47-.26-2.57-.38-2.89-.42-6.09-.69-11.18-2.15-11.18-2.15-5.36-1.53-6.94-3.04-11.16-2.91-1.66.05-2.65.32-3.01.43-4.45,1.33-7.12,5.15-6.81,5.52.36.42,3.93-4.51,9.46-4.59,3.28-.05,4.35,1.66,9.56,3.5,4.2,1.48,6.92,1.58,10.04,2.06,5.04.78,16.66,2.58,25.09,10.57,5.56,5.28,9.94,13.46,9.19,18.06-.42,2.55-.4,3.8-.38,6.31.02,1.66.12,2.81.62,4.08Z"/>
    </clipPath>
  </defs>
  <rect class="cls-2" width="595.28" height="586.71"/>
  <g class="cls-32">
    <path class="cls-10" d="m223.36,448.7c18.17,6.15,36.98,10.35,56.05,12.44,25.29,2.77,50.95,1.76,75.94-3,12.05-2.29,23.93-5.46,35.53-9.44.76-.26.43-1.47-.33-1.21-22.3,7.64-45.6,12.25-69.14,13.55-23.39,1.29-46.93-.69-69.8-5.75-9.44-2.09-18.76-4.7-27.92-7.8-.76-.26-1.09.95-.33,1.21h0Z"/>
    <path class="cls-10" d="m220.86,243.01c.27,26.7.53,53.39.8,80.09.27,26.7.53,53.39.8,80.09.15,14.97.3,29.94.45,44.91,0,.8,1.26.81,1.25,0-.27-26.7-.53-53.39-.8-80.09s-.53-53.39-.8-80.09c-.15-14.97-.3-29.94-.45-44.91,0-.8-1.26-.81-1.25,0h0Z"/>
    <path class="cls-10" d="m389.32,238.39c.1,27.3.2,54.59.3,81.89.1,27.3.2,54.59.3,81.89.06,15.31.11,30.62.17,45.94,0,.8,1.25.81,1.25,0-.1-27.3-.2-54.59-.3-81.89-.1-27.3-.2-54.59-.3-81.89-.06-15.31-.11-30.62-.17-45.94,0-.8-1.25-.81-1.25,0h0Z"/>
    <path class="cls-10" d="m244.37,176.03c-.01,7.56-.02,15.12-.03,22.68,0,.8,1.25.81,1.25,0,.01-7.56.02-15.12.03-22.68,0-.8-1.25-.81-1.25,0h0Z"/>
    <path class="cls-10" d="m245.61,200.83c16.92,4.69,34.36,7.49,51.91,8.3,13.25.61,26.53.03,39.67-1.77,10.48-1.43,20.83-3.63,31-6.53.77-.22.44-1.43-.33-1.21-16.1,4.59-32.68,7.4-49.4,8.24-15.31.76-30.72-.13-45.86-2.48-8.99-1.4-17.89-3.32-26.65-5.75-.78-.22-1.11.99-.33,1.21h0Z"/>
    <path class="cls-10" d="m244.82,176.63c15.41,3.1,31.06,4.99,46.76,5.63,17.56.72,35.16-.14,52.57-2.52,8.07-1.1,16.08-2.54,24.03-4.3.79-.17.45-1.38-.33-1.21-14.97,3.31-30.18,5.47-45.47,6.43-17.56,1.11-35.22.65-52.7-1.37-8.23-.95-16.41-2.25-24.53-3.88-.79-.16-1.12,1.05-.33,1.21h0Z"/>
    <path class="cls-10" d="m367.4,174.84v25.38c0,.8,1.25.81,1.25,0v-25.38c0-.8-1.25-.81-1.25,0h0Z"/>
    <path class="cls-10" d="m244.36,198.54c-1.17,6.6-3.66,12.9-7.82,18.2s-9.13,9.19-12.13,15.11c-1.75,3.45-2.92,7.17-3.52,10.99-.12.79,1.08,1.13,1.21.33,1.12-7.06,4.2-13.35,9.04-18.6,2.16-2.35,4.45-4.58,6.42-7.1,1.8-2.31,3.34-4.79,4.57-7.44,1.65-3.55,2.76-7.31,3.45-11.16.14-.79-1.06-1.12-1.21-.33h0Z"/>
    <path class="cls-10" d="m245.16,176.63c15.64-4.57,31.81-7.34,48.1-8.02,14.9-.62,29.98.46,44.78,2.14,10,1.14,19.95,2.72,29.82,4.69.79.16,1.12-1.05.33-1.21-15.94-3.19-32.09-5.34-48.32-6.32-7.8-.47-15.6-.85-23.41-.66s-14.96.82-22.37,1.85c-9.89,1.38-19.67,3.51-29.26,6.31-.77.23-.44,1.43.33,1.21h0Z"/>
    <path class="cls-10" d="m367.42,200.39c1.5,7.88,5.51,14.69,11.22,20.25,2.34,2.28,4.83,4.4,6.62,7.17,2.1,3.25,3.33,6.96,4.08,10.74.16.79,1.36.45,1.21-.33-.72-3.65-1.9-7.24-3.83-10.44-1.66-2.76-3.94-4.94-6.26-7.13-5.99-5.67-10.27-12.4-11.83-20.59-.15-.79-1.36-.46-1.21.33h0Z"/>
    <path class="cls-10" d="m223.69,448.7c20.81-3.34,41.82-5.42,62.89-6.2,23.14-.86,46.34-.17,69.39,2.08,11.32,1.1,22.6,2.58,33.82,4.43.79.13,1.13-1.07.33-1.21-20.84-3.42-41.88-5.6-62.98-6.47-23.47-.97-47-.33-70.39,1.89-11.18,1.06-22.32,2.5-33.4,4.28-.79.13-.46,1.33.33,1.21h0Z"/>
    <path class="cls-10" d="m246.01,194.18c8.22,2.15,16.53,4.06,24.94,5.31,7.1,1.05,14.27,1.78,21.43,2.27.8.06.8-1.19,0-1.25-7.18-.49-14.38-1.21-21.5-2.28-8.27-1.25-16.45-3.14-24.53-5.25-.78-.2-1.11,1-.33,1.21h0Z"/>
    <path class="cls-10" d="m245.68,187.4c8.39,2.2,16.92,3.8,25.54,4.79.8.09.79-1.16,0-1.25-8.5-.98-16.92-2.57-25.2-4.75-.78-.2-1.11,1-.33,1.21h0Z"/>
    <path class="cls-10" d="m351.28,177.48c-11.34-1.69-22.76-2.81-34.21-3.34-.8-.04-.8,1.21,0,1.25,11.34.53,22.65,1.62,33.88,3.29.79.12,1.13-1.09.33-1.21h0Z"/>
  </g>
  <g>
    <g>
      <path class="cls-17" d="m116.12,159.42c2.17,3.58.6,9-2.62,19.68,0,0-2.91,8.17-3.1,17.65-.03,1.58.07,3.35,1.22,4.44,1.19,1.14,3.15,1.1,4.64.4,1.49-.7,2.66-1.93,3.87-3.05,7.32-6.8,17.04-10.25,25.72-15.21,4.36-2.49,6.26-4.19,7.47-5.76,5.58-7.23.86-12.85,5.77-19.58,3.89-5.33,9.93-6.03,12.33-11.79.35-.84,1.4-2.8.92-5.2-.34-1.72-1.48-3.23-1.64-4.97-.31-3.4,3.04-5.96,4.08-9.21,1.34-4.22-1.52-8.71-5.08-11.34s-7.86-4.12-11.39-6.79c-3.5-2.66-6.12-6.48-7.34-10.7-1.71-5.92-9.15-5.95-13.99-3.3-2.94,1.61-5.11,4.79-4.96,8.14.06,1.38.5,2.78.21,4.13-.96,4.38-7.61,3.98-10.87,7.06-4.98,4.7.2,14.79-5.04,19.19-2.27,1.91-5.74,1.87-7.97,3.84-1.22,1.07-1.91,2.61-2.56,4.1-.8,1.83-1.54,3.47-1.34,5.24.25,2.29,1.88,3.42,5.65,6.98,3.64,3.44,5.46,5.16,6.01,6.07Z"/>
      <path class="cls-10" d="m115.58,159.74c1.83,3.14.63,7.34-.21,10.6-1,3.89-2.32,7.68-3.37,11.55-.65,2.41-1.17,4.85-1.55,7.31-.45,2.93-.91,6.07-.65,9.04.2,2.28,1.39,4.24,3.84,4.45,2.73.24,4.77-1.7,6.62-3.43,4.44-4.15,9.74-7.09,15.13-9.82s10.69-4.99,15.33-8.53c3.65-2.78,5.82-6.66,6.23-11.25.23-2.53.07-5.12.78-7.59.8-2.74,2.62-5,4.82-6.77,1.89-1.52,4.04-2.69,5.9-4.24,1.71-1.42,2.88-3.11,3.75-5.15,1.05-2.46,1.06-4.68.02-7.16-.59-1.4-1.16-2.73-.79-4.27.31-1.31,1.1-2.47,1.83-3.58,1.41-2.16,2.68-4.33,2.44-7.01-.22-2.44-1.44-4.68-3.02-6.51-3.98-4.63-10.32-6.01-14.87-9.91-2.19-1.88-3.96-4.22-5.18-6.83-1.01-2.15-1.29-4.59-3.14-6.25-2.97-2.65-7.6-2.42-11.1-1.07-2.11.82-3.95,2.12-5.28,3.97-1.65,2.31-1.82,4.7-1.5,7.43.34,2.9-1.04,4.36-3.58,5.41-1.87.77-3.87,1.27-5.62,2.31-3.88,2.3-4.11,6.71-4.1,10.77,0,2.25.12,4.61-.6,6.77-.89,2.63-3.08,3.65-5.56,4.48-2.61.88-4.68,1.96-6.03,4.47-1.19,2.21-2.62,5.04-2.27,7.62.22,1.61,1.21,2.82,2.33,3.94,2.01,2.01,4.15,3.89,6.21,5.86,1.08,1.04,2.38,2.08,3.19,3.36.43.68,1.51.05,1.08-.63-.73-1.15-1.82-2.1-2.78-3.03-1.98-1.92-4.01-3.78-6.02-5.67-1.18-1.12-2.56-2.33-2.78-4.03-.2-1.56.47-3.11,1.08-4.51.57-1.31,1.13-2.72,2.08-3.82,1.82-2.11,4.84-2.26,7.19-3.5,1.7-.91,2.89-2.38,3.5-4.2,1.33-3.97.1-8.28,1-12.31.48-2.15,1.67-3.75,3.63-4.77,1.75-.91,3.69-1.38,5.49-2.19,1.49-.67,2.91-1.62,3.55-3.19.45-1.09.39-2.24.25-3.39-.21-1.64-.29-3.11.33-4.68,1.73-4.37,6.93-6.62,11.42-6.15,1.95.2,3.88,1.05,4.99,2.73.66.99.88,2.16,1.3,3.26.49,1.3,1.1,2.55,1.83,3.73,1.36,2.2,3.11,4.15,5.17,5.73,2.2,1.69,4.7,2.91,7.13,4.22,4.55,2.44,10.85,6.85,9.27,12.94-.62,2.41-2.51,4.23-3.53,6.45s-.68,4.11.24,6.28c.65,1.52,1.05,2.99.68,4.64-.24,1.04-.68,2.07-1.17,3.02-1.1,2.12-2.93,3.61-4.87,4.93-3.88,2.66-7.71,5.37-9.1,10.13-.65,2.24-.62,4.57-.75,6.88-.16,2.83-.81,5.48-2.43,7.85-2.61,3.81-7.14,6.03-11.11,8.12-5.05,2.65-10.27,4.99-15.13,7.98-2.27,1.4-4.47,2.95-6.49,4.7s-4.44,4.96-7.49,4.07-2.11-5.96-1.9-8.29c.25-2.75.7-5.49,1.32-8.18.76-3.33,1.86-6.56,2.82-9.83,1.13-3.87,2.63-8.16,2.36-12.26-.09-1.3-.4-2.54-1.06-3.67-.41-.69-1.49-.07-1.08.63Z"/>
    </g>
    <g>
      <path class="cls-17" d="m144.13,106.56c.55,11.8.38,23.82-2.98,35.15-1.93,6.5-4.88,12.64-7.81,18.75-6.42,13.37-12.85,26.75-19.27,40.12"/>
      <path class="cls-10" d="m143.51,106.56c.58,12.75.32,25.72-3.9,37.9-2.11,6.09-4.98,11.88-7.77,17.68s-5.78,12.04-8.67,18.06c-3.21,6.69-6.42,13.37-9.63,20.06-.35.72.73,1.36,1.08.63,5.85-12.19,11.7-24.37,17.56-36.56,2.78-5.78,5.67-11.53,7.92-17.54s3.61-12.16,4.29-18.48c.78-7.22.7-14.5.37-21.75-.04-.8-1.29-.81-1.25,0h0Z"/>
    </g>
    <g>
      <path class="cls-17" d="m152.87,117.81c-.23,1.13-1.15,4.87-4.62,7.44-1.63,1.21-3.27,1.75-4.38,2"/>
      <path class="cls-10" d="m152.26,117.64c-.35,1.67-1.02,3.27-2,4.67-1.56,2.22-3.93,3.73-6.56,4.34-.78.18-.45,1.39.33,1.21,4.84-1.12,8.44-5.06,9.43-9.88.16-.79-1.04-1.12-1.21-.33h0Z"/>
    </g>
    <g>
      <path class="cls-17" d="m132.04,130.27c.31,1.5,1.17,4.57,3.74,7.46,1.95,2.2,4.07,3.38,5.38,3.98"/>
      <path class="cls-10" d="m131.43,130.43c1.1,5.16,4.61,9.6,9.41,11.81.73.33,1.36-.74.63-1.08-4.53-2.09-7.8-6.19-8.83-11.06-.17-.79-1.37-.45-1.21.33h0Z"/>
    </g>
    <g>
      <path class="cls-17" d="m124.58,150.72c1.54,4.11,4.86,7.51,8.93,9.16"/>
      <path class="cls-10" d="m123.98,150.89c1.66,4.35,5.06,7.83,9.36,9.6.31.13.68-.14.77-.44.1-.36-.13-.64-.44-.77-3.86-1.58-7.01-4.83-8.49-8.72-.28-.74-1.49-.42-1.21.33h0Z"/>
    </g>
    <g>
      <path class="cls-17" d="m139.35,171.45c-.81.75-3.09,2.65-6.6,3.11-2.67.35-4.79-.31-5.84-.71"/>
      <path class="cls-10" d="m138.91,171.01c-3.2,2.93-7.79,3.78-11.83,2.24-.75-.29-1.08.92-.33,1.21,4.47,1.7,9.54.66,13.05-2.56.59-.54-.29-1.43-.88-.88h0Z"/>
    </g>
    <g>
      <path class="cls-17" d="m149.43,144.65c-2.4,3.24-6.43,5.21-10.47,5.12"/>
      <path class="cls-10" d="m148.89,144.34c-2.31,3.07-6.1,4.87-9.93,4.81-.8-.01-.8,1.24,0,1.25,4.3.07,8.43-2,11.01-5.43.48-.64-.6-1.27-1.08-.63h0Z"/>
    </g>
  </g>
  <g>
    <g>
      <path class="cls-17" d="m86.68,145.45c.05.52.7,6.64,4.85,11.78,3.3,4.08,7.54,5.43,12.45,11.5.93,1.15,1.87,2.52,1.65,3.91-.23,1.45-1.7,2.41-3.21,2.66s-3.08-.08-4.62-.29c-9.33-1.31-18.51,1.07-27.79,1.81-4.62.37-7.93-.37-8.85-.47-3.38-.38-4.81-.79-12.51-2.51-12-2.69-13.51-2.83-15.19-4.78-1.69-1.96-.81-2.56-3.85-7.67-1.86-3.13-3.03-5.1-5.21-6.97-3.81-3.28-5.28-2.58-8.31-4.75-3.42-2.44-3.89-7.22-2.76-10.98,1.13-3.76,3.46-7.05,4.52-10.82,1.34-4.74-1.15-5.48-.72-11.66.23-3.35.6-8.51,4.47-12.16.41-.39,4.92-4.51,9.5-3.37,3.27.81,3.71,3.58,7.75,4.78,2.47.74,4.38.32,6.25.08,3.34-.44,14.53-1.91,19.62,2.82,2.02,1.87.96,2.75,6.42,15.11.68,1.53,1.9,4.2,4.36,4.96,1.54.48,2.21-.22,3.9-.03,3.3.38,5.93,3.59,7.04,6.04,1.75,3.85-.27,5.7.23,11.03Z"/>
      <path class="cls-10" d="m86.05,145.45c.37,3.77,1.8,7.58,3.91,10.7,2.81,4.17,7.29,6.54,10.83,9.99,1.72,1.68,6.56,6.12,2.81,8.1-1.58.84-3.5.45-5.18.21s-3.3-.4-4.96-.45c-6.92-.22-13.73,1.14-20.58,1.89-2.95.32-5.88.51-8.84.2-1.46-.15-2.92-.37-4.37-.59-4.13-.6-8.19-1.71-12.26-2.61-3.73-.83-7.8-1.35-11.37-2.8-1.87-.76-2.79-2.23-3.46-4.07-.8-2.18-1.93-4.17-3.13-6.16-1.39-2.31-2.87-4.51-4.97-6.24-1.67-1.37-3.44-2.25-5.41-3.07-2.4-1.01-4.41-2.55-5.21-5.12-1.82-5.78,2.22-10.84,4.12-16,.74-2.02,1.12-4.03.68-6.15s-1-4.04-.94-6.23c.12-4.67.99-9.75,4.72-12.94,1.62-1.39,3.63-2.55,5.75-2.93,2.8-.5,4.54.78,6.5,2.52,1.8,1.6,3.93,2.57,6.35,2.74,2.03.14,4.07-.34,6.08-.56,4.21-.46,8.68-.63,12.79.56,2.27.66,4.71,1.84,5.63,4.15,1.13,2.84,2,5.78,3.16,8.61,1.46,3.58,3.37,10.44,8.43,9.94,1.23-.12,2.29-.3,3.5.14,1.41.51,2.59,1.54,3.55,2.67,1.55,1.83,2.56,4.03,2.36,6.46s-.66,4.6-.47,7.01c.07.8,1.32.8,1.25,0-.21-2.59.42-4.99.5-7.55.07-2.32-.94-4.47-2.33-6.27s-3.48-3.53-5.9-3.85c-1.19-.15-2.37.33-3.54.12-1.51-.27-2.62-1.54-3.36-2.79-1.39-2.33-2.33-5.02-3.32-7.53-.7-1.76-1.34-3.53-1.94-5.32-.52-1.55-.95-3.12-2.16-4.29-3.18-3.06-8.19-3.61-12.39-3.63-2.06-.01-4.13.13-6.18.37-2.23.26-4.51.81-6.75.36-1.45-.29-2.79-.91-3.93-1.85-.83-.68-1.56-1.48-2.43-2.1-2.02-1.44-4.6-1.56-6.92-.81-4.11,1.32-7.41,4.54-8.87,8.58-1.58,4.37-1.67,9.38-.54,13.83,1.46,5.76-2.95,10.51-4.5,15.78-1.38,4.68-.28,9.86,4.15,12.4,1.92,1.1,4.03,1.64,5.84,2.95,2.51,1.82,4.19,4.23,5.77,6.85,1.23,2.06,2.29,4.1,3.13,6.33.41,1.09.97,2.07,1.82,2.88,1.59,1.54,4,1.98,6.07,2.48,5.29,1.27,10.62,2.43,15.93,3.58,3.03.66,6.15,1.17,9.24,1.43,6.88.58,13.81-1.13,20.63-1.81,3.66-.37,7.36-.53,11.03-.16,2.8.28,6.15,1.37,8.59-.59,2.21-1.78,1.2-4.36-.27-6.25-1.92-2.47-4.22-4.59-6.68-6.5-1.86-1.45-3.79-2.82-5.38-4.57-2.05-2.25-3.49-5.05-4.4-7.94-.42-1.34-.77-2.74-.91-4.14-.08-.79-1.33-.8-1.25,0Z"/>
    </g>
    <g>
      <path class="cls-17" d="m29.56,113.96c2.88,8.29,8.48,20.25,19.98,29.63,4.57,3.73,8.31,5.61,16.57,9.92,8.51,4.44,21.27,11.17,37.34,19.93"/>
      <path class="cls-10" d="m28.96,114.12c4.12,11.8,10.97,22.69,20.87,30.49,4.69,3.69,10.04,6.34,15.31,9.09s10.1,5.29,15.13,7.96c7.64,4.06,15.26,8.16,22.86,12.3.71.38,1.34-.69.63-1.08-11.8-6.43-23.64-12.76-35.54-18.99-5.23-2.73-10.65-5.28-15.49-8.67-5.5-3.86-10.23-8.84-14.04-14.36s-6.42-11.05-8.53-17.07c-.26-.75-1.47-.43-1.21.33h0Z"/>
    </g>
    <g>
      <path class="cls-17" d="m27.13,139.56c1.67.62,5.18,1.66,9.54.95,3.13-.51,5.47-1.72,6.86-2.58"/>
      <path class="cls-10" d="m26.96,140.16c5.57,2.04,11.83,1.41,16.88-1.7.68-.42.06-1.5-.63-1.08-4.79,2.95-10.65,3.5-15.92,1.57-.76-.28-1.08.93-.33,1.21h0Z"/>
    </g>
    <g>
      <path class="cls-17" d="m56.73,122.59c-.2,2.68-.69,6.05-1.86,9.78-1.5,4.82-3.59,8.58-5.33,11.21"/>
      <path class="cls-10" d="m56.1,122.59c-.57,7.38-3.03,14.5-7.1,20.68-.44.67.64,1.3,1.08.63,4.19-6.37,6.68-13.71,7.27-21.31.06-.8-1.19-.8-1.25,0h0Z"/>
    </g>
    <g>
      <path class="cls-17" d="m73.99,138.58c0,1.55-.18,4.53-1.43,8.86-.94,3.25-2.13,6.05-2.98,7.88"/>
      <path class="cls-10" d="m73.37,138.58c-.02,5.68-1.96,11.33-4.32,16.42-.34.73.74,1.36,1.08.63,2.46-5.3,4.47-11.15,4.49-17.05,0-.8-1.25-.81-1.25,0h0Z"/>
    </g>
    <g>
      <path class="cls-17" d="m50.68,158.68c1.34-.12,4.11-.56,6.92-2.49,2.38-1.63,3.72-3.59,4.38-4.72"/>
      <path class="cls-10" d="m50.68,159.31c4.91-.47,9.34-3.25,11.84-7.52.41-.7-.67-1.33-1.08-.63-2.26,3.86-6.29,6.47-10.76,6.9-.79.08-.8,1.33,0,1.25h0Z"/>
    </g>
    <g>
      <path class="cls-17" d="m78.78,160.5c-.59,1.09-2.12,3.76-4.29,6.05-2.18,2.31-3.77,2.93-4.38,3.12"/>
      <path class="cls-10" d="m78.24,160.18c-1.08,1.98-2.34,3.88-3.85,5.56-.84.93-1.76,1.82-2.81,2.51-.56.37-1.06.64-1.63.82-.77.24-.44,1.45.33,1.21,1.93-.6,3.55-2.07,4.89-3.53,1.63-1.78,3-3.82,4.16-5.94.39-.71-.69-1.34-1.08-.63h0Z"/>
    </g>
  </g>
  <g>
    <g>
      <path class="cls-17" d="m57.6,234.95c-2.46-1.28-4.97-.86-7.26-.48-3.43.57-6.07,2.03-7.83,3.29-2.84,1.27-4.65,1.01-5.75.57-4.36-1.73-2.78-8.23-8.53-14.83-2.68-3.08-5.49-4.5-5.01-5.72.41-1.03,2.59-.55,7.09-1.9,1.32-.4,2.11-.94,3.84-1.44,7.99-2.3,14.6-7.66,21.84-11.66,3.64-2.01,5.67-2.63,7.31-2.83,7.57-.9,9.61,4.73,16.54,4.09,5.49-.51,8.55-4.44,13.71-3.72.76.11,2.61.19,4.13,1.51,1.09.95,1.7,2.37,2.89,3.21,2.31,1.63,5.58.35,8.36.97,3.73.84,2.38,5.13,6.01,8.25,4.95,4.26,10.84.42,13.82,4.18,2.03,2.56-.5,4.59.83,11.47,1.22,6.36,4.04,8.04,2.78,10.65-1.38,2.84-5.05,1.52-8.29,5.48-2.05,2.51-1.45,4.11-3.53,5.47-2.75,1.8-6.42.73-7.32.47-4.25-1.24-4.4-3.88-7.92-4.96-3.77-1.16-4.75,1.53-9.78,1.62-7.98.15-11.16-6.07-15.95-4.44-2.34.8-3.78,3.23-6.14,3.98-.95.3-2.42.63-4.03.09-.45-.15-1.69-.63-4.19-3.91-1.48-1.94-1.45-2.3-2.78-4.17-2.03-2.84-3.05-4.29-4.84-5.21Z"/>
      <path class="cls-10" d="m57.92,234.41c-2.63-1.26-5.4-1.01-8.19-.46-2.52.49-4.93,1.51-7.06,2.94-1.71,1.15-4.41,1.7-6.28.56-1.7-1.04-2.24-3.26-2.82-5.03-.78-2.37-1.64-4.71-2.99-6.83-1.52-2.38-3.54-4.21-5.6-6.1-.28-.26-1.39-1.09-1.14-1.56.21-.37,1.57-.4,1.93-.45,2.43-.37,4.69-.98,6.96-1.9,2.69-1.09,5.45-1.83,8.07-3.12s5.25-2.89,7.79-4.48,4.84-3.06,7.34-4.46c2.1-1.18,4.32-2.37,6.71-2.84,2.17-.43,4.42-.19,6.47.62,1.77.7,3.37,1.75,5.13,2.47,1.97.81,4.04,1.1,6.16.82,2.4-.32,4.55-1.35,6.73-2.34s4.35-1.6,6.81-1.27c1.33.18,2.58.57,3.57,1.53.9.88,1.47,2.04,2.46,2.84,2.01,1.61,4.63,1.07,7,1.09,1.2,0,2.55.1,3.39,1.07.71.8.99,1.92,1.36,2.9.85,2.24,2.14,4.14,4.27,5.35s4.31,1.34,6.59,1.39c2.14.04,4.77-.03,5.98,2.11.7,1.25.28,2.8.13,4.13-.54,4.81.72,9.21,2.66,13.55.62,1.39,1.14,2.88-.13,4.11-.64.62-1.53.87-2.35,1.16-1.05.37-2.09.76-3.03,1.37-2.24,1.45-3.18,3.51-4.3,5.8-1.18,2.43-4.18,2.77-6.58,2.36-2.09-.36-3.9-1.22-5.46-2.67-1.46-1.36-2.93-2.55-4.97-2.89-1.7-.29-3.12.29-4.67.89-2.39.94-4.92,1.18-7.44.64-2.08-.44-3.94-1.38-5.78-2.41-1.4-.78-2.85-1.65-4.46-1.93-4.84-.84-7.03,5.27-11.87,4.45-1.55-.26-2.59-1.42-3.59-2.57-1.75-2.03-3.04-4.38-4.6-6.55-1.2-1.66-2.42-3.31-4.25-4.3-.71-.38-1.34.69-.63,1.08,2.31,1.26,3.88,3.8,5.27,5.95s2.64,4.17,4.46,5.9c1.08,1.03,2.17,1.67,3.68,1.79,2.56.2,4.53-1.05,6.41-2.62,1.71-1.43,3.42-2.41,5.65-1.72,1.83.56,3.44,1.73,5.14,2.58,2.04,1.02,4.21,1.71,6.5,1.85,2.44.14,4.55-.46,6.79-1.33,2.1-.82,4.15-.65,6,.74,1.63,1.22,2.82,2.73,4.76,3.53,3.86,1.59,9.15,1.55,11-2.81,1.22-2.87,3.06-4.79,6.02-5.84,1.69-.6,3.4-1.18,4.1-2.99.52-1.35.09-2.63-.46-3.89-.99-2.26-1.93-4.46-2.4-6.9s-.4-4.91-.1-7.41c.17-1.43.2-2.8-.66-4.03-1.22-1.74-3.19-2.24-5.21-2.35-2.68-.14-5.38.08-7.77-1.37s-3.13-3.79-4.19-6.27c-.86-2.01-2.32-2.93-4.49-3.09-1.39-.1-2.78.1-4.17.05-1.96-.07-3.04-.91-4.18-2.4-1.51-1.98-3.23-2.85-5.68-3.16-5.24-.64-9.18,3.39-14.25,3.73-4.6.3-7.87-3.13-12.17-3.98-4.88-.96-9.22,1.34-13.31,3.73-5.43,3.17-10.56,6.95-16.39,9.37-1.47.61-2.99,1.02-4.49,1.55-1.31.46-2.53,1.06-3.88,1.42-1.17.31-2.35.54-3.54.72-.75.12-1.63.15-2.32.52-1.2.64-.9,1.89-.15,2.77.71.83,1.61,1.51,2.42,2.25,1.28,1.18,2.48,2.45,3.47,3.89,1.62,2.36,2.54,4.99,3.43,7.68.57,1.73,1.19,3.63,2.67,4.81s3.3,1.33,5.05.99c2.68-.52,4.74-2.45,7.31-3.34,2.98-1.02,6.75-1.73,9.69-.32.72.35,1.36-.73.63-1.08Z"/>
    </g>
    <g>
      <path class="cls-17" d="m117.66,236c-7.48-4.22-18.89-9.63-33.68-12.71-4.37-.91-8.22-1.45-16.81-2.32-10.71-1.08-25.61-2.36-43.95-3.21"/>
      <path class="cls-10" d="m117.97,235.46c-10.95-6.16-22.86-10.65-35.2-13.05-5.44-1.06-10.97-1.6-16.48-2.15-5.81-.58-11.62-1.1-17.44-1.55-8.53-.66-17.08-1.18-25.63-1.58-.8-.04-.8,1.21,0,1.25,13.57.63,27.12,1.58,40.64,2.89,5.66.55,11.34,1.06,16.94,2.04,6.5,1.14,12.9,2.91,19.09,5.17s11.85,4.91,17.44,8.05c.7.39,1.33-.68.63-1.08h0Z"/>
    </g>
    <g>
      <path class="cls-17" d="m106.57,223.8c-1.34-.31-3.92-.72-6.98.07-2.17.56-3.78,1.52-4.78,2.24"/>
      <path class="cls-10" d="m106.74,223.19c-4.22-.97-8.71-.13-12.25,2.37-.65.46-.03,1.55.63,1.08,3.27-2.32,7.37-3.15,11.29-2.25.78.18,1.12-1.02.33-1.21h0Z"/>
    </g>
    <g>
      <path class="cls-17" d="m90.86,234.58c-.88-.59-2.94-2.13-4.2-4.98-1.14-2.56-1.04-4.87-.94-5.92"/>
      <path class="cls-10" d="m91.18,234.04c-3.4-2.28-5.23-6.3-4.83-10.36.08-.8-1.17-.79-1.25,0-.45,4.5,1.7,8.93,5.45,11.44.67.45,1.3-.63.63-1.08h0Z"/>
    </g>
    <g>
      <path class="cls-17" d="m70.47,231.13c-2.3-2.78-3.35-6.51-2.81-10.03"/>
      <path class="cls-10" d="m70.91,230.69c-2.13-2.6-3.14-6.09-2.65-9.43.05-.34-.08-.67-.44-.77-.29-.08-.72.1-.77.44-.56,3.82.53,7.66,2.97,10.64.51.62,1.39-.27.88-.88h0Z"/>
    </g>
    <g>
      <path class="cls-17" d="m61.8,212.22c-.87.37-2.66,1.28-4.16,3.22-1.41,1.82-1.86,3.64-2.03,4.57"/>
      <path class="cls-10" d="m61.49,211.68c-3.35,1.45-5.82,4.58-6.48,8.16-.14.79,1.06,1.12,1.21.33.6-3.31,2.82-6.08,5.9-7.42.31-.13.38-.59.22-.86-.19-.32-.54-.36-.86-.22h0Z"/>
    </g>
    <g>
      <path class="cls-17" d="m85.36,216.29c-1.58.16-4.28.66-7.08,2.4-1.64,1.02-2.84,2.17-3.66,3.1"/>
      <path class="cls-10" d="m85.36,215.67c-4.3.45-8.3,2.44-11.18,5.68-.53.6.35,1.49.88.88,2.65-2.99,6.32-4.9,10.3-5.32.79-.08.8-1.33,0-1.25h0Z"/>
    </g>
  </g>
  <g>
    <g>
      <path class="cls-26" d="m441.09,157.62c-3.93,3.7,1.94,15.32,2.33,16.09.47.92,3.94,7.43,11.27,11.1,3.2,1.6,5.21,1.47,5.79,1.43,3.66-.21,7.61-2.59,8.81-5.97,1.73-4.86-2.88-9.96-5.51-12.87-6.79-7.52-18.83-13.42-22.7-9.79Z"/>
      <path class="cls-10" d="m464.04,172.18c-1.69-1.7-3.35-3.43-5.1-5.07-1.58-1.49-3.29-2.81-5.31-3.64-.74-.3-1.07.9-.33,1.21,1.91.78,3.52,2.14,5,3.55,1.65,1.58,3.24,3.22,4.85,4.84.57.57,1.45-.31.88-.88h0Z"/>
    </g>
    <g>
      <path class="cls-26" d="m473.09,158.89c3.55,4.07,15.39-1.35,16.17-1.72.93-.44,7.58-3.66,11.53-10.84,1.73-3.14,1.66-5.15,1.65-5.73-.07-3.67-2.3-7.7-5.63-9.03-4.79-1.92-10.06,2.5-13.07,5.01-7.77,6.5-14.13,18.3-10.65,22.3Z"/>
      <path class="cls-10" d="m495.51,144.32c-1.92,3.14-4.62,5.75-7.81,7.58-.7.4-.07,1.48.63,1.08,3.38-1.93,6.23-4.71,8.26-8.03.42-.69-.66-1.32-1.08-.63h0Z"/>
      <path class="cls-10" d="m492.22,141.22c-.16.34-.34.68-.54,1-.1.16-.21.32-.32.47-.03.04-.06.08-.08.11-.01.02-.09.12-.02.03-.06.07-.12.15-.18.22-.24.28-.49.55-.76.8-.14.13-.28.25-.43.37-.04.03-.07.06-.11.09.07-.05,0,0-.03.02-.08.06-.17.12-.25.18-.27.19-.42.56-.22.86.17.27.57.42.86.22,1.36-.94,2.48-2.23,3.17-3.74.14-.3.09-.69-.22-.86-.27-.15-.71-.09-.86.22h0Z"/>
    </g>
    <g>
      <path class="cls-26" d="m462.88,149.69c3.97-3.66-1.79-15.34-2.18-16.11-.46-.92-3.87-7.47-11.16-11.21-3.19-1.64-5.19-1.52-5.78-1.49-3.66.18-7.63,2.52-8.86,5.88-1.78,4.84,2.78,9.99,5.38,12.92,6.72,7.58,18.7,13.6,22.6,10.01Z"/>
      <path class="cls-10" d="m439.13,132.85c2.88,4.76,7.13,8.61,12.16,10.98.72.34,1.36-.74.63-1.08-4.85-2.28-8.94-5.95-11.71-10.54-.42-.69-1.5-.06-1.08.63h0Z"/>
      <path class="cls-10" d="m446.28,126.83c5.4,2.99,9.69,7.69,12.21,13.33.33.73,1.4.1,1.08-.63-2.59-5.81-7.09-10.69-12.65-13.78-.7-.39-1.34.69-.63,1.08h0Z"/>
    </g>
  </g>
  <g>
    <g>
      <g>
        <path class="cls-22" d="m547.91,245.21c-3.85,4.03-4.77,9.51-2.54,13.11,2.45,3.96,7.76,4.18,9.32,4.24.86.03,6.51.26,9.79-3.49,2.02-2.3,1.41-4.13,3.49-9.93,1.08-3.02,2.26-5.38,3.11-6.92"/>
        <path class="cls-12" d="m547.47,244.77c-2.83,3.05-4.7,7.39-3.61,11.57.98,3.75,4.29,5.88,7.93,6.55,5.46.99,12.86-.27,14.75-6.3.63-2.03.99-4.13,1.65-6.16.9-2.73,2.06-5.37,3.43-7.89.38-.71-.69-1.34-1.08-.63-1.97,3.62-3.5,7.46-4.49,11.46-.31,1.27-.51,2.63-1.07,3.83-.71,1.52-2.06,2.68-3.53,3.43-4.42,2.25-12.48,2.04-15.44-2.47-2.64-4.03-.64-9.29,2.35-12.5.55-.59-.33-1.47-.88-.88h0Z"/>
      </g>
      <g>
        <path class="cls-22" d="m571.08,242.22c-1.32-.38-3.29-1.06-5.51-2.26-2.73-1.48-4.09-2.83-5.23-3.67-4.39-3.27-12.69-4.54-17.8-.71-.23.18-5.63,4.41-4.32,10.04,1,4.28,5.14,6.2,5.73,6.46"/>
        <path class="cls-12" d="m571.25,241.61c-2.3-.68-4.51-1.63-6.55-2.89-1.61-.99-2.97-2.29-4.53-3.33-3.28-2.2-7.57-3.12-11.47-2.72-2.94.31-5.72,1.42-7.79,3.55-2.32,2.39-3.95,5.63-3.39,9.02s3.12,6.02,6.12,7.37c.73.33,1.36-.75.63-1.08-2.38-1.06-4.53-3.03-5.3-5.57-1.01-3.32.58-6.59,2.89-8.94,1.96-1.99,4.73-3.03,7.72-3.18,3.62-.18,7.52.78,10.45,2.96,1.59,1.19,3.07,2.45,4.81,3.44,1.92,1.09,3.97,1.93,6.08,2.56.77.23,1.1-.98.33-1.21h0Z"/>
      </g>
      <path class="cls-12" d="m544.82,254.52c-.24-3.77,1.79-7.47,5.45-8.74.75-.26.43-1.47-.33-1.21-4.17,1.45-6.65,5.61-6.37,9.95.05.8,1.3.8,1.25,0h0Z"/>
    </g>
    <g>
      <g>
        <g>
          <path class="cls-22" d="m529.23,269.12c3.38.1,6.48-1.69,7.92-4.58,2.11-4.22-.58-8.32-.92-8.81-1.46-2.14-3.49-3.06-4.46-3.5-2.89-1.3-5.49-1.08-5.97-1.03-3.79.37-5.01,2.55-10.13,5.01-2.52,1.21-4.71,1.88-6.06,2.24"/>
          <path class="cls-12" d="m529.23,269.74c3.55.03,7.02-1.8,8.56-5.09,1.35-2.9.83-6.34-.85-9-3.16-4.99-10.55-6.55-15.53-3.57-1.75,1.04-3.39,2.23-5.2,3.17-2.15,1.11-4.42,1.97-6.75,2.59-.78.21-.45,1.41.33,1.21,3.29-.88,6.45-2.23,9.34-4.02,2.17-1.35,4.18-3,6.83-3.22,5.46-.45,11.26,3.36,11.37,9.17.08,4.47-3.87,7.54-8.1,7.51-.8,0-.81,1.24,0,1.25h0Z"/>
        </g>
        <g>
          <path class="cls-22" d="m533.49,268.4c.18,1.72.18,4.42-1.05,7.3-.56,1.32-1.3,3.03-3.11,4.27-1.49,1.02-2.96,1.2-4.26,1.35-1.17.14-3.99.47-6.93-1.03-2.63-1.34-3.92-3.42-4.79-4.81-1.5-2.41-1.93-4.51-2.69-8.38-.41-2.11-.87-5.06-1.06-8.66"/>
          <path class="cls-12" d="m532.87,268.4c.29,3.07-.29,6.2-1.88,8.87-1.67,2.82-4.8,3.57-7.88,3.56-6.53-.03-10.08-5.64-11.32-11.37-.79-3.63-1.34-7.29-1.54-11-.04-.8-1.29-.81-1.25,0,.21,3.77.76,7.48,1.55,11.16.61,2.85,1.6,5.43,3.35,7.79,2.09,2.82,5.2,4.51,8.72,4.66,3.07.13,6.49-.49,8.57-2.93,2.44-2.86,3.28-7.09,2.93-10.74-.07-.79-1.33-.8-1.25,0h0Z"/>
        </g>
      </g>
      <path class="cls-12" d="m533.66,267.37c-3.19,1.78-7.17,1.47-9.87-1.06-.59-.55-1.47.33-.88.88,1.72,1.61,3.96,2.57,6.32,2.59,1.76.01,3.53-.47,5.06-1.33.7-.39.07-1.47-.63-1.08h0Z"/>
    </g>
    <g>
      <g>
        <g>
          <path class="cls-22" d="m512.59,214.5c1.77,1.34,1.3,4.41-.15,6.13s-3.55,2.63-5.21,4.12c-2.43,2.17-3.82,5.56-3.83,8.95,0,1.04-.15,5.71,3.51,9.17,4.24,4.01,9.93,2.95,10.5,2.84"/>
          <path class="cls-12" d="m512.15,214.95c1.41,1.19,1.08,3.31.21,4.74-1,1.64-2.86,2.57-4.37,3.67-2.84,2.08-4.62,5.13-5.09,8.62-.77,5.75,1.87,11.67,7.52,13.78,2.24.83,4.81,1.03,7.16.56.79-.16.45-1.36-.33-1.21-5.68,1.13-11.47-2.18-12.86-7.89-.6-2.45-.5-5.18.34-7.55.62-1.76,1.67-3.37,3.09-4.59,1.34-1.15,2.93-1.97,4.24-3.15,2.07-1.87,3.49-5.72.97-7.85-.61-.52-1.5.36-.88.88h0Z"/>
        </g>
        <g>
          <path class="cls-22" d="m512.59,214.5c4.6,2.54,8.24,4.88,10.84,6.66,2.8,1.9,4.03,2.9,5.3,4.24,2.8,2.96,4.16,5.89,4.77,7.41,1.12,2.82,1.89,4.75,1.32,7.15-.76,3.2-3.37,4.98-4.24,5.56-3.54,2.4-10.01,3.78-13.17.19-2.24-2.54-1.67-6.25-1.48-7.28"/>
          <path class="cls-12" d="m512.27,215.04c4.04,2.24,7.99,4.65,11.78,7.3,3.47,2.42,6.32,5.36,8.2,9.2.87,1.77,1.73,3.75,2.04,5.7.38,2.34-.57,4.59-2.2,6.25-2.39,2.42-5.99,3.85-9.37,3.78-2.27-.05-4.5-.97-5.59-3.07-.88-1.7-.93-3.75-.6-5.61.14-.79-1.06-1.12-1.21-.33-.67,3.71.23,7.96,4.01,9.58s8.51.32,11.73-1.9c3.62-2.49,5.39-6.36,4.01-10.66s-3.78-8.61-7.33-11.68c-4.4-3.82-9.78-6.82-14.85-9.63-.7-.39-1.34.69-.63,1.08h0Z"/>
        </g>
      </g>
      <path class="cls-12" d="m511.96,214.84c.49.8.82,1.71.85,2.66s-.27,2-.82,2.69c-.21.26-.26.63,0,.88.22.22.67.27.88,0,.79-1,1.2-2.18,1.18-3.46-.02-1.21-.39-2.38-1.02-3.41-.42-.68-1.5-.06-1.08.63h0Z"/>
    </g>
  </g>
  <g>
    <path class="cls-24" d="m111.48,321.69c5.29.35,11.66,1.18,14.1-2.35,1.38-1.99,1.28-5.06,0-7.05-.55-.85-1.83-2.29-9.4-3.52-7.57-1.23-9.24-.09-12.34-1.76-3.87-2.09-4.55-4.79-7.05-7.64-7.51-8.55-24.02-9.32-34.07-4.7-1.39.64-4.45,2.38-10.57,5.87-7.3,4.16-6.73,4.06-8.9,5.09-7.15,3.39-9.86,2.81-11.98,5.76-1.47,2.04-2.47,5.49-1.46,7.99,1.77,4.39,9.26,4.79,52.7,4.18,9.68-.14,19.32-2.5,28.97-1.86Z"/>
    <path class="cls-25" d="m111.48,324.31c5.29.35,11.66,1.18,14.1-2.35,1.38-1.99,1.28-5.06,0-7.05-.55-.85-1.83-2.29-9.4-3.52-7.57-1.23-9.24-.09-12.34-1.76-3.87-2.09-4.55-4.79-7.05-7.64-7.51-8.55-24.02-9.32-34.07-4.7-1.39.64-4.45,2.38-10.57,5.87-7.3,4.16-6.73,4.06-8.9,5.09-7.15,3.39-9.86,2.81-11.98,5.76-1.47,2.04-2.47,5.49-1.46,7.99,1.77,4.39,9.26,4.79,52.7,4.18,9.68-.14,19.32-2.5,28.97-1.86Z"/>
    <g class="cls-1">
      <path class="cls-16" d="m50.97,300.03c2.95,9.47,5.9,18.93,8.85,28.4.95,3.06,5.78,1.76,4.82-1.33-2.95-9.47-5.9-18.93-8.85-28.4-.95-3.06-5.78-1.76-4.82,1.33h0Z"/>
      <path class="cls-16" d="m59.31,296.45c3.72,10.38,7.44,20.77,11.17,31.15.46,1.27,1.7,2.12,3.08,1.75,1.23-.34,2.2-1.8,1.75-3.08-3.72-10.38-7.44-20.77-11.17-31.15-.46-1.27-1.7-2.12-3.08-1.75-1.23.34-2.2,1.8-1.75,3.08h0Z"/>
      <path class="cls-16" d="m68.77,293.31c4.16,11.17,8.33,22.33,12.49,33.5.47,1.26,1.69,2.13,3.08,1.75,1.22-.33,2.22-1.8,1.75-3.08-4.16-11.17-8.33-22.33-12.49-33.5-.47-1.26-1.69-2.13-3.08-1.75-1.22.33-2.22,1.8-1.75,3.08h0Z"/>
      <path class="cls-16" d="m80.46,293.46c4.1,10.96,8.19,21.93,12.29,32.89.47,1.26,1.69,2.13,3.08,1.75,1.21-.33,2.22-1.8,1.75-3.08-4.1-10.96-8.19-21.93-12.29-32.89-.47-1.26-1.69-2.13-3.08-1.75-1.21.33-2.22,1.8-1.75,3.08h0Z"/>
      <path class="cls-16" d="m94.07,299.83c3.15,8.27,6.23,16.56,9.26,24.88.46,1.27,1.7,2.12,3.08,1.75,1.22-.34,2.21-1.8,1.75-3.08-3.02-8.32-6.11-16.61-9.26-24.88-.48-1.26-1.69-2.13-3.08-1.75-1.21.33-2.23,1.81-1.75,3.08h0Z"/>
      <path class="cls-16" d="m107.12,308.42c1.96,5.62,3.93,11.24,5.89,16.86.45,1.27,1.71,2.12,3.08,1.75,1.24-.34,2.19-1.79,1.75-3.08-1.96-5.62-3.93-11.24-5.89-16.86-.45-1.27-1.71-2.12-3.08-1.75-1.24.34-2.19,1.79-1.75,3.08h0Z"/>
      <path class="cls-16" d="m43.5,304.16c2.15,7.69,4.29,15.38,6.44,23.06.86,3.09,5.69,1.78,4.82-1.33-2.15-7.69-4.29-15.38-6.44-23.06-.86-3.09-5.69-1.78-4.82,1.33h0Z"/>
      <path class="cls-16" d="m34.65,307.8l5.28,19.27c.85,3.1,5.67,1.78,4.82-1.33l-5.28-19.27c-.85-3.1-5.67-1.78-4.82,1.33h0Z"/>
    </g>
    <g class="cls-31">
      <path class="cls-14" d="m32.09,323.14c13.6,2.75,27.68,2.43,41.48,1.9,2.41-.09,2.42-3.84,0-3.75-13.44.51-27.23.91-40.48-1.76-2.36-.48-3.36,3.14-1,3.62h0Z"/>
    </g>
  </g>
  <g>
    <g>
      <path class="cls-21" d="m62.45,404.78c.75.24,1.6.27,1.84.28.5.02,3.54.22,5.31-1.72,1.03-1.12,1.46-2.65,1.85-4.13.82-3.09,1.58-6.27,1.26-9.45-.11-1.13-.42-2.34-1.32-3.04-.71-.56-1.65-.68-2.55-.79-3-.36-6.09-.72-9.01.06-.29.08-.85.19-1.33.62-.63.56-.8,1.32-.87,1.61-.46,2.05-.76,14.79,4.82,16.55Z"/>
      <path class="cls-8" d="m62.29,405.38c1.59.44,3.42.45,5.01,0,2.4-.67,3.71-2.52,4.42-4.82.91-2.93,1.67-6.07,1.69-9.15.02-2.39-.39-5.14-3.05-5.86-1.4-.38-2.97-.45-4.41-.56s-3.01-.15-4.5.05c-2.11.28-4.04.9-4.45,3.24-.48,2.71-.23,5.69.17,8.39.49,3.25,1.62,7.52,5.12,8.7.76.26,1.09-.95.33-1.21-2.54-.85-3.48-4-3.98-6.34-.55-2.56-.7-5.23-.56-7.84.05-.89.06-2.01.66-2.73.7-.83,2.24-.93,3.23-1.04,1.38-.14,2.78-.09,4.16.03,1.23.1,2.55.17,3.75.46,1.35.33,1.94,1.32,2.16,2.64.45,2.74-.16,5.6-.82,8.25-.6,2.4-1.1,5.36-3.69,6.38-1.5.59-3.37.61-4.91.18-.78-.21-1.11.99-.33,1.21Z"/>
    </g>
    <g>
      <path class="cls-21" d="m91.62,400.09s-3.82-3.84-11.18-4.32c-.34-.02-.73,0-1.04.25-.3.24-.41.64-.5,1.01-.86,3.57-1.48,7.19-2.1,10.8-.12.7-.24,1.41-.11,2.1.3,1.59,1.78,2.64,3.14,3.51.82.53,1.74,1.07,2.7.91.7-.12,1.28-.6,1.81-1.06,2.73-2.34,1.75-.82,6.75-5.8,2.41-2.39,2.72-2.92,2.76-3.64.08-1.42-.96-2.5-2.23-3.77Z"/>
      <path class="cls-8" d="m92.07,399.65c-1.75-1.75-4.28-2.89-6.6-3.6-1.18-.36-2.38-.61-3.61-.76-1.04-.13-2.44-.42-3.16.58-.28.39-.38.88-.49,1.34-.19.81-.37,1.61-.54,2.43-.33,1.56-.62,3.13-.9,4.71-.44,2.49-1.54,5.51.29,7.67.78.92,1.85,1.63,2.88,2.24s2.23,1.03,3.41.5,2.23-1.7,3.34-2.47c.97-.68,1.86-1.45,2.72-2.26,1.1-1.04,2.19-2.1,3.23-3.19.55-.58,1.17-1.19,1.55-1.9,1.06-2-.81-3.96-2.12-5.28-.57-.57-1.45.31-.88.88.93.94,2.65,2.48,1.84,3.9-.32.57-.84,1.05-1.28,1.51-.81.85-1.65,1.67-2.49,2.48-1.43,1.38-2.96,2.5-4.51,3.72-.56.44-1.08,1-1.7,1.35-1.31.74-2.77-.45-3.81-1.2-.79-.57-1.61-1.29-1.88-2.27-.38-1.34.23-3.14.47-4.48.45-2.56.92-5.13,1.52-7.66.14-.58.13-1.33.84-1.5.42-.1,1.11.07,1.53.12,1.12.14,2.22.38,3.3.7,2.16.65,4.54,1.69,6.18,3.32.57.57,1.45-.31.88-.88Z"/>
    </g>
    <g>
      <path class="cls-21" d="m92.8,383.57c.96-4-7.64-8.97-11.2-8.96-.37,0-1.26,0-2.04.57-.45.33-.96.92-1.4,3-.65,3.06-.46,6.04-.46,6.04h0s-.39,2.48.48,3.9c1.03,1.69,3.75,1.72,4.2,1.72.94,0,2.05-.22,4.9-1.95,3.49-2.13,5.24-3.19,5.51-4.32Z"/>
      <path class="cls-8" d="m93.4,383.74c.72-3.32-3-6.04-5.44-7.5-2.28-1.36-6.82-3.7-9.15-1.22-.54.58-.82,1.37-1.03,2.12-.38,1.34-.56,2.76-.66,4.15-.06.89-.16,1.87-.05,2.76.05.37.05-.23,0,.28-.03.32-.06.65-.07.97-.05,2.01.56,3.85,2.53,4.66,1.15.48,2.53.65,3.77.44,2.3-.39,4.43-2.01,6.36-3.22,1.29-.81,3.31-1.82,3.75-3.44.21-.78-.99-1.11-1.21-.33-.29,1.08-1.84,1.84-2.69,2.38-1.72,1.1-3.49,2.34-5.41,3.07-.88.34-1.74.42-2.67.3-.71-.09-1.45-.28-2.04-.69-.79-.54-1.05-1.44-1.12-2.35-.04-.55.02-1.36.05-1.76.01-.17,0-.74,0-1.05-.01-2.15.12-4.51.9-6.53,1.1-2.84,5.03-1.08,6.91-.13,1.6.81,3.13,1.82,4.4,3.1.91.92,1.98,2.26,1.68,3.66-.17.78,1.04,1.12,1.21.33Z"/>
    </g>
  </g>
  <g>
    <path class="cls-28" d="m469.47,348.97l5.04,28.59c-2.79.37-8.05.69-14.14-1.36-6.9-2.32-11.21-6.46-13.14-8.57,7.41-6.22,14.83-12.44,22.24-18.66Z"/>
    <g>
      <path class="cls-5" d="m461.26,356.98h0c-3.3,2.95-2.16,8.36,2.04,9.74h0c4.2,1.38,8.32-2.31,7.41-6.64h0c-.91-4.33-6.16-6.05-9.46-3.1Z"/>
      <path class="cls-20" d="m465.66,355.4c-.24-.16-.81.91-2.18,1.72-.13.08-.44.29-.66.67-.16.27-.2.63-.03.89.22.32.74.31,1.06.19.4-.15.6-.51.79-.86.66-1.27,1.27-2.44,1.02-2.61Z"/>
      <path class="cls-20" d="m467.5,356.06c.3.01.1,1.22.75,2.68.06.14.18.49.13.93-.04.31-.23.63-.53.74-.38.13-.81-.18-1.01-.47-.24-.36-.19-.77-.12-1.16.24-1.42.47-2.73.79-2.72Z"/>
    </g>
    <g>
      <path class="cls-28" d="m480.91,387.14l-5.33,28.54c-2.16-.2-8.34-1.04-14.06-5.94-5.69-4.88-7.47-10.84-8-12.95,9.13-3.22,18.25-6.44,27.38-9.66Z"/>
      <g>
        <path class="cls-5" d="m470.92,391.16h0c-4.17,1.47-5.19,6.91-1.83,9.78h0c3.36,2.88,8.57,1.04,9.38-3.31h0c.81-4.35-3.39-7.94-7.56-6.47Z"/>
        <path class="cls-20" d="m475.59,391.37c-.16-.24-1.09.54-2.68.76-.15.02-.51.1-.86.37-.25.19-.43.51-.36.81.08.38.56.57.91.58.43.02.75-.24,1.06-.5,1.1-.93,2.1-1.78,1.94-2.03Z"/>
        <path class="cls-20" d="m477.04,392.68c.28.13-.37,1.16-.33,2.76,0,.15-.02.52-.23.91-.15.27-.45.5-.78.48-.4-.02-.68-.48-.75-.82-.09-.42.12-.78.33-1.12.77-1.22,1.47-2.34,1.76-2.21Z"/>
      </g>
    </g>
    <path class="cls-9" d="m448.56,366.52c3.05,3.11,5.92,4.93,7.93,6,8.03,4.28,18.02,5.04,18.02,5.04h0c-2.79.37-8.05.69-14.14-1.36-6.9-2.32-11.21-6.46-13.14-8.57.44-.37.89-.74,1.33-1.11Z"/>
    <g>
      <path class="cls-28" d="m499.46,391.07c-2.05-1.09-7.2-4.19-10.69-10.59-3.56-6.53-3.29-12.68-3.07-14.98,9.67.29,19.35.58,29.02.86l-15.26,24.7Z"/>
      <path class="cls-5" d="m503.72,366.52h0c-4.41-.29-7.49,4.3-5.54,8.27h0c1.95,3.97,7.47,4.34,9.93.66h0c2.46-3.67.02-8.64-4.39-8.93Z"/>
      <path class="cls-20" d="m508.03,369.04c-.05-.29-1.22.06-2.76-.36-.14-.04-.51-.11-.93,0-.3.08-.59.3-.66.6-.08.38.29.75.61.89.39.18.78.08,1.17-.04,1.37-.42,2.63-.8,2.58-1.1Z"/>
      <path class="cls-20" d="m508.84,370.81c.21.22-.8.92-1.4,2.41-.06.14-.22.47-.57.74-.25.19-.61.28-.9.13-.36-.18-.44-.71-.37-1.05.09-.42.42-.67.75-.9,1.19-.82,2.28-1.57,2.49-1.34Z"/>
      <path class="cls-9" d="m487.6,365.69c-.34,4.21.26,7.33.85,9.37,2.35,8.12,9.08,14.74,9.08,14.74h0c-2.36-1.4-6.51-4.34-9.29-9.59-3.15-5.94-2.88-11.7-2.55-14.48.64-.01,1.27-.03,1.91-.04Z"/>
    </g>
    <path class="cls-9" d="m454.75,396.37c1.14,3.02,3.46,7.89,8.08,12.08,4.89,4.44,10.52,6.32,12.75,7.23,0,0,0,0,0,0-2.16-.2-8.34-1.04-14.06-5.94-5.69-4.88-7.47-10.84-8-12.95.41-.14.81-.29,1.22-.43Z"/>
  </g>
  <g>
    <g>
      <circle class="cls-27" cx="542.94" cy="395.42" r="20.66"/>
      <circle class="cls-7" cx="541.8" cy="395.42" r="11.26"/>
      <circle class="cls-23" cx="541.8" cy="395.42" r="7.81"/>
    </g>
    <g>
      <circle class="cls-27" cx="559.97" cy="440.48" r="22.53"/>
      <circle class="cls-7" cx="559.97" cy="440.48" r="11.26"/>
      <circle class="cls-23" cx="559.97" cy="440.48" r="7.81"/>
    </g>
    <g>
      <circle class="cls-27" cx="510.15" cy="430.16" r="22.53"/>
      <circle class="cls-7" cx="510.15" cy="430.16" r="11.26"/>
      <circle class="cls-23" cx="510.15" cy="430.16" r="7.81"/>
    </g>
  </g>
  <g>
    <g>
      <g>
        <path class="cls-13" d="m436.14,447.83s15.61-5.73,39.9-14.64c.8,2.19,2.9,8.86,0,15.93-3.9,9.54-14.96,15.11-24.23,13.17-1.74-.36-7.18-1.78-10.82-6.27-2.33-2.88-4.86-8.19-4.86-8.19Z"/>
        <path class="cls-12" d="m436.31,448.44c8.38-3.07,16.75-6.15,25.13-9.22,4.92-1.81,9.84-3.61,14.77-5.42l-.77-.44c1.56,4.32,1.98,9.09.72,13.54-1.36,4.78-4.61,8.86-8.76,11.54-7.08,4.58-16.39,4.94-23.25-.25-3.49-2.64-5.58-6.81-7.46-10.67-.35-.72-1.43-.09-1.08.63,1.77,3.65,3.75,7.57,6.85,10.27s6.88,4.26,10.8,4.74c9.53,1.16,19.53-4.73,23.26-13.54,2.23-5.27,2.06-11.26.13-16.59-.11-.3-.43-.56-.77-.44-12.56,4.61-25.12,9.22-37.68,13.83-.74.27-1.48.54-2.22.81s-.43,1.48.33,1.21Z"/>
      </g>
      <polygon class="cls-18" points="471.66 441.79 462.89 441.61 467.91 448.8 460.23 444.56 461.33 453.26 456.5 445.94 453.44 454.16 452.56 445.43 446.03 451.28 449.31 443.15 463.87 437.76 471.66 441.79"/>
      <path class="cls-20" d="m467.51,448.56c-.13.21.81.65,1.56,1.78.07.11.26.36.59.53.24.12.55.15.76-.01.26-.2.23-.64.12-.91-.14-.34-.46-.49-.76-.63-1.11-.51-2.13-.98-2.26-.76Z"/>
      <path class="cls-20" d="m446.33,450.87c.21.15-.5.91-.73,2.25-.02.12-.1.43-.34.72-.17.2-.46.34-.73.27-.33-.08-.49-.51-.49-.81,0-.37.23-.63.46-.88.84-.89,1.62-1.71,1.84-1.56Z"/>
      <path class="cls-20" d="m453.55,453.73c-.25-.03-.27,1-1.01,2.14-.07.11-.22.39-.25.76-.02.27.09.56.32.69.29.16.68-.04.88-.26.25-.27.27-.61.27-.95.02-1.22.04-2.34-.22-2.37Z"/>
      <path class="cls-20" d="m461.29,453.28c.23-.11.54.88,1.59,1.75.1.08.33.3.45.65.09.25.07.57-.12.77-.24.25-.69.17-.95.03-.32-.18-.43-.51-.53-.84-.36-1.17-.69-2.25-.44-2.37Z"/>
      <path class="cls-20" d="m471.61,441.64c.06-.25,1.03.13,2.36-.15.12-.03.44-.07.79.05.25.09.49.3.52.58.04.34-.29.64-.57.76-.34.14-.67.02-.99-.1-1.14-.45-2.19-.87-2.13-1.13Z"/>
      <g>
        <path class="cls-15" d="m436.44,448.21c4.77,9.92,16.45,14.62,26.72,10.78,10.19-3.8,15.94-14.85,13.18-25.43.8,2.19,2.9,8.86,0,15.93-3.9,9.54-14.96,15.11-24.23,13.17-5.88-1.23-9.84-5.23-10.82-6.27-2.89-3.07-4.24-6.3-4.86-8.19Z"/>
        <path class="cls-12" d="m435.9,448.53c3.78,7.69,11.86,12.65,20.45,12.42,8.56-.23,16.28-5.62,19.58-13.5,1.87-4.45,2.19-9.38,1.01-14.04l-1.21.33c1.46,4.02,1.93,8.45.95,12.64-1.1,4.7-4,8.81-7.87,11.66-3.42,2.52-7.59,4.13-11.85,4.36-4.64.25-9.08-1.33-12.73-4.18-3.35-2.61-5.84-6.16-7.19-10.18-.25-.76-1.46-.43-1.21.33,2.76,8.2,10.32,14.87,19.17,15.28,9.31.43,18.62-5.56,22.03-14.22,2.02-5.12,1.76-10.91-.1-16.04-.27-.75-1.4-.46-1.21.33,1.96,7.8-.74,16.23-6.99,21.34s-15.31,6.03-22.53,2.3c-4.04-2.09-7.23-5.41-9.23-9.48-.35-.72-1.43-.09-1.08.63Z"/>
      </g>
    </g>
    <g>
      <g>
        <path class="cls-13" d="m478.88,459.03s13.47,9.75,34.42,24.93c-1.37,1.89-5.73,7.35-13.21,8.9-10.09,2.09-20.89-3.98-24.45-12.75-.67-1.65-2.53-6.96-.84-12.48,1.09-3.54,4.08-8.6,4.08-8.6Z"/>
        <path class="cls-12" d="m478.57,459.57c7.23,5.23,14.46,10.47,21.68,15.7,4.25,3.08,8.49,6.15,12.74,9.23l-.22-.86c-5.12,7.01-13.67,10.55-22.2,8.28-8.96-2.39-15.92-10.22-15.83-19.69.04-4.67,2.4-8.94,4.69-12.89.4-.7-.68-1.33-1.08-.63-2.09,3.6-4.28,7.53-4.75,11.72-.52,4.68.77,9.7,3.45,13.57,5.8,8.37,17.42,12.29,26.92,8.3,3.98-1.67,7.34-4.56,9.88-8.03.21-.29.03-.67-.22-.86-10.84-7.85-21.67-15.69-32.51-23.54-.64-.46-1.28-.92-1.91-1.38s-1.28.61-.63,1.08Z"/>
      </g>
      <polygon class="cls-18" points="503.73 485.12 498.98 477.74 495.82 485.92 495.05 477.18 488.45 482.96 491.82 474.86 483.3 476.91 490.05 471.31 481.54 469.16 490.12 467.34 502.72 476.4 503.73 485.12"/>
      <path class="cls-20" d="m495.8,485.45c-.25.01-.09,1.03-.61,2.29-.05.12-.15.42-.11.79.03.27.18.53.44.62.31.11.66-.16.82-.41.2-.31.15-.65.1-.99-.2-1.21-.38-2.31-.64-2.3Z"/>
      <path class="cls-20" d="m482.05,469.18c0,.26-1.03.09-2.28.65-.12.05-.42.16-.79.12-.27-.03-.54-.19-.63-.45-.12-.32.15-.69.39-.86.3-.21.65-.16.99-.11,1.21.2,2.32.38,2.32.65Z"/>
      <path class="cls-20" d="m483.71,476.76c-.11-.22-.98.34-2.34.36-.13,0-.44.03-.76.22-.23.13-.41.38-.39.65.03.33.42.54.71.59.36.06.66-.12.94-.31,1.02-.67,1.96-1.28,1.85-1.51Z"/>
      <path class="cls-20" d="m488.4,482.93c.22.13-.43.94-.57,2.3-.01.13-.07.44-.29.74-.16.22-.43.37-.71.33-.34-.06-.53-.47-.55-.77-.03-.37.18-.65.4-.91.77-.95,1.49-1.83,1.72-1.69Z"/>
      <path class="cls-20" d="m503.83,484.99c.24-.09.47.93,1.44,1.88.09.09.3.33.4.69.07.26.02.57-.19.75-.26.23-.7.12-.94-.05-.31-.2-.39-.54-.46-.88-.26-1.2-.5-2.3-.25-2.39Z"/>
      <g>
        <path class="cls-15" d="m478.74,459.48c-5.57,9.5-2.94,21.81,5.97,28.19,8.84,6.33,21.22,4.93,28.45-3.26-1.37,1.89-5.73,7.35-13.21,8.9-10.09,2.09-20.89-3.98-24.45-12.75-2.26-5.56-1.15-11.08-.84-12.48.93-4.12,2.86-7.03,4.08-8.6Z"/>
        <path class="cls-12" d="m478.2,459.17c-4.21,7.32-3.94,16.64.87,23.63,4.9,7.12,13.69,10.65,22.16,9.06,4.78-.89,9.13-3.39,12.38-7.01l-.98-.76c-4.87,6.67-12.93,10.31-21.15,8.53-4.52-.98-8.74-3.36-11.87-6.78-3.46-3.79-5.08-8.69-4.85-13.8.2-4.46,1.8-8.71,4.52-12.25.49-.64-.6-1.26-1.08-.63-5.76,7.5-6.54,18.6-.59,26.25,6.04,7.75,17.21,11.21,26.36,7.28,3.92-1.68,7.23-4.54,9.73-7.96.42-.57-.51-1.28-.98-.76-5.45,6.07-14.04,8.52-21.85,6.08-7.68-2.39-13.34-9.33-14.27-17.3-.53-4.5.43-9.02,2.69-12.95.4-.7-.68-1.33-1.08-.63Z"/>
      </g>
    </g>
  </g>
  <g>
    <path class="cls-29" d="m187.44,474.5c-36.42,12.03-65.48,13.44-83.11,12.97-21.49-.57-43.1-4.4-50.86-5.79-13.2-2.38-24.25-5.06-32.46-7.26-.05-7.39-.09-14.78-.14-22.17,7.49,3.32,13.43,3.74,17.31,3.58,11.81-.48,18.75-6.91,28.07-3.89,3.88,1.26,7.56,3.16,7.56,3.16,4.35,2.25,4.6,3.18,8.06,4.71,2.87,1.27,6.38,2.83,10.43,2.06,2.72-.52,4.47-1.85,7.34-4.09,6.04-4.71,5.19-6.83,8.85-8.75,6.28-3.29,14.39-.02,15.52.45,2.99,1.25,3.71,2.42,8.64,4.37,1.13.45,3.52,1.34,6.66,2.15,0,0,4.08,1.04,7.85,1.42,8.79.88,14.17-5.45,22.76-5.49,7.3-.03,13.23,2.61,17,4.74.17,5.95.34,11.9.51,17.85Z"/>
    <g>
      <path class="cls-12" d="m20.7,452.58c5.88,2.78,12.44,4.08,18.94,3.56,5.51-.45,10.64-2.41,16.01-3.57,2.75-.59,5.56-.87,8.37-.6,3.85.37,7.24,1.9,10.52,3.89,5.18,3.16,10.85,7.62,17.31,6.84,2.18-.26,3.96-1.09,5.67-2.44,2.58-2.03,5.12-4.22,7.28-6.7,1.01-1.16,1.85-2.55,3.07-3.51,2.21-1.74,5.29-2.18,8.02-2.09,3.11.11,6.21.89,9.09,2.06,2.06.83,3.86,2.05,5.81,3.1,5.49,2.97,11.61,4.76,17.89,4.67,2.98-.04,5.87-.63,8.65-1.7,2.51-.96,4.91-2.2,7.49-2.97,5.6-1.68,11.48-.98,16.86,1.14,1.93.76,3.79,1.7,5.59,2.73.42.24.8-.41.38-.65-5.36-3.06-11.4-5.26-17.65-4.89-2.56.15-5.06.75-7.46,1.67s-4.91,2.2-7.49,2.97c-6.12,1.83-12.93.93-18.85-1.26-2.76-1.02-5.32-2.46-7.83-3.97-2.02-1.21-4.3-2.06-6.57-2.69-4.64-1.28-11.06-1.89-14.89,1.72-1.22,1.15-2.14,2.61-3.28,3.84-2.24,2.42-4.82,4.78-7.54,6.66-5.18,3.58-11.74.67-16.47-2.21-3.12-1.9-6.11-4.07-9.5-5.47-2.9-1.2-6.05-1.68-9.18-1.58-5.31.17-10.3,2.13-15.42,3.32-6.86,1.58-13.95,1.37-20.63-.94-1.3-.45-2.58-.98-3.82-1.56-.43-.21-.82.44-.38.65h0Z"/>
      <path class="cls-12" d="m20.51,452.26c.05,7.4.09,14.8.14,22.2,0,.48.75.48.75,0-.05-7.4-.09-14.8-.14-22.2,0-.48-.75-.48-.75,0h0Z"/>
      <path class="cls-12" d="m20.93,474.82c18.55,5.3,37.65,9.15,56.82,11.34,23.4,2.68,47.13,2.33,70.4-1.42,13.55-2.18,26.89-5.51,39.91-9.84.46-.15.26-.88-.2-.72-23.08,7.69-47.16,12.08-71.47,12.87-20.58.66-41.06-1.34-61.28-5.08-11.44-2.12-22.79-4.67-33.98-7.86-.46-.13-.66.59-.2.72h0Z"/>
      <path class="cls-12" d="m187.07,456.67c.17,5.96.34,11.91.51,17.87.01.48.76.48.75,0-.17-5.96-.34-11.91-.51-17.87-.01-.48-.76-.48-.75,0h0Z"/>
    </g>
    <path class="cls-11" d="m119.49,459.17c3.22,0,3.22-5,0-5s-3.22,5,0,5h0Z"/>
    <path class="cls-11" d="m142.14,467.94c3.22,0,3.22-5,0-5s-3.22,5,0,5h0Z"/>
    <path class="cls-11" d="m56.85,463.46c3.22,0,3.22-5,0-5s-3.22,5,0,5h0Z"/>
    <path class="cls-11" d="m85.78,471.3c3.22,0,3.22-5,0-5s-3.22,5,0,5h0Z"/>
    <path class="cls-11" d="m180.76,463.74c3.22,0,3.22-5,0-5s-3.22,5,0,5h0Z"/>
    <path class="cls-11" d="m161.23,470.09c3.22,0,3.22-5,0-5s-3.22,5,0,5h0Z"/>
    <path class="cls-11" d="m32.07,467.94c3.22,0,3.22-5,0-5s-3.22,5,0,5h0Z"/>
    <path class="cls-11" d="m67.12,481.19c3.22,0,3.22-5,0-5s-3.22,5,0,5h0Z"/>
    <path class="cls-11" d="m101.15,481.19c3.22,0,3.22-5,0-5s-3.22,5,0,5h0Z"/>
    <path class="cls-11" d="m127.15,479.87c3.22,0,3.22-5,0-5s-3.22,5,0,5h0Z"/>
  </g>
  <g>
    <g>
      <path class="cls-21" d="m115.05,402.35c.66-.42,1.24-1.05,1.4-1.23.34-.37,2.44-2.57,2.1-5.17-.2-1.51-1.09-2.83-1.97-4.07-1.84-2.61-3.79-5.24-6.43-7.04-.94-.64-2.06-1.18-3.17-.95-.88.19-1.59.83-2.25,1.44-2.21,2.06-4.47,4.2-5.74,6.94-.13.28-.4.77-.38,1.42.02.85.49,1.46.68,1.7,1.28,1.67,10.84,10.09,15.77,6.95Z"/>
      <path class="cls-8" d="m115.36,402.89c1.38-.95,2.58-2.35,3.27-3.88,1.05-2.35.4-4.57-.96-6.63-1.47-2.23-3.1-4.47-5.05-6.32-1.64-1.56-4.13-3.64-6.54-2.52-1.08.51-1.94,1.47-2.79,2.28-1.06,1.01-2.08,2.05-2.99,3.19-1.28,1.61-3.05,3.95-1.97,6.08.5.99,1.44,1.78,2.26,2.51,1.29,1.14,2.66,2.19,4.1,3.13,2.9,1.89,7.28,4.22,10.67,2.16.69-.42.06-1.5-.63-1.08-2.5,1.52-5.77-.03-8.03-1.32s-4.48-2.94-6.34-4.81c-.22-.22-.45-.45-.64-.7-.72-.97-.5-1.85.01-2.83,1.09-2.1,2.74-3.82,4.44-5.44.74-.71,1.52-1.62,2.47-2.04,1.33-.59,2.68.32,3.71,1.1,1.85,1.4,3.34,3.23,4.7,5.08,1.44,1.97,3.47,4.3,2.7,6.92-.46,1.58-1.68,3.11-3.03,4.04-.66.45-.03,1.54.63,1.08Z"/>
    </g>
    <g>
      <path class="cls-21" d="m130.21,376.99s-5.39.45-10.5,5.79c-.23.25-.47.57-.48.96-.01.38.22.72.45,1.03,2.18,2.95,4.55,5.76,6.92,8.56.46.54.93,1.09,1.54,1.44,1.41.79,3.16.33,4.71-.15.93-.29,1.94-.64,2.43-1.48.36-.61.36-1.36.35-2.07-.04-3.59.49-1.87-.1-8.9-.29-3.38-.49-3.96-1.01-4.46-1.04-.97-2.53-.87-4.32-.72Z"/>
      <path class="cls-8" d="m130.21,376.37c-2.81.25-5.63,1.68-7.88,3.31-1.09.79-2.16,1.66-3.06,2.66s-.69,1.98.08,3.03c1.8,2.44,3.75,4.78,5.7,7.09.89,1.05,1.75,2.37,3.03,2.97,1.06.5,2.27.44,3.39.2,2.18-.45,4.59-1.2,4.78-3.76.08-1.15.03-2.31.13-3.47.11-1.25.05-2.49-.03-3.74-.09-1.46-.2-2.93-.37-4.38-.09-.77-.16-1.62-.51-2.32-.94-1.92-3.49-1.74-5.27-1.59-.8.07-.8,1.32,0,1.25,1.24-.1,3.56-.46,4.19.97.21.48.26,1.07.32,1.58.14,1.14.23,2.29.31,3.43.15,2.05.1,4,0,6.04-.02.52-.02,1.04-.02,1.55,0,1.31-.39,2.1-1.62,2.58-.96.37-2.05.7-3.08.78-1.49.1-2.34-.59-3.26-1.67-1.64-1.91-3.26-3.85-4.83-5.83-.47-.59-.93-1.18-1.38-1.78-.29-.38-1.12-1.22-.91-1.77s.99-1.07,1.41-1.44c.48-.44.99-.85,1.51-1.24,2.06-1.52,4.99-3.01,7.36-3.22.79-.07.8-1.32,0-1.25Z"/>
    </g>
    <g>
      <path class="cls-21" d="m118.31,365.48c-2.45-3.31-11.78.09-14.06,2.81-.24.29-.81.97-.87,1.92-.04.56.09,1.33,1.4,3.01,1.92,2.46,4.33,4.24,4.33,4.24h0s1.65,1.89,3.3,2.14c1.96.29,3.73-1.77,4.02-2.12.6-.72,1.15-1.71,1.65-5.01.62-4.04.93-6.07.24-7Z"/>
      <path class="cls-8" d="m118.76,365.03c-2.05-2.64-6.67-1.46-9.27-.53s-7.06,2.81-6.72,6.13c.08.83.53,1.59,1,2.26.73,1.06,1.6,2.03,2.52,2.93.65.64,1.33,1.24,2.04,1.81.15.12.32.23.46.36-.11-.1-.12-.1-.03,0,.1.12.22.23.33.34,1.44,1.39,3.28,2.43,5.28,1.55,1.23-.54,2.4-1.59,3.07-2.76,1.14-2,1.28-4.59,1.6-6.82.21-1.51.78-3.78-.18-5.15-.46-.66-1.54-.03-1.08.63.63.91.27,2.48.14,3.48-.26,2.07-.48,4.24-1.14,6.23-.31.95-.83,1.68-1.57,2.34-.63.57-1.43,1.11-2.3,1.15-.92.05-1.79-.55-2.47-1.12-.72-.61-1.29-1.15-1.99-1.75-1.55-1.34-3.18-2.89-4.14-4.72-1.38-2.63,2.63-4.52,4.5-5.3,1.63-.69,3.4-1.21,5.17-1.34,1.37-.1,2.99-.01,3.9,1.16.49.63,1.37-.26.88-.88Z"/>
    </g>
  </g>
  <g>
    <path class="cls-24" d="m149.6,333.77c3.74,3.76,7.97,8.59,12.13,7.56,2.35-.58,4.31-2.95,4.66-5.29.15-1,.14-2.93-4.72-8.86-4.87-5.93-6.87-6.18-8.09-9.48-1.53-4.12-.25-6.6-.24-10.39.02-11.37-11.86-22.87-22.46-26.05-1.46-.44-4.91-1.15-11.82-2.58-8.23-1.7-7.74-1.4-10.04-2.06-7.6-2.19-9.26-4.4-12.8-3.6-2.45.56-5.48,2.49-6.38,5.03-1.57,4.46,3.79,9.71,36.78,37.97,7.35,6.3,16.15,10.89,22.97,17.76Z"/>
    <path class="cls-25" d="m147.87,335.73c3.74,3.76,7.97,8.59,12.13,7.56,2.35-.58,4.31-2.95,4.66-5.29.15-1,.14-2.93-4.72-8.86-4.87-5.93-6.87-6.18-8.09-9.48-1.53-4.12-.25-6.6-.24-10.39.02-11.37-11.86-22.87-22.46-26.05-1.46-.44-4.91-1.15-11.82-2.58-8.23-1.7-7.74-1.4-10.04-2.06-7.6-2.19-9.26-4.4-12.8-3.6-2.45.56-5.48,2.49-6.38,5.03-1.57,4.46,3.79,9.71,36.78,37.97,7.35,6.3,16.15,10.89,22.97,17.76Z"/>
    <g class="cls-30">
      <path class="cls-16" d="m118.61,277.34c-4.05,9.05-8.09,18.1-12.14,27.15-.55,1.23-.36,2.69.9,3.42,1.07.62,2.87.34,3.42-.9,4.05-9.05,8.09-18.1,12.14-27.15.55-1.23.36-2.69-.9-3.42-1.07-.62-2.87-.34-3.42.9h0Z"/>
      <path class="cls-16" d="m126.98,280.78c-4.07,10.25-8.14,20.5-12.22,30.76-.5,1.26.55,2.75,1.75,3.08,1.42.39,2.57-.49,3.08-1.75,4.07-10.25,8.14-20.5,12.22-30.76.5-1.26-.55-2.75-1.75-3.08-1.42-.39-2.57.49-3.08,1.75h0Z"/>
      <path class="cls-16" d="m136.16,284.67c-4.26,11.13-8.52,22.26-12.78,33.39-.48,1.26.53,2.74,1.75,3.08,1.41.39,2.59-.48,3.08-1.75,4.26-11.13,8.52-22.26,12.78-33.39.48-1.26-.53-2.74-1.75-3.08-1.41-.39-2.59.48-3.08,1.75h0Z"/>
      <path class="cls-16" d="m144.82,292.51c-4.17,10.93-8.35,21.87-12.52,32.8-.48,1.26.53,2.74,1.75,3.08,1.41.39,2.59-.48,3.08-1.75,4.17-10.93,8.35-21.87,12.52-32.8.48-1.26-.53-2.74-1.75-3.08-1.41-.39-2.59.48-3.08,1.75h0Z"/>
      <path class="cls-16" d="m150.83,306.29c-3.11,8.29-6.27,16.55-9.5,24.78-.49,1.26.54,2.74,1.75,3.08,1.42.39,2.58-.48,3.08-1.75,3.23-8.24,6.4-16.5,9.5-24.78.47-1.26-.53-2.74-1.75-3.08-1.4-.39-2.6.48-3.08,1.75h0Z"/>
      <path class="cls-16" d="m154.94,321.36c-2.24,5.52-4.48,11.03-6.73,16.55-.49,1.21.54,2.8,1.75,3.08,1.45.33,2.55-.45,3.08-1.75,2.24-5.52,4.48-11.03,6.73-16.55.49-1.21-.54-2.8-1.75-3.08-1.45-.33-2.55.45-3.08,1.75h0Z"/>
      <path class="cls-16" d="m110.27,275.51c-3.47,7.19-6.95,14.37-10.42,21.56-.59,1.22-.33,2.7.9,3.42,1.1.64,2.83.32,3.42-.9,3.47-7.19,6.95-14.37,10.42-21.56.59-1.22.33-2.7-.9-3.42-1.1-.64-2.83-.32-3.42.9h0Z"/>
      <path class="cls-16" d="m101.23,272.39c-2.93,5.98-5.85,11.96-8.78,17.94-.59,1.21-.33,2.7.9,3.42,1.1.64,2.82.32,3.42-.9,2.93-5.98,5.85-11.96,8.78-17.94.59-1.21.33-2.7-.9-3.42-1.1-.64-2.82-.32-3.42.9h0Z"/>
    </g>
    <g class="cls-31">
      <path class="cls-14" d="m89.03,282.3c8.39,11.05,19.12,20.11,29.83,28.84.79.64,1.88.76,2.65,0,.67-.65.78-2.01,0-2.65-6.4-5.22-12.68-10.62-18.65-16.32-3.82-3.66-7.39-7.54-10.6-11.76-.62-.81-1.61-1.22-2.57-.67-.8.45-1.28,1.76-.67,2.57h0Z"/>
    </g>
  </g>
  <g>
    <g>
      <g>
        <path class="cls-22" d="m479.79,256.96c.84,5.51,4.62,9.58,8.84,10.01,4.63.47,8.04-3.6,9.05-4.8.55-.66,4.17-5,3.21-9.88-.59-3-2.41-3.64-5.74-8.82-1.73-2.7-2.88-5.08-3.59-6.69"/>
        <path class="cls-12" d="m479.19,257.12c.66,3.96,2.88,7.94,6.64,9.69,3.53,1.64,7.23.51,10.07-1.92,4.43-3.77,8-10.78,4.05-16.06-1.33-1.77-2.77-3.43-4-5.29-1.48-2.25-2.76-4.63-3.86-7.1-.32-.73-1.4-.1-1.08.63,1.6,3.62,3.62,7.04,6.06,10.16.85,1.08,1.83,2.1,2.51,3.3.81,1.42.97,3.12.74,4.71-.77,5.22-6.46,12.18-12.28,10.99-4.41-.9-6.97-5.33-7.66-9.46-.13-.79-1.34-.46-1.21.33h0Z"/>
      </g>
      <g>
        <path class="cls-22" d="m491.56,236.77c-1.11.81-2.85,1.97-5.15,2.99-2.84,1.26-4.74,1.52-6.1,1.9-5.27,1.48-11.34,7.28-11.42,13.67,0,.29.06,7.16,5.32,9.55,4,1.82,8.05-.29,8.62-.6"/>
        <path class="cls-12" d="m491.24,236.23c-1.94,1.41-4.04,2.6-6.28,3.45-1.67.64-3.42.94-5.12,1.46-3.73,1.16-7.05,3.87-9.21,7.09-3.16,4.72-3.35,11.93,1.28,15.91,3.15,2.71,7.7,2.57,11.23.68.71-.38.08-1.46-.63-1.08-3.06,1.64-7.11,1.83-9.83-.58-1.93-1.71-2.87-4.35-3.12-6.86-.64-6.43,5.35-12.58,11.24-14.12,4.01-1.05,7.68-2.4,11.07-4.86.64-.47.02-1.55-.63-1.08h0Z"/>
      </g>
      <path class="cls-12" d="m485.22,265.04c-3.15-2.12-4.73-6.01-3.51-9.68.25-.77-.95-1.09-1.21-.33-1.4,4.22.49,8.67,4.09,11.09.67.45,1.3-.63.63-1.08h0Z"/>
    </g>
    <g>
      <g>
        <g>
          <path class="cls-22" d="m487.34,286.35c2.14-2.62,2.61-6.17,1.21-9.07-2.06-4.24-6.94-4.61-7.54-4.65-2.59-.15-4.55.9-5.49,1.4-2.8,1.5-4.2,3.69-4.46,4.1-2.02,3.23-1.03,5.52-2.21,11.08-.58,2.74-1.38,4.88-1.93,6.17"/>
          <path class="cls-12" d="m487.78,286.79c2.41-3.08,3.03-7.44.75-10.79-1.55-2.28-4.15-3.57-6.84-3.93-5.85-.77-11.83,4.09-12.59,9.85-.27,2.1-.31,4.21-.7,6.3-.44,2.4-1.15,4.74-2.09,7-.31.74.9,1.07,1.21.33,1.38-3.31,2.21-6.79,2.54-10.35.23-2.54.27-4.98,1.8-7.15,3.03-4.32,9.13-6.33,13.71-3.26,3.75,2.52,3.99,7.72,1.33,11.12-.49.63.39,1.52.88.88h0Z"/>
        </g>
        <g>
          <path class="cls-22" d="m489.37,282.53c1.47.91,3.61,2.56,5.14,5.28.7,1.25,1.61,2.88,1.49,5.07-.1,1.81-.86,3.08-1.53,4.2-.61,1.02-2.06,3.45-5.04,4.87-2.67,1.26-5.1,1.02-6.73.86-2.83-.28-4.75-1.22-8.28-2.98-1.92-.96-4.54-2.4-7.5-4.44"/>
          <path class="cls-12" d="m489.06,283.07c3.07,1.93,6.31,5.54,6.33,9.38.02,3.29-2.79,6.99-5.56,8.58-3.53,2.02-8.08,1.45-11.67-.11-3.82-1.65-7.49-3.73-10.92-6.09-.67-.46-1.29.63-.63,1.08,3.24,2.22,6.67,4.14,10.24,5.78,2.83,1.3,5.88,2.09,9.02,1.82,3.4-.29,6.33-2.09,8.3-4.83,1.77-2.45,3.02-5.29,2.16-8.34-.99-3.48-3.64-6.46-6.65-8.36-.68-.43-1.31.65-.63,1.08h0Z"/>
        </g>
      </g>
      <path class="cls-12" d="m488.68,281.69c-.2,1.38-.7,2.71-1.48,3.86-1.26,1.88-3.28,3.05-5.49,3.41-.33.05-.52.47-.44.77.1.35.43.49.77.44,2.47-.4,4.67-1.77,6.11-3.81.9-1.27,1.5-2.8,1.73-4.34.05-.33-.08-.67-.44-.77-.29-.08-.72.1-.77.44h0Z"/>
    </g>
    <g>
      <g>
        <g>
          <path class="cls-22" d="m433.91,266.22c2.14-.59,4.29,1.66,4.76,3.86s-.08,4.42.08,6.65c.24,3.25,2.08,6.42,4.75,8.49.83.64,4.44,3.6,9.41,2.81,5.77-.91,8.39-6.06,8.65-6.59"/>
          <path class="cls-12" d="m434.08,266.82c2.36-.48,3.9,2.22,4.12,4.2.23,2.15-.27,4.3.02,6.45.45,3.28,2.35,6.21,4.93,8.24,4.45,3.5,10.5,4.21,15.15.62,1.56-1.21,2.93-2.8,3.81-4.58.36-.72-.72-1.35-1.08-.63-2.27,4.59-7.45,7.43-12.52,6.03-2.33-.64-4.51-2.07-6.14-3.84-1.27-1.38-2.23-3.08-2.71-4.9-.53-2.06-.17-4.12-.17-6.21,0-3.14-1.93-7.37-5.75-6.59-.79.16-.45,1.37.33,1.21h0Z"/>
        </g>
        <g>
          <path class="cls-22" d="m433.91,266.22c4.82-2.09,8.89-3.55,11.89-4.53,3.21-1.06,4.76-1.42,6.59-1.61,4.05-.41,7.2.3,8.78.75,2.92.83,4.92,1.4,6.47,3.31,2.08,2.56,1.88,5.71,1.82,6.75-.26,4.26-3.11,10.24-7.89,10.55-3.37.22-5.98-2.49-6.67-3.27"/>
          <path class="cls-12" d="m434.23,266.76c4.32-1.87,8.72-3.55,13.21-4.94,3.98-1.23,8.05-1.63,12.16-.74,1.83.39,3.79.88,5.44,1.75,2.11,1.11,3.36,3.16,3.71,5.49.52,3.4-.57,7.25-2.74,9.91-1.42,1.73-3.48,2.92-5.78,2.52-1.94-.34-3.6-1.59-4.9-3.02-.54-.6-1.42.29-.88.88,2.59,2.86,6.68,4.65,10.27,2.43s5.18-6.54,5.37-10.39c.1-2-.21-4.05-1.22-5.81-1.14-1.99-2.97-3.15-5.09-3.88-4.35-1.5-8.97-2.12-13.51-1.2-2.59.52-5.11,1.44-7.59,2.32-3.07,1.09-6.1,2.3-9.09,3.59-.74.32-.1,1.4.63,1.08h0Z"/>
        </g>
      </g>
      <path class="cls-12" d="m433.88,266.92s.09.01.13.01c.13.01-.12-.02.03,0,.09.02.18.03.27.05.23.05.47.1.69.18.55.17,1.06.44,1.54.79.03.02.07.05.1.07-.14-.1,0,0,.02.02.08.07.16.13.24.2.17.16.34.33.48.52.34.45.56.93.69,1.47.2.78,1.4.45,1.21-.33-.63-2.5-2.95-3.98-5.41-4.24-.34-.04-.62.31-.62.62,0,.37.29.59.62.62h0Z"/>
    </g>
  </g>
  <g>
    <g>
      <path class="cls-26" d="m552.35,136.29c1.29-5.25-9.97-11.8-10.71-12.23-.89-.51-7.35-4.09-15.5-3.18-3.56.4-5.17,1.61-5.64,1.95-2.95,2.17-4.97,6.31-4.14,9.8,1.19,5.02,7.84,6.79,11.62,7.8,9.79,2.61,23.1,1.01,24.37-4.14Z"/>
      <path class="cls-10" d="m525.14,136.56c2.29.49,4.57,1.02,6.87,1.45s4.4.62,6.61.21c.79-.15.46-1.35-.33-1.21-2.14.4-4.32.11-6.44-.31s-4.25-.9-6.38-1.36c-.78-.17-1.12,1.04-.33,1.21h0Z"/>
    </g>
    <g>
      <path class="cls-26" d="m524.81,152.65c-5.19-1.49-12.17,9.51-12.63,10.24-.54.87-4.37,7.19-3.77,15.37.26,3.57,1.41,5.22,1.73,5.71,2.06,3.03,6.12,5.21,9.63,4.51,5.06-1,7.08-7.57,8.24-11.32,2.98-9.68,1.89-23.05-3.21-24.51Z"/>
      <path class="cls-10" d="m513.94,177.1c-.09-3.68.73-7.33,2.41-10.61.37-.71-.71-1.35-1.08-.63-1.78,3.47-2.68,7.33-2.58,11.24.02.8,1.27.81,1.25,0h0Z"/>
      <path class="cls-10" d="m518.36,177.74c-.21-1.42.01-2.88.56-4.22.13-.31-.14-.69-.44-.77-.36-.1-.64.12-.77.44-.64,1.55-.8,3.23-.56,4.88.05.33.47.52.77.44.36-.1.49-.43.44-.77h0Z"/>
    </g>
    <g>
      <path class="cls-26" d="m538.39,154.8c-1.34,5.23,9.85,11.89,10.6,12.33.89.52,7.31,4.16,15.47,3.33,3.56-.36,5.18-1.55,5.65-1.9,2.97-2.14,5.03-6.27,4.24-9.76-1.15-5.03-7.77-6.87-11.55-7.91-9.77-2.7-23.09-1.23-24.41,3.91Z"/>
      <path class="cls-10" d="m567.5,156.03c-5.09-2.46-10.75-3.35-16.35-2.59-.79.11-.46,1.31.33,1.21,5.24-.7,10.63.17,15.39,2.47.72.35,1.36-.73.63-1.08h0Z"/>
      <path class="cls-10" d="m564.78,164.95c-6.16.42-12.3-1.16-17.49-4.52-.68-.44-1.3.64-.63,1.08,5.36,3.47,11.75,5.12,18.12,4.69.8-.05.8-1.31,0-1.25h0Z"/>
    </g>
  </g>
  <path class="cls-19" d="m376.56,364.04l-3.02-123.63c-.08-.68-.15-2.18.67-3.73,1.55-2.94,4.89-3.42,5.25-3.47h0c.46.13,3.02.89,4.32,3.47.8,1.57.74,3.06.67,3.73l-3.02,123.63c-.16,6.38-4.7,6.38-4.86,0Z"/>
  <path class="cls-6" d="m413.66,448.24c.4,12.57-55.8,27.97-106.84,27.92-50.7-.06-106.65-15.38-106.25-27.92.41-12.89,60.36-22.7,106.54-22.7,46.14,0,106.13,9.81,106.54,22.7Z"/>
  <path class="cls-4" d="m391.21,447.52c-15.56,5.35-34.92,10.35-57.45,12.64-47.11,4.78-85.83-4.59-109.73-12.64h0c-.7-47.24-.99-86.11-1.14-114.06-.19-36.98-.29-94.02-.29-94.02h0s1.48-5.63,4.25-10.32c.77-1.31,2.46-3.3,5.81-7.23,4.54-5.32,5.15-5.82,6.23-7.18,2.31-2.91,5.05-7.63,6.34-15.32.18-16.27.27-23.94.27-23.94h0s29.77-7.69,59.35-8.26c31.89-.61,63.69,7.07,63.69,7.07h0v25.38c1.15,5.77,3.18,9.76,4.75,12.27,5.46,8.73,11.24,9.02,14.48,17.59,1.11,2.94,2.9,9.45,2.9,9.45h0s.15,99.41.15,99.41h0s.4,108.24.4,109.15Z"/>
  <path class="cls-3" d="m244.81,175.31c1.64-2.26,4.07-1.43,11.41-3,8.61-1.84,11.17-4.24,13.45-2.65,2.32,1.61,1.57,5.55,1.69,9.76.37,13.42,3.16,15.58,4.01,26.31.93,11.64-1.89,14.97-3.45,28.33-2.11,18.01,2.01,20.43,2.75,44.51.79,25.83-3.89,24.93-2.29,44.51,2.19,26.78,10.62,24.48,10.55,45.43-.06,19.04-7.06,31.29-7.8,55.07-.31,10.1,0,15.6,0,15.6,0,9.54,1.42,20.31,1.42,20.31,0,0-12.99-1.6-25.36-4.33-14.23-3.13-27.84-7.78-27.84-7.78t-.36-35.74c-.08-8.41-.17-16.81-.25-25.22-.21-25.14-.43-45.41-.59-59.2-.27-23.27-.39-29.4-.44-44.04-.06-18.99.04-43.23.04-43.24-1.2,3.21,2.02-6.59,3.62-9.61,4.26-8.03,8.56-9.49,13.82-17.25,3.6-5.31,5.78-8.58,6.41-13.56.45-3.55.03-7.37-.74-14.31-.72-6.5-1.3-8.15-.04-9.89Z"/>
</svg>