<?xml version="1.0" encoding="UTF-8"?>
<svg id="Layer_1" data-name="Layer 1" xmlns="http://www.w3.org/2000/svg" viewBox="0 0 595.28 494.6">
  <defs>
    <style>
      .cls-1 {
        stroke: #f0dfed;
        stroke-width: 6px;
      }

      .cls-1, .cls-2, .cls-3, .cls-4 {
        fill: none;
      }

      .cls-1, .cls-5, .cls-6, .cls-7, .cls-8, .cls-9, .cls-3, .cls-4 {
        stroke-miterlimit: 10;
      }

      .cls-2, .cls-10, .cls-11, .cls-12, .cls-13, .cls-14, .cls-15, .cls-16, .cls-17, .cls-18, .cls-19, .cls-20, .cls-21, .cls-22 {
        stroke-width: 0px;
      }

      .cls-10 {
        fill: #f9c16d;
        opacity: .7;
      }

      .cls-11 {
        fill: #5a6759;
      }

      .cls-11, .cls-12 {
        opacity: .2;
      }

      .cls-12, .cls-19 {
        fill: #b5c9ad;
      }

      .cls-5 {
        fill: #404447;
      }

      .cls-5, .cls-6, .cls-7 {
        stroke-width: .5px;
      }

      .cls-5, .cls-6, .cls-7, .cls-8, .cls-9, .cls-3 {
        stroke: #231f20;
      }

      .cls-6, .cls-20 {
        fill: #9e1f63;
      }

      .cls-7 {
        fill: #39b54a;
      }

      .cls-8 {
        fill: #fff5d4;
      }

      .cls-9 {
        fill: #fff4d4;
      }

      .cls-13 {
        fill: #d41c5c;
        opacity: .5;
      }

      .cls-4 {
        stroke: #9e1f63;
      }

      .cls-23 {
        opacity: .91;
      }

      .cls-14 {
        fill: #533418;
        opacity: .3;
      }

      .cls-15 {
        fill: #770b49;
      }

      .cls-16 {
        fill: #1a2b16;
      }

      .cls-17 {
        fill: #231f20;
      }

      .cls-18 {
        fill: #a98670;
      }

      .cls-21 {
        fill: #fff;
      }

      .cls-22 {
        fill: #6b3d24;
      }
    </style>
  </defs>
  <g>
    <g>
      <path class="cls-14" d="m200.31,373.31c.19,5.74-26.48,12.79-50.7,12.76-24.06-.03-50.61-7.03-50.42-12.76.2-5.89,28.65-10.38,50.56-10.38,21.9,0,50.36,4.48,50.56,10.38Z"/>
      <g>
        <path class="cls-19" d="m115.82,259.88l10.49,43.14c5.37,1.56,13.05,3.16,22.36,3.09,8.69-.07,15.91-1.59,21.08-3.09,3.69-14.38,7.39-28.76,11.08-43.14-8.94-1.53-19.63-2.71-31.69-2.76-12.76-.05-24,1.17-33.32,2.76Z"/>
        <path class="cls-3" d="m107.29,372.35c12.66-1.84,27.44-3.16,43.92-3.11,15.28.05,29.05,1.28,41,2.98"/>
        <g>
          <g>
            <g>
              <g>
                <circle class="cls-5" cx="118.57" cy="362.73" r="3.41"/>
                <circle class="cls-21" cx="117.33" cy="361.48" r="1.15"/>
                <circle class="cls-17" cx="119.27" cy="362.01" r=".53"/>
              </g>
              <g>
                <circle class="cls-5" cx="135.09" cy="369.21" r="3.41"/>
                <circle class="cls-21" cx="133.85" cy="367.96" r="1.15"/>
                <circle class="cls-17" cx="135.79" cy="368.49" r=".53"/>
              </g>
              <g>
                <circle class="cls-5" cx="135.09" cy="369.21" r="3.41"/>
                <circle class="cls-21" cx="133.85" cy="367.96" r="1.15"/>
                <circle class="cls-17" cx="135.79" cy="368.49" r=".53"/>
              </g>
              <g>
                <circle class="cls-5" cx="135.09" cy="369.21" r="3.41"/>
                <circle class="cls-21" cx="133.54" cy="368.37" r="1.15"/>
                <circle class="cls-17" cx="135.55" cy="368.31" r=".53"/>
              </g>
              <g>
                <circle class="cls-5" cx="140.58" cy="365.91" r="3.41"/>
                <circle class="cls-21" cx="139.66" cy="364.4" r="1.15"/>
                <circle class="cls-17" cx="141.42" cy="365.38" r=".53"/>
              </g>
              <g>
                <circle class="cls-5" cx="127.28" cy="369.13" r="3.41"/>
                <circle class="cls-21" cx="126.04" cy="367.88" r="1.15"/>
                <circle class="cls-17" cx="127.98" cy="368.41" r=".53"/>
              </g>
              <g>
                <circle class="cls-5" cx="130.44" cy="365.13" r="3.41"/>
                <circle class="cls-21" cx="129.2" cy="363.88" r="1.15"/>
                <circle class="cls-17" cx="131.14" cy="364.41" r=".53"/>
              </g>
              <g>
                <circle class="cls-5" cx="135.99" cy="364.94" r="3.41"/>
                <circle class="cls-21" cx="134.75" cy="363.69" r="1.15"/>
                <circle class="cls-17" cx="136.68" cy="364.22" r=".53"/>
              </g>
              <g>
                <circle class="cls-5" cx="123.12" cy="366.92" r="3.41"/>
                <circle class="cls-21" cx="121.88" cy="365.67" r="1.15"/>
                <circle class="cls-17" cx="123.82" cy="366.2" r=".53"/>
              </g>
              <g>
                <circle class="cls-5" cx="140.58" cy="359.92" r="3.41"/>
                <circle class="cls-21" cx="139.76" cy="358.36" r="1.15"/>
                <circle class="cls-17" cx="141.46" cy="359.44" r=".53"/>
              </g>
              <g>
                <circle class="cls-5" cx="129.2" cy="358.93" r="3.41"/>
                <circle class="cls-21" cx="127.96" cy="357.68" r="1.15"/>
                <circle class="cls-17" cx="129.9" cy="358.21" r=".53"/>
              </g>
              <g>
                <circle class="cls-5" cx="122.12" cy="357.68" r="3.41"/>
                <circle class="cls-21" cx="120.88" cy="356.43" r="1.15"/>
                <circle class="cls-17" cx="122.82" cy="356.96" r=".53"/>
              </g>
              <g>
                <circle class="cls-5" cx="134.69" cy="360.64" r="3.41"/>
                <circle class="cls-21" cx="133.45" cy="359.39" r="1.15"/>
                <circle class="cls-17" cx="135.39" cy="359.92" r=".53"/>
              </g>
              <g>
                <circle class="cls-5" cx="124.7" cy="362.39" r="3.41"/>
                <circle class="cls-21" cx="123.27" cy="361.36" r="1.15"/>
                <circle class="cls-17" cx="125.27" cy="361.56" r=".53"/>
              </g>
            </g>
            <g>
              <g>
                <circle class="cls-5" cx="156.5" cy="367.61" r="3.41"/>
                <circle class="cls-21" cx="154.92" cy="366.82" r="1.15"/>
                <circle class="cls-17" cx="156.93" cy="366.7" r=".53"/>
              </g>
              <g>
                <circle class="cls-5" cx="174.22" cy="368.47" r="3.41"/>
                <circle class="cls-21" cx="172.65" cy="367.68" r="1.15"/>
                <circle class="cls-17" cx="174.65" cy="367.56" r=".53"/>
              </g>
              <g>
                <circle class="cls-5" cx="174.22" cy="368.47" r="3.41"/>
                <circle class="cls-21" cx="172.65" cy="367.68" r="1.15"/>
                <circle class="cls-17" cx="174.65" cy="367.56" r=".53"/>
              </g>
              <g>
                <circle class="cls-5" cx="174.22" cy="368.47" r="3.41"/>
                <circle class="cls-21" cx="172.49" cy="368.17" r="1.15"/>
                <circle class="cls-17" cx="174.37" cy="367.47" r=".53"/>
              </g>
              <g>
                <circle class="cls-5" cx="178.37" cy="363.59" r="3.41"/>
                <circle class="cls-21" cx="177.02" cy="362.45" r="1.15"/>
                <circle class="cls-17" cx="179" cy="362.81" r=".53"/>
              </g>
              <g>
                <circle class="cls-5" cx="166.8" cy="370.89" r="3.41"/>
                <circle class="cls-21" cx="165.22" cy="370.1" r="1.15"/>
                <circle class="cls-17" cx="167.23" cy="369.98" r=".53"/>
              </g>
              <g>
                <circle class="cls-5" cx="168.51" cy="366.09" r="3.41"/>
                <circle class="cls-21" cx="166.94" cy="365.3" r="1.15"/>
                <circle class="cls-17" cx="168.94" cy="365.18" r=".53"/>
              </g>
              <g>
                <circle class="cls-5" cx="173.71" cy="364.13" r="3.41"/>
                <circle class="cls-21" cx="172.13" cy="363.35" r="1.15"/>
                <circle class="cls-17" cx="174.14" cy="363.23" r=".53"/>
              </g>
              <g>
                <circle class="cls-5" cx="162.15" cy="370.12" r="3.41"/>
                <circle class="cls-21" cx="160.58" cy="369.34" r="1.15"/>
                <circle class="cls-17" cx="162.58" cy="369.22" r=".53"/>
              </g>
              <g>
                <circle class="cls-5" cx="176.46" cy="357.92" r="3.41"/>
                <circle class="cls-21" cx="175.19" cy="356.7" r="1.15"/>
                <circle class="cls-17" cx="177.14" cy="357.18" r=".53"/>
              </g>
              <g>
                <circle class="cls-5" cx="165.36" cy="360.61" r="3.41"/>
                <circle class="cls-21" cx="163.78" cy="359.82" r="1.15"/>
                <circle class="cls-17" cx="165.79" cy="359.71" r=".53"/>
              </g>
              <g>
                <circle class="cls-5" cx="158.25" cy="361.69" r="3.41"/>
                <circle class="cls-21" cx="156.67" cy="360.9" r="1.15"/>
                <circle class="cls-17" cx="158.68" cy="360.78" r=".53"/>
              </g>
              <g>
                <circle class="cls-5" cx="171.11" cy="360.48" r="3.41"/>
                <circle class="cls-21" cx="169.53" cy="359.69" r="1.15"/>
                <circle class="cls-17" cx="171.54" cy="359.58" r=".53"/>
              </g>
              <g>
                <circle class="cls-5" cx="162.2" cy="365.33" r="3.41"/>
                <circle class="cls-21" cx="160.52" cy="364.81" r="1.15"/>
                <circle class="cls-17" cx="162.47" cy="364.36" r=".53"/>
              </g>
            </g>
            <g>
              <g>
                <circle class="cls-5" cx="137.02" cy="364.12" r="3.41"/>
                <circle class="cls-21" cx="135.78" cy="362.87" r="1.15"/>
                <circle class="cls-17" cx="137.72" cy="363.4" r=".53"/>
              </g>
              <g>
                <circle class="cls-5" cx="153.54" cy="370.6" r="3.41"/>
                <circle class="cls-21" cx="152.3" cy="369.35" r="1.15"/>
                <circle class="cls-17" cx="154.24" cy="369.88" r=".53"/>
              </g>
              <g>
                <circle class="cls-5" cx="153.54" cy="370.6" r="3.41"/>
                <circle class="cls-21" cx="152.3" cy="369.35" r="1.15"/>
                <circle class="cls-17" cx="154.24" cy="369.88" r=".53"/>
              </g>
              <g>
                <circle class="cls-5" cx="153.54" cy="370.6" r="3.41"/>
                <circle class="cls-21" cx="151.99" cy="369.76" r="1.15"/>
                <circle class="cls-17" cx="154" cy="369.7" r=".53"/>
              </g>
              <g>
                <circle class="cls-5" cx="159.03" cy="367.3" r="3.41"/>
                <circle class="cls-21" cx="158.12" cy="365.79" r="1.15"/>
                <circle class="cls-17" cx="159.88" cy="366.77" r=".53"/>
              </g>
              <g>
                <circle class="cls-5" cx="145.73" cy="370.52" r="3.41"/>
                <circle class="cls-21" cx="144.49" cy="369.27" r="1.15"/>
                <circle class="cls-17" cx="146.43" cy="369.8" r=".53"/>
              </g>
              <g>
                <circle class="cls-5" cx="148.89" cy="366.52" r="3.41"/>
                <circle class="cls-21" cx="147.65" cy="365.27" r="1.15"/>
                <circle class="cls-17" cx="149.59" cy="365.8" r=".53"/>
              </g>
              <g>
                <circle class="cls-5" cx="154.44" cy="366.33" r="3.41"/>
                <circle class="cls-21" cx="153.2" cy="365.08" r="1.15"/>
                <circle class="cls-17" cx="155.14" cy="365.61" r=".53"/>
              </g>
              <g>
                <circle class="cls-5" cx="141.58" cy="368.31" r="3.41"/>
                <circle class="cls-21" cx="140.34" cy="367.06" r="1.15"/>
                <circle class="cls-17" cx="142.27" cy="367.59" r=".53"/>
              </g>
              <g>
                <circle class="cls-5" cx="159.03" cy="361.31" r="3.41"/>
                <circle class="cls-21" cx="158.22" cy="359.75" r="1.15"/>
                <circle class="cls-17" cx="159.91" cy="360.83" r=".53"/>
              </g>
              <g>
                <circle class="cls-5" cx="147.65" cy="360.32" r="3.41"/>
                <circle class="cls-21" cx="146.41" cy="359.07" r="1.15"/>
                <circle class="cls-17" cx="148.35" cy="359.6" r=".53"/>
              </g>
              <g>
                <circle class="cls-5" cx="140.57" cy="359.07" r="3.41"/>
                <circle class="cls-21" cx="139.33" cy="357.82" r="1.15"/>
                <circle class="cls-17" cx="141.27" cy="358.35" r=".53"/>
              </g>
              <g>
                <circle class="cls-5" cx="153.14" cy="362.03" r="3.41"/>
                <circle class="cls-21" cx="151.9" cy="360.78" r="1.15"/>
                <circle class="cls-17" cx="153.84" cy="361.31" r=".53"/>
              </g>
              <g>
                <circle class="cls-5" cx="143.16" cy="363.78" r="3.41"/>
                <circle class="cls-21" cx="141.72" cy="362.75" r="1.15"/>
                <circle class="cls-17" cx="143.72" cy="362.95" r=".53"/>
              </g>
            </g>
            <g>
              <g>
                <circle class="cls-5" cx="123.85" cy="349.8" r="3.41"/>
                <circle class="cls-21" cx="122.61" cy="348.56" r="1.15"/>
                <circle class="cls-17" cx="124.55" cy="349.08" r=".53"/>
              </g>
              <g>
                <circle class="cls-5" cx="140.37" cy="356.28" r="3.41"/>
                <circle class="cls-21" cx="139.13" cy="355.03" r="1.15"/>
                <circle class="cls-17" cx="141.07" cy="355.56" r=".53"/>
              </g>
              <g>
                <circle class="cls-5" cx="140.37" cy="356.28" r="3.41"/>
                <circle class="cls-21" cx="139.13" cy="355.03" r="1.15"/>
                <circle class="cls-17" cx="141.07" cy="355.56" r=".53"/>
              </g>
              <g>
                <circle class="cls-5" cx="140.37" cy="356.28" r="3.41"/>
                <circle class="cls-21" cx="138.82" cy="355.45" r="1.15"/>
                <circle class="cls-17" cx="140.83" cy="355.39" r=".53"/>
              </g>
              <g>
                <circle class="cls-5" cx="145.86" cy="352.99" r="3.41"/>
                <circle class="cls-21" cx="144.95" cy="351.48" r="1.15"/>
                <circle class="cls-17" cx="146.71" cy="352.45" r=".53"/>
              </g>
              <g>
                <circle class="cls-5" cx="132.56" cy="356.21" r="3.41"/>
                <circle class="cls-21" cx="131.32" cy="354.96" r="1.15"/>
                <circle class="cls-17" cx="133.26" cy="355.49" r=".53"/>
              </g>
              <g>
                <circle class="cls-5" cx="135.72" cy="352.2" r="3.41"/>
                <circle class="cls-21" cx="134.48" cy="350.96" r="1.15"/>
                <circle class="cls-17" cx="136.42" cy="351.48" r=".53"/>
              </g>
              <g>
                <circle class="cls-5" cx="141.27" cy="352.01" r="3.41"/>
                <circle class="cls-21" cx="140.03" cy="350.76" r="1.15"/>
                <circle class="cls-17" cx="141.97" cy="351.29" r=".53"/>
              </g>
              <g>
                <circle class="cls-5" cx="128.4" cy="354" r="3.41"/>
                <circle class="cls-21" cx="127.16" cy="352.75" r="1.15"/>
                <circle class="cls-17" cx="129.1" cy="353.28" r=".53"/>
              </g>
              <g>
                <circle class="cls-5" cx="145.86" cy="347" r="3.41"/>
                <circle class="cls-21" cx="145.05" cy="345.44" r="1.15"/>
                <circle class="cls-17" cx="146.74" cy="346.52" r=".53"/>
              </g>
              <g>
                <circle class="cls-5" cx="134.48" cy="346.01" r="3.41"/>
                <circle class="cls-21" cx="133.24" cy="344.76" r="1.15"/>
                <circle class="cls-17" cx="135.18" cy="345.29" r=".53"/>
              </g>
              <g>
                <circle class="cls-5" cx="127.4" cy="344.76" r="3.41"/>
                <circle class="cls-21" cx="126.16" cy="343.51" r="1.15"/>
                <circle class="cls-17" cx="128.1" cy="344.04" r=".53"/>
              </g>
              <g>
                <circle class="cls-5" cx="139.97" cy="347.72" r="3.41"/>
                <circle class="cls-21" cx="138.73" cy="346.47" r="1.15"/>
                <circle class="cls-17" cx="140.67" cy="347" r=".53"/>
              </g>
              <g>
                <circle class="cls-5" cx="129.98" cy="349.47" r="3.41"/>
                <circle class="cls-21" cx="128.55" cy="348.44" r="1.15"/>
                <circle class="cls-17" cx="130.55" cy="348.64" r=".53"/>
              </g>
            </g>
            <g>
              <g>
                <circle class="cls-5" cx="149.5" cy="353.7" r="3.41"/>
                <circle class="cls-21" cx="148.01" cy="352.77" r="1.15"/>
                <circle class="cls-17" cx="150.02" cy="352.84" r=".53"/>
              </g>
              <g>
                <circle class="cls-5" cx="167.07" cy="356.2" r="3.41"/>
                <circle class="cls-21" cx="165.57" cy="355.27" r="1.15"/>
                <circle class="cls-17" cx="167.58" cy="355.34" r=".53"/>
              </g>
              <g>
                <circle class="cls-5" cx="167.07" cy="356.2" r="3.41"/>
                <circle class="cls-21" cx="165.57" cy="355.27" r="1.15"/>
                <circle class="cls-17" cx="167.58" cy="355.34" r=".53"/>
              </g>
              <g>
                <circle class="cls-5" cx="167.07" cy="356.2" r="3.41"/>
                <circle class="cls-21" cx="165.37" cy="355.75" r="1.15"/>
                <circle class="cls-17" cx="167.31" cy="355.23" r=".53"/>
              </g>
              <g>
                <circle class="cls-5" cx="171.65" cy="351.73" r="3.41"/>
                <circle class="cls-21" cx="170.42" cy="350.48" r="1.15"/>
                <circle class="cls-17" cx="172.35" cy="351.02" r=".53"/>
              </g>
              <g>
                <circle class="cls-5" cx="159.45" cy="357.92" r="3.41"/>
                <circle class="cls-21" cx="157.95" cy="356.99" r="1.15"/>
                <circle class="cls-17" cx="159.96" cy="357.06" r=".53"/>
              </g>
              <g>
                <circle class="cls-5" cx="161.6" cy="353.3" r="3.41"/>
                <circle class="cls-21" cx="160.11" cy="352.37" r="1.15"/>
                <circle class="cls-17" cx="162.12" cy="352.44" r=".53"/>
              </g>
              <g>
                <circle class="cls-5" cx="166.96" cy="351.84" r="3.41"/>
                <circle class="cls-21" cx="165.47" cy="350.91" r="1.15"/>
                <circle class="cls-17" cx="167.47" cy="350.98" r=".53"/>
              </g>
              <g>
                <circle class="cls-5" cx="154.89" cy="356.73" r="3.41"/>
                <circle class="cls-21" cx="153.4" cy="355.8" r="1.15"/>
                <circle class="cls-17" cx="155.41" cy="355.87" r=".53"/>
              </g>
              <g>
                <circle class="cls-5" cx="170.27" cy="345.91" r="3.41"/>
                <circle class="cls-21" cx="169.12" cy="344.57" r="1.15"/>
                <circle class="cls-17" cx="171.02" cy="345.24" r=".53"/>
              </g>
              <g>
                <circle class="cls-5" cx="158.97" cy="347.56" r="3.41"/>
                <circle class="cls-21" cx="157.48" cy="346.62" r="1.15"/>
                <circle class="cls-17" cx="159.49" cy="346.69" r=".53"/>
              </g>
              <g>
                <circle class="cls-5" cx="151.79" cy="347.97" r="3.41"/>
                <circle class="cls-21" cx="150.3" cy="347.04" r="1.15"/>
                <circle class="cls-17" cx="152.31" cy="347.11" r=".53"/>
              </g>
              <g>
                <circle class="cls-5" cx="164.71" cy="347.96" r="3.41"/>
                <circle class="cls-21" cx="163.21" cy="347.03" r="1.15"/>
                <circle class="cls-17" cx="165.22" cy="347.1" r=".53"/>
              </g>
              <g>
                <circle class="cls-5" cx="155.39" cy="351.96" r="3.41"/>
                <circle class="cls-21" cx="153.76" cy="351.29" r="1.15"/>
                <circle class="cls-17" cx="155.75" cy="351.02" r=".53"/>
              </g>
            </g>
            <g>
              <circle class="cls-5" cx="151.49" cy="358.35" r="3.41"/>
              <circle class="cls-21" cx="150.05" cy="357.33" r="1.15"/>
              <circle class="cls-17" cx="152.05" cy="357.52" r=".53"/>
            </g>
            <g>
              <circle class="cls-5" cx="143.34" cy="357.59" r="3.41"/>
              <circle class="cls-21" cx="141.91" cy="356.57" r="1.15"/>
              <circle class="cls-17" cx="143.91" cy="356.76" r=".53"/>
            </g>
            <g>
              <circle class="cls-5" cx="171.58" cy="355.88" r="3.41"/>
              <circle class="cls-21" cx="170.15" cy="354.85" r="1.15"/>
              <circle class="cls-17" cx="172.15" cy="355.05" r=".53"/>
            </g>
            <g>
              <circle class="cls-5" cx="124.95" cy="354.73" r="3.41"/>
              <circle class="cls-21" cx="123.52" cy="353.71" r="1.15"/>
              <circle class="cls-17" cx="125.52" cy="353.91" r=".53"/>
            </g>
          </g>
          <g>
            <circle class="cls-5" cx="138.88" cy="342.36" r="3.41"/>
            <circle class="cls-21" cx="137.45" cy="341.33" r="1.15"/>
            <circle class="cls-17" cx="139.45" cy="341.53" r=".53"/>
          </g>
          <g>
            <circle class="cls-5" cx="161.66" cy="342.6" r="3.41"/>
            <circle class="cls-21" cx="160.23" cy="341.57" r="1.15"/>
            <circle class="cls-17" cx="162.23" cy="341.77" r=".53"/>
          </g>
          <g>
            <circle class="cls-5" cx="150.55" cy="343.42" r="3.41"/>
            <circle class="cls-21" cx="149.11" cy="342.4" r="1.15"/>
            <circle class="cls-17" cx="151.11" cy="342.6" r=".53"/>
          </g>
          <g>
            <circle class="cls-5" cx="144.49" cy="341" r="3.41"/>
            <circle class="cls-21" cx="143.06" cy="339.98" r="1.15"/>
            <circle class="cls-17" cx="145.06" cy="340.17" r=".53"/>
          </g>
          <g>
            <circle class="cls-5" cx="156.33" cy="342.36" r="3.41"/>
            <circle class="cls-21" cx="154.9" cy="341.33" r="1.15"/>
            <circle class="cls-17" cx="156.9" cy="341.53" r=".53"/>
          </g>
          <g>
            <circle class="cls-5" cx="132.09" cy="341.53" r="3.41"/>
            <circle class="cls-21" cx="130.66" cy="340.51" r="1.15"/>
            <circle class="cls-17" cx="132.66" cy="340.7" r=".53"/>
          </g>
          <g>
            <circle class="cls-5" cx="167.47" cy="342.72" r="3.41"/>
            <circle class="cls-21" cx="166.04" cy="341.7" r="1.15"/>
            <circle class="cls-17" cx="168.04" cy="341.9" r=".53"/>
          </g>
        </g>
        <path class="cls-12" d="m107.29,372.35c10.42,2.76,24.5,5.4,41.25,5.49,17.89.1,32.84-2.72,43.67-5.62-7.49-23.07-14.98-46.14-22.47-69.2-4.78,1.55-11.24,3.11-18.99,3.48-10.5.5-19.1-1.39-24.76-3.12"/>
        <path class="cls-3" d="m107.29,372.35c10.42,2.76,24.5,5.4,41.25,5.49,17.89.1,32.84-2.72,43.67-5.62-7.49-23.07-14.98-46.14-22.47-69.2,3.69-14.38,7.39-28.76,11.08-43.14h-65.01c3.39,14.5,6.78,29,10.17,43.5l-18.69,68.98Z"/>
        <path class="cls-3" d="m126.3,303.02c5.37,1.56,13.05,3.16,22.36,3.09,8.69-.07,15.91-1.59,21.08-3.09"/>
        <path class="cls-3" d="m134.07,304.84c-2.49-14.99-4.98-29.98-7.47-44.97"/>
        <path class="cls-3" d="m163.46,304.56c2.49-14.89,4.99-29.79,7.48-44.68"/>
        <path class="cls-3" d="m148.66,306.11c-.06-15.41-.13-30.82-.19-46.23"/>
        <path class="cls-3" d="m142.69,305.92c-1.97-15.35-3.94-30.7-5.91-46.04"/>
        <path class="cls-3" d="m155.34,305.76c1.51-15.29,3.01-30.59,4.52-45.88"/>
        <path class="cls-3" d="m180.83,259.88c-8.94-1.53-19.63-2.71-31.69-2.76-12.76-.05-24,1.17-33.32,2.76"/>
      </g>
    </g>
    <g>
      <path class="cls-22" d="m159.51,204.71c1.35.46,4.43.73,11.85,0,.13.57.27,1.38.3,2.34.01.41,0,1.06-.13,2.07-.27,2.03-.67,2.43-.91,3.93-.33,2.11.1,3.56.05,3.56-.09,0-1.34-4.37-.22-6.47.14-.26.53-.94.36-1.65-.02-.08-.04-.14-.06-.19-.11-.24-.24-.39-.27-.42-.32-.36-.24-1.07-.67-1.54-.5-.55-1.39-.44-1.44-.43-.24.04-.71.11-.86.43-.2.43.42.77.65,1.72.19.81-.01,1.58-.14,2.08-.2.76-.31,1.16-.43,1.58-.72,2.53.33,5.36.34,5.41-1.13-2.02-1.29-3.61-1.21-4.72.09-1.26.52-2.18.09-3.63-.09-.32-.4-1.24-1.23-2.01-.38-.35-.8-.72-1.37-.72-.69,0-1.31.74-1.58,1.37-.43.97,0,1.58.21,3.35.04.33.22,2-.1,3.9-.3,1.8-.76,2.09-.77,3.59,0,1.4.33,2.44.34,2.44.02,0-.64-1.9-.52-4.44.09-1.8.48-2.01.43-3.86,0-.32-.12-1.21-.33-2.97-.04-.32-.09-.75-.29-1.29-.16-.45-.36-.99-.86-1.44-.24-.22-.76-.68-1.37-.57-.55.1-.87.62-.89.66-.47.8.15,1.59.39,3.8.03.24-.14.56.07,1.08.71,1.72-.56,6.68-.71,6.66-.12-.02.94-2.99,0-5.47-.2-.52-.77-1.78-.66-2.84.01-.14.06-.51,0-1.01-.07-.51-.18-.63-.29-1.08-.08-.35-.05-.84,0-1.8.07-1.24.14-1.35.22-1.44.49-.51,1.74-.06,2,.03Z"/>
      <g>
        <path class="cls-7" d="m162.03,149.56c.31-10.55-.73-27.78-9.46-46.18-3.38-7.13-7.26-13.03-10.93-17.79,0,0,0-.01,0-.01.02-.02,6.81,8.15,8.14,9.8,12.74,15.78,16.81,43.26,16.81,43.26h0c-.57-20.63.46-43.13,3.7-67.13.85-6.27,1.73-11.41,2.35-14.82-.87,31.45-1.74,62.89-2.6,94.34"/>
        <path class="cls-6" d="m160.6,140.32l.57,4.86c.12,1.02.2,2.21.15,3.54-.04,1.21-.17,2.31-.34,3.25-.01.22-.08.94-.66,1.56-.69.75-1.59.81-1.77.82-1.21.51-2.42,1.02-3.63,1.53l-4.47,1.76-4.87,2.54-4.3,3.21-2.68,3.39-1.86,3.05-1.11,4.14-.39,4.04.56,4.73c.25,1.35.65,2.89,1.28,4.56.37.98.77,1.87,1.17,2.66.38.82.77,1.63,1.15,2.45l2.34,3.17,1.68,1.77,2.48,2.29,2.55,1.79,3.28,1.71c1.08.45,2.56,1,4.36,1.46.93.24,4.92,1.22,10.29.95,4.18-.21,7.67-1.11,10.27-2.01l3.59-1.9,3.35-1.87,2.61-1.91,2.32-2.24,1.81-2.43,1.8-3.53,1.14-3.95.4-4.97c0-1.2-.11-2.84-.62-4.7-.45-1.62-1.07-2.93-1.62-3.89-.44-1.09-1.15-2.53-2.31-4.02-1.12-1.46-2.3-2.5-3.22-3.2-.94-.74-2.07-1.62-3.38-2.56-2.87-2.07-4.29-3.13-4.69-3.37-2.8-1.73-3.63-1.66-4.74-2.98-1.07-1.26-1.46-2.7-1.63-3.75-.57-1.87-1.16-4.75-.69-8.17.17-1.2.44-2.28.74-3.2-.18.03-.37.06-.55.09-.57.9-1.29,1.9-2.17,2.93-1.11,1.29-2.22,2.31-3.2,3.1-.13-1.49-.27-2.98-.4-4.46-.65.68-1.3,1.37-1.95,2.05-.02-.54-.17-2.16-1.42-3.42-.41-.41-.84-.68-1.2-.87Z"/>
      </g>
      <g>
        <path class="cls-15" d="m156.55,204.44c-.25.21-18.62-11.75-16.38-27.95,2.11-15.3,20.89-22.01,20.99-21.87.1.14-17.44,7.58-19.49,21.32-2.23,14.91,15.14,28.3,14.88,28.51Z"/>
        <path class="cls-15" d="m159.55,205.25c-.36.18-17.16-18.62-10.45-35.51,3.78-9.52,13.45-14.44,13.63-14.24.17.19-8.17,4.88-11.66,13.57-6.62,16.49,8.84,36,8.48,36.18Z"/>
        <path class="cls-15" d="m162.49,204.72c-.5.15-13.01-21.6-4.5-38.86,2.19-4.45,6.29-9.63,6.51-9.5.2.12-2.67,4.69-4.03,7.37-9,17.67,2.54,40.84,2.03,40.99Z"/>
        <path class="cls-15" d="m165.36,204.96c-.31.02-1.88-11.39-1.45-25.54.4-13.1,2.36-23.76,2.65-23.73.26.03-.85,8.52-1.29,22.33-.52,16.59.39,26.93.09,26.94Z"/>
        <path class="cls-15" d="m166.89,204.88c-.33-.13,3.75-7.59,5.12-18.31,2.23-17.5-4.41-30.62-3.91-30.77.49-.15,7.92,12.59,6.19,28.55-1.28,11.76-7.03,20.67-7.39,20.53Z"/>
        <path class="cls-15" d="m169.19,204.96c-.28-.2,7.66-7.4,9.7-18.44,3.12-16.88-9.65-31.41-9.39-31.55.26-.14,14.5,15.14,10.86,32.24-2.31,10.87-10.88,17.96-11.16,17.75Z"/>
        <path class="cls-15" d="m172.98,204.39c-.1-.09,11-7.44,12.32-19.43.13-1.22,1.15-10.42-3.79-16.73-.94-1.2-2.53-2.85-5.09-6.34-2.25-3.06-4.05-5.93-3.93-6.02.13-.09,2.13,2.76,5.89,6.97,1.73,1.94,2.69,2.88,3.23,3.47,3.84,4.2,5.67,11.52,5.34,17.13-.79,13.21-13.86,21.05-13.97,20.95Z"/>
      </g>
    </g>
    <path class="cls-16" d="m253.72,421.13c27.04-4.34,54.62-5.2,81.87-2.55,7,.68,13.97,1.6,20.91,2.74.79.13,1.13-1.08.33-1.21-27.27-4.48-55.08-5.46-82.59-2.85-6.98.66-13.94,1.56-20.86,2.67-.79.13-.46,1.33.33,1.21h0Z"/>
    <g>
      <g>
        <path class="cls-20" d="m279.05,393.57c13.75,11.17,33.58,10.99,46.93-.26,13.74-11.59,17.01-31.9,7.44-47.45,10.85,15.01,8.85,35.76-4.22,48.07-13.74,12.94-35.95,13-50.15-.36Z"/>
        <circle class="cls-1" cx="302.45" cy="365.3" r="34.57"/>
        <g>
          <circle class="cls-4" cx="302.36" cy="365.3" r="33.42"/>
          <circle class="cls-4" cx="302.36" cy="365.3" r="36.64"/>
        </g>
        <path class="cls-20" d="m269.05,368.02c-1.13-14.21,6.73-27.64,19.51-33.43,13.43-6.09,29.55-2.52,39.37,8.83-10.07-9.66-24.99-12.4-37.77-6.93-12.61,5.39-20.91,17.78-21.1,31.54Z"/>
      </g>
      <g>
        <path class="cls-20" d="m280.81,389.43c12.24,9.95,29.9,9.79,41.78-.23,12.24-10.32,15.15-28.41,6.63-42.25,9.66,13.36,7.88,31.84-3.76,42.8-12.24,11.52-32.01,11.58-44.65-.32Z"/>
        <circle class="cls-1" cx="301.65" cy="364.26" r="30.77"/>
        <g>
          <circle class="cls-4" cx="301.56" cy="364.26" r="29.75"/>
          <circle class="cls-4" cx="301.56" cy="364.26" r="32.62"/>
        </g>
        <path class="cls-20" d="m271.91,366.68c-1.01-12.66,5.99-24.6,17.37-29.77,11.96-5.42,26.31-2.25,35.05,7.86-8.97-8.6-22.25-11.04-33.63-6.17-11.22,4.79-18.61,15.83-18.79,28.08Z"/>
      </g>
      <g>
        <path class="cls-20" d="m282.64,386.07c10.88,8.84,26.58,8.7,37.13-.21,10.88-9.17,13.46-25.25,5.89-37.55,8.59,11.88,7.01,28.3-3.34,38.04-10.88,10.24-28.45,10.29-39.68-.28Z"/>
        <circle class="cls-1" cx="301.16" cy="363.7" r="27.35"/>
        <g>
          <circle class="cls-4" cx="301.09" cy="363.7" r="26.44"/>
          <circle class="cls-4" cx="301.09" cy="363.7" r="28.99"/>
        </g>
        <path class="cls-20" d="m274.73,365.85c-.9-11.25,5.32-21.87,15.44-26.46,10.63-4.82,23.38-2,31.15,6.99-7.97-7.64-19.77-9.81-29.89-5.49-9.98,4.26-16.54,14.07-16.7,24.95Z"/>
      </g>
      <g>
        <path class="cls-20" d="m315.31,389.01c8.64,7.02,21.11,6.91,29.49-.16,8.64-7.28,10.69-20.05,4.68-29.82,6.82,9.43,5.56,22.47-2.65,30.21-8.64,8.13-22.6,8.17-31.52-.22Z"/>
        <circle class="cls-1" cx="330.02" cy="371.24" r="21.72"/>
        <g>
          <circle class="cls-4" cx="329.96" cy="371.24" r="21"/>
          <circle class="cls-4" cx="329.96" cy="371.24" r="23.03"/>
        </g>
        <path class="cls-20" d="m309.03,372.94c-.71-8.93,4.23-17.37,12.26-21.01,8.44-3.83,18.57-1.59,24.74,5.55-6.33-6.07-15.7-7.79-23.74-4.36-7.92,3.38-13.14,11.18-13.26,19.82Z"/>
      </g>
      <g>
        <path class="cls-20" d="m310.35,388.48c8.64,7.02,21.11,6.91,29.49-.16,8.64-7.28,10.69-20.05,4.68-29.82,6.82,9.43,5.56,22.47-2.65,30.21-8.64,8.13-22.6,8.17-31.52-.22Z"/>
        <circle class="cls-1" cx="325.05" cy="370.71" r="21.72"/>
        <g>
          <circle class="cls-4" cx="325" cy="370.71" r="21"/>
          <circle class="cls-4" cx="325" cy="370.71" r="23.03"/>
        </g>
        <path class="cls-20" d="m304.06,372.42c-.71-8.93,4.23-17.37,12.26-21.01,8.44-3.83,18.57-1.59,24.74,5.55-6.33-6.07-15.7-7.79-23.74-4.36-7.92,3.38-13.14,11.18-13.26,19.82Z"/>
      </g>
      <g>
        <path class="cls-20" d="m312.38,345.6c-17.62-1.84-34.13,9.15-39.16,25.86-5.18,17.22,3.19,36.02,19.7,43.81-17.29-6.64-26.95-25.11-22.73-42.56,4.44-18.35,23-30.53,42.19-27.1Z"/>
        <circle class="cls-1" cx="308.23" cy="382.07" r="34.57"/>
        <g>
          <circle class="cls-4" cx="308.31" cy="382.02" r="33.42"/>
          <circle class="cls-4" cx="308.31" cy="382.02" r="36.64"/>
        </g>
        <path class="cls-20" d="m334.72,361.54c8.72,11.29,9.47,26.82,1.93,38.66-7.92,12.44-23.37,18.26-37.8,14.12,13.71,2.59,27.7-3.27,35.42-14.84,7.62-11.4,7.79-26.32.44-37.94Z"/>
      </g>
      <g>
        <path class="cls-20" d="m313.17,350.03c-15.69-1.64-30.39,8.14-34.86,23.02-4.61,15.33,2.84,32.07,17.54,39-15.39-5.91-24-22.36-20.24-37.9,3.95-16.34,20.48-27.19,37.57-24.13Z"/>
        <circle class="cls-1" cx="309.48" cy="382.5" r="30.77"/>
        <g>
          <circle class="cls-4" cx="309.55" cy="382.45" r="29.75"/>
          <circle class="cls-4" cx="309.55" cy="382.45" r="32.62"/>
        </g>
        <path class="cls-20" d="m333.06,364.23c7.76,10.05,8.43,23.88,1.72,34.42-7.05,11.08-20.81,16.26-33.65,12.57,12.21,2.3,24.66-2.91,31.54-13.21,6.78-10.15,6.94-23.43.39-33.78Z"/>
      </g>
      <g>
        <path class="cls-20" d="m313.47,353.85c-13.94-1.46-27.01,7.24-30.99,20.46-4.1,13.62,2.52,28.5,15.59,34.67-13.68-5.25-21.33-19.87-17.99-33.68,3.51-14.52,18.2-24.16,33.39-21.45Z"/>
        <circle class="cls-1" cx="310.19" cy="382.7" r="27.35"/>
        <g>
          <circle class="cls-4" cx="310.25" cy="382.66" r="26.44"/>
          <circle class="cls-4" cx="310.25" cy="382.66" r="28.99"/>
        </g>
        <path class="cls-20" d="m331.15,366.46c6.9,8.93,7.49,21.22,1.53,30.59-6.27,9.85-18.49,14.45-29.91,11.17,10.85,2.05,21.92-2.59,28.03-11.74,6.03-9.02,6.17-20.82.35-30.03Z"/>
      </g>
      <g>
        <path class="cls-20" d="m284.51,369.24c-11.07-1.16-21.45,5.75-24.61,16.25-3.25,10.82,2,22.64,12.38,27.53-10.87-4.17-16.94-15.78-14.29-26.75,2.79-11.53,14.46-19.19,26.52-17.04Z"/>
        <circle class="cls-1" cx="281.9" cy="392.16" r="21.72"/>
        <g>
          <circle class="cls-4" cx="281.95" cy="392.13" r="21"/>
          <circle class="cls-4" cx="281.95" cy="392.13" r="23.03"/>
        </g>
        <path class="cls-20" d="m298.55,379.26c5.48,7.09,5.95,16.86,1.21,24.3-4.98,7.82-14.69,11.48-23.76,8.87,8.62,1.63,17.41-2.06,22.26-9.32,4.79-7.16,4.9-16.54.28-23.85Z"/>
      </g>
      <g>
        <path class="cls-20" d="m288.96,366.97c-11.07-1.16-21.45,5.75-24.61,16.25-3.25,10.82,2,22.64,12.38,27.53-10.87-4.17-16.94-15.78-14.29-26.75,2.79-11.53,14.46-19.19,26.52-17.04Z"/>
        <circle class="cls-1" cx="286.35" cy="389.89" r="21.72"/>
        <g>
          <circle class="cls-4" cx="286.4" cy="389.85" r="21"/>
          <circle class="cls-4" cx="286.4" cy="389.85" r="23.03"/>
        </g>
        <path class="cls-20" d="m303,376.99c5.48,7.09,5.95,16.86,1.21,24.3-4.98,7.82-14.69,11.48-23.76,8.87,8.62,1.63,17.41-2.06,22.26-9.32,4.79-7.16,4.9-16.54.28-23.85Z"/>
      </g>
      <g>
        <path class="cls-20" d="m332.39,352.17c4.78-17.06-3.27-35.19-18.9-42.95-16.1-8-36.04-2.92-46.5,12.04,9.46-15.92,29.29-22.34,45.78-15.24,17.34,7.46,26.23,27.82,19.61,46.16Z"/>
        <circle class="cls-1" cx="297.15" cy="341.94" r="34.57"/>
        <g>
          <circle class="cls-4" cx="297.18" cy="342.03" r="33.42"/>
          <circle class="cls-4" cx="297.18" cy="342.03" r="36.64"/>
        </g>
        <path class="cls-20" d="m312.92,371.51c-12.59,6.69-28.03,4.81-38.43-4.61-10.93-9.9-14.07-26.11-7.55-39.63-4.86,13.08-1.44,27.85,8.66,37.42,9.95,9.43,24.63,12.11,37.33,6.83Z"/>
      </g>
      <g>
        <path class="cls-20" d="m327.89,352.21c4.26-15.19-2.91-31.33-16.82-38.24-14.33-7.12-32.09-2.6-41.4,10.72,8.42-14.18,26.08-19.89,40.76-13.57,15.44,6.65,23.35,24.76,17.46,41.09Z"/>
        <circle class="cls-1" cx="296.51" cy="343.1" r="30.77"/>
        <g>
          <circle class="cls-4" cx="296.54" cy="343.17" r="29.75"/>
          <circle class="cls-4" cx="296.54" cy="343.17" r="32.62"/>
        </g>
        <path class="cls-20" d="m310.55,369.42c-11.21,5.96-24.96,4.29-34.22-4.1-9.73-8.81-12.52-23.25-6.72-35.29-4.33,11.65-1.28,24.8,7.71,33.31,8.86,8.39,21.93,10.78,33.23,6.08Z"/>
      </g>
      <g>
        <path class="cls-20" d="m324.08,351.86c3.79-13.5-2.59-27.84-14.95-33.99-12.74-6.33-28.52-2.31-36.8,9.53,7.48-12.6,23.18-17.68,36.23-12.06,13.72,5.91,20.75,22.01,15.52,36.52Z"/>
        <circle class="cls-1" cx="296.19" cy="343.76" r="27.35"/>
        <g>
          <circle class="cls-4" cx="296.22" cy="343.83" r="26.44"/>
          <circle class="cls-4" cx="296.22" cy="343.83" r="28.99"/>
        </g>
        <path class="cls-20" d="m308.67,367.16c-9.96,5.3-22.18,3.81-30.41-3.64-8.65-7.83-11.13-20.66-5.98-31.36-3.85,10.35-1.14,22.04,6.85,29.61,7.88,7.46,19.49,9.58,29.54,5.4Z"/>
      </g>
      <g>
        <path class="cls-20" d="m313.78,320.72c3.01-10.72-2.05-22.12-11.88-27-10.12-5.03-22.65-1.84-29.23,7.57,5.94-10.01,18.41-14.04,28.78-9.58,10.9,4.69,16.48,17.48,12.33,29.01Z"/>
        <circle class="cls-1" cx="291.63" cy="314.29" r="21.72"/>
        <g>
          <circle class="cls-4" cx="291.66" cy="314.34" r="21"/>
          <circle class="cls-4" cx="291.66" cy="314.34" r="23.03"/>
        </g>
        <path class="cls-20" d="m301.54,332.87c-7.91,4.21-17.62,3.03-24.16-2.9-6.87-6.22-8.84-16.41-4.75-24.91-3.05,8.22-.9,17.51,5.44,23.52,6.26,5.92,15.48,7.61,23.46,4.29Z"/>
      </g>
      <g>
        <path class="cls-20" d="m315.28,325.48c3.01-10.72-2.05-22.12-11.88-27-10.12-5.03-22.65-1.84-29.23,7.57,5.94-10.01,18.41-14.04,28.78-9.58,10.9,4.69,16.48,17.48,12.33,29.01Z"/>
        <circle class="cls-1" cx="293.13" cy="319.05" r="21.72"/>
        <g>
          <circle class="cls-4" cx="293.15" cy="319.11" r="21"/>
          <circle class="cls-4" cx="293.15" cy="319.11" r="23.03"/>
        </g>
        <path class="cls-20" d="m303.04,337.64c-7.91,4.21-17.62,3.03-24.16-2.9-6.87-6.22-8.84-16.41-4.75-24.91-3.05,8.22-.9,17.51,5.44,23.52,6.26,5.92,15.48,7.61,23.46,4.29Z"/>
      </g>
      <g>
        <path class="cls-20" d="m327.47,297.79c-12.88-10.12-31.21-9.66-43.38.94-12.53,10.92-15.25,29.75-6.17,43.98-10.26-13.71-8.72-32.92,3.18-44.5,12.51-12.17,33.04-12.56,46.37-.42Z"/>
        <circle class="cls-1" cx="306.26" cy="324.28" r="31.96"/>
        <g>
          <circle class="cls-4" cx="306.35" cy="324.28" r="30.9"/>
          <circle class="cls-4" cx="306.35" cy="324.28" r="33.88"/>
        </g>
        <path class="cls-20" d="m337.1,321.27c1.26,13.12-5.81,25.65-17.53,31.2-12.32,5.83-27.28,2.78-36.53-7.57,9.45,8.78,23.28,11.08,35.02,5.84,11.57-5.17,19.06-16.75,19.04-29.47Z"/>
      </g>
      <g>
        <path class="cls-20" d="m325.91,301.65c-11.47-9.01-27.79-8.6-38.62.84-11.16,9.72-13.58,26.49-5.49,39.16-9.13-12.21-7.76-29.31,2.83-39.62,11.14-10.84,29.41-11.18,41.28-.38Z"/>
        <circle class="cls-1" cx="307.03" cy="325.23" r="28.45"/>
        <g>
          <circle class="cls-4" cx="307.1" cy="325.23" r="27.51"/>
          <circle class="cls-4" cx="307.1" cy="325.23" r="30.16"/>
        </g>
        <path class="cls-20" d="m334.48,322.55c1.12,11.68-5.17,22.84-15.61,27.78-10.97,5.19-24.29,2.47-32.52-6.74,8.42,7.82,20.73,9.87,31.18,5.2,10.3-4.6,16.97-14.91,16.95-26.24Z"/>
      </g>
      <g>
        <path class="cls-20" d="m324.27,304.78c-10.19-8.01-24.7-7.64-34.32.75-9.92,8.64-12.07,23.54-4.88,34.8-8.12-10.85-6.9-26.05,2.52-35.21,9.9-9.63,26.14-9.94,36.69-.33Z"/>
        <circle class="cls-1" cx="307.48" cy="325.74" r="25.29"/>
        <g>
          <circle class="cls-4" cx="307.55" cy="325.74" r="24.45"/>
          <circle class="cls-4" cx="307.55" cy="325.74" r="26.81"/>
        </g>
        <path class="cls-20" d="m331.89,323.36c1,10.38-4.59,20.3-13.87,24.69-9.75,4.62-21.59,2.2-28.9-5.99,7.48,6.95,18.43,8.77,27.71,4.62,9.16-4.09,15.08-13.26,15.06-23.32Z"/>
      </g>
      <g>
        <path class="cls-20" d="m294.02,302.56c-8.09-6.36-19.62-6.07-27.26.59-7.88,6.86-9.58,18.7-3.88,27.64-6.45-8.62-5.48-20.69,2-27.97,7.86-7.65,20.77-7.89,29.14-.27Z"/>
        <circle class="cls-1" cx="280.69" cy="319.2" r="20.09"/>
        <g>
          <circle class="cls-4" cx="280.74" cy="319.2" r="19.42"/>
          <circle class="cls-4" cx="280.74" cy="319.2" r="21.29"/>
        </g>
        <path class="cls-20" d="m300.07,317.31c.79,8.25-3.65,16.12-11.02,19.61-7.75,3.67-17.15,1.74-22.96-4.76,5.94,5.52,14.63,6.97,22.01,3.67,7.27-3.25,11.98-10.53,11.97-18.52Z"/>
      </g>
      <g>
        <path class="cls-20" d="m298.62,302.97c-8.09-6.36-19.62-6.07-27.26.59-7.88,6.86-9.58,18.7-3.88,27.64-6.45-8.62-5.48-20.69,2-27.97,7.86-7.65,20.77-7.89,29.14-.27Z"/>
        <circle class="cls-1" cx="285.29" cy="319.61" r="20.09"/>
        <g>
          <circle class="cls-4" cx="285.34" cy="319.61" r="19.42"/>
          <circle class="cls-4" cx="285.34" cy="319.61" r="21.29"/>
        </g>
        <path class="cls-20" d="m304.67,317.72c.79,8.25-3.65,16.12-11.02,19.61-7.75,3.67-17.15,1.74-22.96-4.76,5.94,5.52,14.63,6.97,22.01,3.67,7.27-3.25,11.98-10.53,11.97-18.52Z"/>
      </g>
      <g>
        <path class="cls-20" d="m297.38,342.64c16.32,1.44,31.42-8.97,35.81-24.49,4.53-15.99-3.49-33.25-18.87-40.2,16.08,5.88,25.29,22.81,21.65,39.01-3.83,17.03-20.81,28.57-38.6,25.69Z"/>
        <circle class="cls-1" cx="300.67" cy="308.87" r="31.96"/>
        <g>
          <circle class="cls-4" cx="300.6" cy="308.91" r="30.9"/>
          <circle class="cls-4" cx="300.6" cy="308.91" r="33.88"/>
        </g>
        <path class="cls-20" d="m276.49,328.24c-8.23-10.3-9.15-24.65-2.37-35.71,7.13-11.62,21.33-17.23,34.73-13.62-12.72-2.19-25.56,3.44-32.53,14.25-6.87,10.65-6.81,24.44.16,35.08Z"/>
      </g>
      <g>
        <path class="cls-20" d="m296.58,338.55c14.53,1.28,27.97-7.98,31.88-21.81,4.03-14.24-3.1-29.6-16.8-35.79,14.32,5.23,22.52,20.31,19.28,34.73-3.41,15.16-18.52,25.44-34.37,22.87Z"/>
        <circle class="cls-1" cx="299.51" cy="308.49" r="28.45"/>
        <g>
          <circle class="cls-4" cx="299.45" cy="308.53" r="27.51"/>
          <circle class="cls-4" cx="299.45" cy="308.53" r="30.16"/>
        </g>
        <path class="cls-20" d="m277.98,325.73c-7.32-9.17-8.15-21.95-2.11-31.79,6.35-10.35,18.99-15.34,30.92-12.13-11.32-1.95-22.75,3.06-28.96,12.68-6.12,9.48-6.06,21.76.14,31.24Z"/>
      </g>
      <g>
        <path class="cls-20" d="m296.25,335.03c12.91,1.14,24.86-7.1,28.34-19.38,3.58-12.66-2.76-26.31-14.93-31.81,12.73,4.65,20.02,18.05,17.14,30.87-3.03,13.48-16.46,22.61-30.54,20.33Z"/>
        <circle class="cls-1" cx="298.85" cy="308.31" r="25.29"/>
        <g>
          <circle class="cls-4" cx="298.8" cy="308.35" r="24.45"/>
          <circle class="cls-4" cx="298.8" cy="308.35" r="26.81"/>
        </g>
        <path class="cls-20" d="m279.72,323.64c-6.51-8.15-7.24-19.51-1.87-28.26,5.64-9.2,16.88-13.64,27.48-10.78-10.06-1.73-20.22,2.72-25.74,11.27-5.44,8.43-5.39,19.34.13,27.76Z"/>
      </g>
      <g>
        <path class="cls-20" d="m322.79,320.37c10.25.9,19.75-5.64,22.51-15.39,2.85-10.05-2.19-20.9-11.86-25.27,10.11,3.69,15.9,14.34,13.61,24.52-2.41,10.7-13.08,17.96-24.26,16.15Z"/>
        <circle class="cls-1" cx="324.86" cy="299.14" r="20.09"/>
        <g>
          <circle class="cls-4" cx="324.82" cy="299.17" r="19.42"/>
          <circle class="cls-4" cx="324.82" cy="299.17" r="21.29"/>
        </g>
        <path class="cls-20" d="m309.66,311.32c-5.17-6.48-5.75-15.5-1.49-22.44,4.48-7.3,13.41-10.83,21.83-8.56-7.99-1.37-16.06,2.16-20.44,8.95-4.32,6.7-4.28,15.36.1,22.05Z"/>
      </g>
      <g>
        <path class="cls-20" d="m318.72,322.54c10.25.9,19.75-5.64,22.51-15.39,2.85-10.05-2.19-20.9-11.86-25.27,10.11,3.69,15.9,14.34,13.61,24.52-2.41,10.7-13.08,17.96-24.26,16.15Z"/>
        <circle class="cls-1" cx="320.79" cy="301.31" r="20.09"/>
        <g>
          <circle class="cls-4" cx="320.74" cy="301.34" r="19.42"/>
          <circle class="cls-4" cx="320.74" cy="301.34" r="21.29"/>
        </g>
        <path class="cls-20" d="m305.59,313.49c-5.17-6.48-5.75-15.5-1.49-22.44,4.48-7.3,13.41-10.83,21.83-8.56-7.99-1.37-16.06,2.16-20.44,8.95-4.32,6.7-4.28,15.36.1,22.05Z"/>
      </g>
      <g>
        <path class="cls-20" d="m278.78,336.86c-4.17,15.84,3.55,32.48,18.11,39.43,15,7.16,33.36,2.16,42.81-11.83-8.5,14.86-26.74,21.09-42.1,14.78-16.14-6.64-24.66-25.32-18.82-42.37Z"/>
        <circle class="cls-1" cx="311.52" cy="345.79" r="31.96"/>
        <g>
          <circle class="cls-4" cx="311.48" cy="345.72" r="30.9"/>
          <circle class="cls-4" cx="311.48" cy="345.72" r="33.88"/>
        </g>
        <path class="cls-20" d="m296.5,318.69c11.54-6.38,25.84-4.87,35.6,3.68,10.25,8.99,13.39,23.93,7.58,36.53,4.3-12.17.91-25.77-8.57-34.46-9.34-8.57-22.95-10.83-34.61-5.75Z"/>
      </g>
      <g>
        <path class="cls-20" d="m282.95,336.76c-3.71,14.1,3.16,28.92,16.13,35.1,13.36,6.37,29.7,1.92,38.11-10.53-7.57,13.23-23.81,18.78-37.48,13.16-14.37-5.91-21.96-22.54-16.76-37.73Z"/>
        <circle class="cls-1" cx="312.09" cy="344.72" r="28.45"/>
        <g>
          <circle class="cls-4" cx="312.06" cy="344.65" r="27.51"/>
          <circle class="cls-4" cx="312.06" cy="344.65" r="30.16"/>
        </g>
        <path class="cls-20" d="m298.72,320.59c10.27-5.68,23.01-4.34,31.69,3.28,9.13,8,11.93,21.3,6.75,32.52,3.83-10.83.81-22.94-7.63-30.68-8.32-7.63-20.43-9.64-30.81-5.12Z"/>
      </g>
      <g>
        <path class="cls-20" d="m286.47,337.03c-3.3,12.53,2.81,25.7,14.33,31.2,11.87,5.66,26.4,1.71,33.87-9.36-6.73,11.76-21.16,16.69-33.31,11.69-12.77-5.25-19.51-20.04-14.89-33.53Z"/>
        <circle class="cls-1" cx="312.38" cy="344.09" r="25.29"/>
        <g>
          <circle class="cls-4" cx="312.35" cy="344.03" r="24.45"/>
          <circle class="cls-4" cx="312.35" cy="344.03" r="26.81"/>
        </g>
        <path class="cls-20" d="m300.49,322.65c9.13-5.04,20.45-3.85,28.17,2.91,8.11,7.11,10.6,18.93,6,28.9,3.4-9.63.72-20.39-6.78-27.27-7.39-6.78-18.16-8.57-27.39-4.55Z"/>
      </g>
      <g>
        <path class="cls-20" d="m296.46,365.66c-2.62,9.96,2.23,20.41,11.39,24.78,9.43,4.5,20.97,1.36,26.9-7.43-5.34,9.34-16.81,13.26-26.46,9.29-10.15-4.17-15.5-15.91-11.83-26.63Z"/>
        <circle class="cls-1" cx="317.03" cy="371.28" r="20.09"/>
        <g>
          <circle class="cls-4" cx="317.01" cy="371.23" r="19.42"/>
          <circle class="cls-4" cx="317.01" cy="371.23" r="21.29"/>
        </g>
        <path class="cls-20" d="m307.59,354.24c7.25-4.01,16.24-3.06,22.37,2.31,6.44,5.65,8.42,15.04,4.76,22.96,2.7-7.65.57-16.2-5.38-21.66-5.87-5.38-14.42-6.8-21.75-3.61Z"/>
      </g>
      <g>
        <path class="cls-20" d="m295.01,361.28c-2.62,9.96,2.23,20.41,11.39,24.78,9.43,4.5,20.97,1.36,26.9-7.43-5.34,9.34-16.81,13.26-26.46,9.29-10.15-4.17-15.5-15.91-11.83-26.63Z"/>
        <circle class="cls-1" cx="315.58" cy="366.89" r="20.09"/>
        <g>
          <circle class="cls-4" cx="315.56" cy="366.84" r="19.42"/>
          <circle class="cls-4" cx="315.56" cy="366.84" r="21.29"/>
        </g>
        <path class="cls-20" d="m306.14,349.86c7.25-4.01,16.24-3.06,22.37,2.31,6.44,5.65,8.42,15.04,4.76,22.96,2.7-7.65.57-16.2-5.38-21.66-5.87-5.38-14.42-6.8-21.75-3.61Z"/>
      </g>
    </g>
    <g>
      <g>
        <circle class="cls-5" cx="276.94" cy="303.29" r="3.41"/>
        <circle class="cls-21" cx="275.51" cy="302.26" r="1.15"/>
        <circle class="cls-17" cx="277.51" cy="302.46" r=".53"/>
      </g>
      <g>
        <circle class="cls-5" cx="308.32" cy="309.55" r="3.41"/>
        <circle class="cls-21" cx="306.89" cy="308.52" r="1.15"/>
        <circle class="cls-17" cx="308.89" cy="308.72" r=".53"/>
      </g>
      <g>
        <circle class="cls-5" cx="337.25" cy="299.17" r="3.41"/>
        <circle class="cls-21" cx="335.82" cy="298.15" r="1.15"/>
        <circle class="cls-17" cx="337.82" cy="298.34" r=".53"/>
      </g>
      <g>
        <circle class="cls-5" cx="266.26" cy="317.92" r="3.41"/>
        <circle class="cls-21" cx="264.83" cy="316.9" r="1.15"/>
        <circle class="cls-17" cx="266.83" cy="317.09" r=".53"/>
      </g>
      <g>
        <circle class="cls-5" cx="333.3" cy="315.75" r="3.41"/>
        <circle class="cls-21" cx="331.86" cy="314.72" r="1.15"/>
        <circle class="cls-17" cx="333.86" cy="314.92" r=".53"/>
      </g>
      <g>
        <circle class="cls-5" cx="343.48" cy="332.16" r="3.41"/>
        <circle class="cls-21" cx="342.04" cy="331.13" r="1.15"/>
        <circle class="cls-17" cx="344.04" cy="331.33" r=".53"/>
      </g>
      <g>
        <circle class="cls-5" cx="291.66" cy="328.75" r="3.41"/>
        <circle class="cls-21" cx="290.22" cy="327.72" r="1.15"/>
        <circle class="cls-17" cx="292.22" cy="327.92" r=".53"/>
      </g>
    </g>
    <g class="cls-23">
      <path class="cls-16" d="m253.38,421.13c11.22,3.79,22.83,6.39,34.6,7.69,15.73,1.74,31.69,1.12,47.23-1.83,7.49-1.42,14.87-3.39,22.08-5.86.76-.26.43-1.47-.33-1.21-13.86,4.74-28.34,7.61-42.97,8.39s-28.89-.45-42.97-3.56c-5.85-1.29-11.63-2.92-17.31-4.84-.76-.26-1.09.95-.33,1.21h0Z"/>
      <path class="cls-16" d="m251.66,293.46c.33,33.05.66,66.11.99,99.16.09,9.3.19,18.6.28,27.91,0,.8,1.26.81,1.25,0-.33-33.05-.66-66.11-.99-99.16-.09-9.3-.19-18.6-.28-27.91,0-.8-1.26-.81-1.25,0h0Z"/>
      <path class="cls-16" d="m356.03,290.6c.06,16.91.12,33.82.19,50.72.06,16.82.12,33.65.19,50.47.04,9.58.07,19.16.11,28.74,0,.8,1.25.81,1.25,0-.06-16.91-.12-33.82-.19-50.72-.06-16.82-.12-33.65-.19-50.47-.04-9.58-.07-19.16-.11-28.74,0-.8-1.25-.81-1.25,0h0Z"/>
      <path class="cls-16" d="m266.22,251.96c0,4.68-.01,9.37-.02,14.05,0,.8,1.25.81,1.25,0,0-4.68.01-9.37.02-14.05,0-.8-1.25-.81-1.25,0h0Z"/>
      <path class="cls-16" d="m267.17,267.56c18.43,5.1,37.86,6.64,56.82,4.05,6.51-.89,12.94-2.26,19.26-4.05.77-.22.44-1.43-.33-1.21-19.2,5.46-39.29,6.63-59.01,3.55-5.53-.87-11.01-2.05-16.4-3.55-.78-.21-1.11.99-.33,1.21h0Z"/>
      <path class="cls-16" d="m266.68,252.56c20.26,4.06,41.14,4.74,61.62,1.94,5.02-.69,10-1.58,14.95-2.67.79-.17.45-1.38-.33-1.21-19.79,4.37-40.25,5.45-60.39,3.17-5.2-.59-10.38-1.41-15.51-2.44-.79-.16-1.12,1.05-.33,1.21h0Z"/>
      <path class="cls-16" d="m342.45,251.23v15.73c0,.8,1.25.81,1.25,0v-15.73c0-.8-1.25-.81-1.25,0h0Z"/>
      <path class="cls-16" d="m266.23,265.85c-.98,5.45-3.39,9.91-7.2,13.91-1.69,1.78-3.36,3.55-4.6,5.68-1.41,2.42-2.31,5.11-2.75,7.86-.13.79,1.08,1.13,1.21.33.46-2.86,1.4-5.63,2.94-8.09,1.4-2.23,3.31-4.01,5.07-5.95,3.47-3.82,5.62-8.34,6.54-13.41.14-.79-1.06-1.12-1.21-.33h0Z"/>
      <path class="cls-16" d="m267.01,252.56c9.66-2.82,19.64-4.54,29.7-4.96,9.2-.38,18.52.28,27.67,1.31,6.22.7,12.4,1.69,18.53,2.91.79.16,1.12-1.05.33-1.21-9.88-1.97-19.88-3.31-29.93-3.92-9.51-.58-18.94-.58-28.4.73-6.17.86-12.26,2.19-18.23,3.93-.77.22-.44,1.43.33,1.21h0Z"/>
      <path class="cls-16" d="m342.47,267.12c.94,4.87,3.39,9.09,6.91,12.55,1.48,1.45,3.07,2.79,4.2,4.55,1.27,1.99,2,4.24,2.46,6.54.16.79,1.36.45,1.21-.33-.44-2.18-1.13-4.32-2.24-6.26-1.01-1.76-2.41-3.16-3.87-4.55-3.78-3.57-6.47-7.68-7.47-12.84-.15-.79-1.36-.45-1.21.33h0Z"/>
      <path class="cls-16" d="m267.42,263.44c9.47,2.47,19.03,4.03,28.79,4.71.8.06.8-1.19,0-1.25-9.65-.67-19.09-2.22-28.46-4.66-.78-.2-1.11,1-.33,1.21h0Z"/>
      <path class="cls-16" d="m267.21,259.23c5.22,1.37,10.53,2.36,15.88,2.98.8.09.79-1.16,0-1.25-5.25-.61-10.44-1.59-15.55-2.93-.78-.2-1.11,1-.33,1.21h0Z"/>
      <path class="cls-16" d="m332.77,252.63c-7.05-1.05-14.14-1.75-21.26-2.08-.8-.04-.8,1.21,0,1.25,7.01.33,13.99,1,20.93,2.03.79.12,1.13-1.09.33-1.21h0Z"/>
    </g>
    <path class="cls-14" d="m371.35,420.62c.25,7.79-34.57,17.33-66.19,17.3-31.41-.03-66.08-9.53-65.83-17.3.26-7.98,37.4-14.06,66.01-14.06,28.59,0,65.75,6.08,66.01,14.06Z"/>
    <path class="cls-12" d="m357.44,420.17c-9.64,3.31-21.64,6.41-35.6,7.83-29.19,2.96-53.18-2.84-67.99-7.83h0c-.43-29.27-.62-53.35-.7-70.67-.12-22.91-.18-58.25-.18-58.25h0s.92-3.49,2.63-6.4c.48-.81,1.52-2.04,3.6-4.48,2.81-3.3,3.19-3.61,3.86-4.45,1.43-1.8,3.13-4.73,3.93-9.49.11-10.08.17-14.83.17-14.83h0s18.44-4.77,36.77-5.12c19.76-.38,39.46,4.38,39.46,4.38h0v15.73c.71,3.58,1.97,6.05,2.95,7.6,3.39,5.41,6.97,5.59,8.97,10.9.69,1.82,1.8,5.86,1.8,5.86h0s.09,61.59.09,61.59h0s.25,67.06.25,67.63Z"/>
    <path class="cls-11" d="m266.74,251.51c1.02-1.4,2.52-.89,7.07-1.86,5.33-1.14,6.92-2.63,8.34-1.64,1.44,1,.98,3.44,1.05,6.05.23,8.31,1.96,9.65,2.49,16.3.57,7.21-1.17,9.28-2.14,17.55-1.31,11.16,1.25,12.66,1.71,27.58.49,16-2.41,15.45-1.42,27.58,1.35,16.59,6.58,15.17,6.54,28.15-.04,11.8-4.38,19.38-4.83,34.12-.19,6.26,0,9.67,0,9.67,0,5.91.88,12.58.88,12.58,0,0-8.05-.99-15.72-2.68-8.82-1.94-17.25-4.82-17.25-4.82t-.22-22.15c-.05-5.21-.1-10.42-.16-15.63-.13-15.58-.27-28.14-.37-36.68-.17-14.42-.24-18.22-.27-27.29-.04-11.77.02-26.79.02-26.79-.74,1.99,1.25-4.08,2.24-5.96,2.64-4.97,5.31-5.88,8.56-10.69,2.23-3.29,3.58-5.31,3.97-8.4.28-2.2.02-4.57-.46-8.87-.45-4.03-.81-5.05-.03-6.13Z"/>
    <path class="cls-13" d="m258.22,291.01c.34,42.41.67,84.81,1.01,127.22,12.18,3.45,29.62,6.88,50.61,6.07,17.27-.66,31.76-4,42.56-7.39v-126.75c-2.53,4.3-6.64,9.75-12.09,10.09-5.33.33-7.07-4.52-13.35-5.01-7.91-.62-9.25,6.77-17.63,7.39-9.27.69-11.62-8.06-21.13-7.18-6.97.65-8.39,5.59-14.62,5.6-6.55.01-11.88-5.43-15.36-10.03Z"/>
    <g>
      <path class="cls-14" d="m379.63,195.2c.23,7.79-32.56,17.33-62.33,17.3-29.58-.03-62.22-9.53-61.99-17.3.24-7.98,35.22-14.06,62.16-14.06,26.92,0,61.92,6.08,62.16,14.06Z"/>
      <g>
        <g>
          <polygon class="cls-18" points="280.1 99.18 280.77 110.78 280.27 119.12 278.33 129.92 275.78 138.15 271.43 148.42 267.31 158.23 264.9 168.75 265.44 181.96 267.96 189.61 271.88 194.73 278.51 198.52 289.54 200.24 301.72 200.97 323.6 201.51 354.55 201.27 362.21 198.76 367.64 195.18 370.02 189.6 368.73 181.6 366.33 171.87 361.35 144.3 358.65 124.87 357.23 110.07 354.23 100.41 348.59 91.15 343.68 85 338.34 79.92 336.87 77.98 334.49 76.73 328.77 75.44 319.29 74.79 306.72 74.93 292.71 75.35 268.88 76.41 268.24 82.54 268.24 89.52 269.1 95.42 271.74 98.69 275.79 99.74 280.1 99.18"/>
          <g>
            <path class="cls-3" d="m268.88,76.41c14.87-.79,27.67-1.23,37.84-1.48,13.38-.33,29.92-.55,31.61,4.99.51,1.66-.67,2.67-.7,7.72-.03,5.56,1.38,6.66.7,8.42-1.81,4.69-14.52,3.58-29.47,3.12-6.85-.21-16.7-.36-28.77,0-2.27.59-6.38,1.24-9.12-1.01-2.73-2.25-2.76-6.29-2.81-12.63-.03-3.89.37-7.06.7-9.12Z"/>
            <path class="cls-3" d="m280.1,99.18c.84,6.88,1.13,15.62-.63,25.44-4.14,23.1-15.77,30.73-14.73,51.22.57,11.3,4.28,16.33,7.13,18.89,4.56,4.1,10.16,4.78,13.21,5.11,22.82,2.41,64.6,1.54,69.46,1.43-3.78-24.57-3.69-44.38-2.81-58.41,1.15-18.21,3.09-34.51-6.31-51.22-3.11-5.54-7.62-11.31-7.09-11.72.49-.38,8.09,7.25,13.4,15.93,9.24,15.09,3.68,20.43,10.7,54,.38,3.13,1.02,7.86,2.1,13.58,3.66,19.33,7.7,25.55,4.03,30.65-3.74,5.19-14.03,7.19-14.03,7.19h0"/>
          </g>
        </g>
        <path class="cls-9" d="m278.84,127.76l73.67,2.82,6.49-2.23,2.35,15.95c-3.34,2.47-6.67,4.94-10.01,7.41-26.63-1.1-53.27-2.2-79.9-3.3l4.35-10.27,3.06-10.38Z"/>
      </g>
    </g>
    <g>
      <path class="cls-14" d="m496.09,373.4c.17,6.94-23.49,15.45-44.98,15.42-21.34-.03-44.9-8.49-44.73-15.42.17-7.12,25.41-12.53,44.85-12.53,19.43,0,44.68,5.41,44.85,12.53Z"/>
      <g>
        <g>
          <path class="cls-12" d="m416.76,373.51c7.34,2.79,19.66,6.39,35.16,5.96,12.88-.36,23.23-3.38,30.01-5.96-.15-54.85-.3-109.71-.45-164.56l-2.53-6.69-3.21-3.91-3.07-2.59-2.87-1.83-3.8-1.83-2.86-1.05c.15-15.63.31-31.26.46-46.88-3.53.43-7.49.71-11.83.7-5.64-.01-10.69-.52-15.01-1.21-.1,16.07-.21,32.15-.31,48.22l-5.03,1.89-7.88,5.18-3.51,4.32-1.58,4.42-1.69,165.84Z"/>
          <g>
            <path class="cls-3" d="m416.76,373.51c7.01,2.67,18.58,6.09,33.18,5.99,13.98-.09,25.1-3.37,31.99-5.99,0-29.66,0-59.31,0-88.97q0-19.14,0-19.14c.03-10.85-.07-21.71,0-32.57.13-20.81.5-25.2-2.98-30.58-4.28-6.6-11.15-9.69-15.8-11.21.07-16.14.13-32.27.2-48.41-8.86-.12-17.71-.24-26.57-.36-.09,16.52-.18,33.05-.27,49.57-10.26,3.15-14.54,8.23-16.48,11.41-1.86,3.04-2.39,5.69-2.49,30.08-.03,6.81,0,12.47,0,21.88,0,0,0,3.48,0,16.16,0,15.67,0,37.95-.25,63.14-.09,9.77-.25,23.08-.54,39Z"/>
            <path class="cls-3" d="m481.93,373.51c-8.28-1.91-18.89-3.6-31.24-3.71-13.57-.13-25.12,1.68-33.93,3.71"/>
            <path class="cls-19" d="m436.46,130.04c3.3-.83,7.71-1.6,12.93-1.59,5.72,0,10.49.95,13.95,1.91,1.78,4.09,3.56,8.17,5.34,12.26-5.25.94-11.77,1.67-19.23,1.54-6.96-.12-13.05-.96-18.02-1.98,1.68-4.05,3.35-8.09,5.03-12.14Z"/>
            <g>
              <path class="cls-3" d="m431.43,142.18c4.98,1.01,11.06,1.85,18.02,1.98,7.47.13,13.98-.6,19.23-1.54-1.78-4.09-3.56-8.17-5.34-12.26-8.96-.1-17.92-.21-26.88-.31-1.68,4.05-3.35,8.09-5.03,12.14Z"/>
              <path class="cls-3" d="m436.46,130.04c3.3-.83,7.71-1.6,12.93-1.59,5.72,0,10.49.95,13.95,1.91"/>
            </g>
            <path class="cls-10" d="m422.24,369.42c4.61,2.72,14.93,7.94,28.75,7.52,12.01-.37,21-4.83,25.54-7.52v-155.69c-4.41,6.26-8.6,8.3-11.82,8.9-6.5,1.2-8.56-3.61-17.36-3.64-7.62-.02-9.74,3.57-15.51,2.02-4.56-1.23-7.71-4.68-9.6-7.28v155.69Z"/>
          </g>
        </g>
        <text/>
      </g>
    </g>
  </g>
  <g>
    <rect class="cls-2" width="595.28" height="494.6"/>
    <path class="cls-11" d="m436.51,191.84l-8.32,3.61-7,6.06-2.74,6.17-.1,10.06-1.59,155.78,9.87,3.12,9.82,1.96c1.42-7.41,2.92-18.44,2.3-31.75-.79-16.87-4.19-20.23-5.67-36.2-2.14-23.11,4.32-23.23,3.05-48.41-.97-19.26-4.95-23.13-4.29-41.21.45-12.33,2.73-22.41,4.67-29.17Z"/>
    <path class="cls-11" d="m115.82,259.88l10.17,43.5-18.69,68.98,11.28,2.39,11.42,2.23c-1.46-4.2-3.21-10.55-3.53-18.35-.46-11.3,2.48-16.14,4.36-26.17,3.46-18.39-2.53-22.8-2.18-50.6.13-10.25,1.05-18.58,1.79-23.9l-14.61,1.93Z"/>
    <path class="cls-11" d="m295.41,99.74l-15.31-.56.66,11.61-1.92,16.98-5.61,16.41-3.56,7.54-5.99,21.24,1.77,9,5.08,9.88,4.71,5.25,9.85,2.74,4.45.41c-4.39-7.29-8.6-17.19-7.91-28.7.16-2.69,1.73-8.51,4.87-20.02,5.79-21.24,6.66-24.38,7.5-29.63.79-4.95,1.68-12.55,1.42-22.16Z"/>
    <path class="cls-21" d="m343.9,284.49c.37-1.28,1.48-2.19,2.75-2.28,1.43-.11,2.79.84,3.22,2.28-1.21,60.06-2.29,88.52-3.27,88.51-.95,0-1.86-26.85-2.7-88.51Z"/>
    <path class="cls-21" d="m470.24,205.17c.29-1.38,1.48-2.39,2.85-2.45,1.46-.06,2.8.97,3.12,2.45-1.21,60.06-2.29,88.52-3.27,88.51-.95,0-1.86-26.85-2.7-88.51Z"/>
    <path class="cls-21" d="m164.1,310.49c-.12-.75.32-1.46.99-1.67.75-.24,1.62.2,1.87,1.02,5.8,28.3,8.3,41.75,7.83,41.85-.46.1-3.74-12.38-10.69-41.2Z"/>
    <path class="cls-8" d="m417.53,243.91c6.17,2.77,17.21,6.77,31.51,6.92,15.01.16,26.59-4.01,32.86-6.79.03,10.82.07,21.63.1,32.45-6.58,2.58-16.36,5.52-28.49,6.11-15.91.77-28.59-2.89-36.03-5.68.01-11,.03-22,.04-33.01Z"/>
  </g>
</svg>